<!DOCTYPE svg PUBLIC "-//W3C//DTD SVG 1.1//EN" "http://www.w3.org/Graphics/SVG/1.1/DTD/svg11.dtd">
<!-- Uploaded to: SVG Repo, www.svgrepo.com, Transformed by: SVG Repo Mixer Tools -->
<svg width="180px" height="180px" viewBox="-2.4 -2.4 28.80 28.80" fill="none" xmlns="http://www.w3.org/2000/svg" stroke="#729cfd" transform="matrix(1, 0, 0, 1, 0, 0)rotate(0)">
<g id="SVGRepo_bgCarrier" stroke-width="0"/>
<g id="SVGRepo_tracerCarrier" stroke-linecap="round" stroke-linejoin="round" stroke="#CCCCCC" stroke-width="0.048"/>
<g id="SVGRepo_iconCarrier"> <path d="M18 20C18.5523 20 19 19.5523 19 19C19 18.4477 18.5523 18 18 18C17.4477 18 17 18.4477 17 19C17 19.5523 17.4477 20 18 20Z" fill="#729cfd"/> <path fill-rule="evenodd" clip-rule="evenodd" d="M3.68342 3.37141C2.95124 6.78828 1.45964 13.8294 1.08623 15.5927C1.02856 15.8651 1 16.1403 1 16.4187V20C1 21.6569 2.34315 23 4 23H20C21.6569 23 23 21.6569 23 20V16.4187C23 16.1403 22.9714 15.8651 22.9138 15.5927C22.5404 13.8294 21.0488 6.78828 20.3166 3.37141C20.0202 1.9882 18.7978 1 17.3832 1H6.61683C5.20222 1 3.97983 1.9882 3.68342 3.37141ZM6.61683 3C6.14529 3 5.73783 3.3294 5.63903 3.79047L3.23699 15H20.763L18.361 3.79047C18.2622 3.3294 17.8547 3 17.3832 3H6.61683ZM21 18C21 17.4477 20.5523 17 20 17H4C3.44772 17 3 17.4477 3 18V20C3 20.5523 3.44772 21 4 21H20C20.5523 21 21 20.5523 21 20V18Z" fill="#729cfd"/> </g>
</svg>