<?xml version="1.0" encoding="iso-8859-1"?>
<!-- Uploaded to: SVG Repo, www.svgrepo.com, Generator: SVG Repo Mixer Tools -->
<svg version="1.1" id="Layer_1" xmlns="http://www.w3.org/2000/svg" xmlns:xlink="http://www.w3.org/1999/xlink" 
	 viewBox="0 0 392.598 392.598" xml:space="preserve">
<path style="fill:#FFFFFF;" d="M205.414,141.77H32.743c-6.012,0-10.925,4.848-10.925,10.925v207.192
	c0,6.012,4.848,10.925,10.925,10.925h172.735c6.012,0,10.925-4.848,10.925-10.925V152.76
	C216.339,146.747,211.426,141.77,205.414,141.77z"/>
<rect x="59.442" y="21.851" style="fill:#FFC10D;" width="119.337" height="98.133"/>
<path style="fill:#56ACE0;" d="M43.604,163.62v34.004h37.883c6.012,0,10.925,4.848,10.925,10.925
	c0,6.012-4.848,10.925-10.925,10.925H43.604v17.778h16.097c6.012,0,10.925,4.848,10.925,10.925c0,6.012-4.848,10.925-10.925,10.925
	H43.604v89.923h150.885V163.62H43.604z"/>
<g>
	<path style="fill:#194F82;" d="M205.414,119.984h-4.848V10.925C200.566,4.913,195.717,0,189.64,0H48.582
		C42.57,0,37.657,4.848,37.657,10.925v109.059h-4.848c-18.101,0-32.776,14.675-32.776,32.776v207.127
		c0,18.036,14.675,32.711,32.711,32.711h172.735c18.036,0,32.711-14.675,32.711-32.711V152.76
		C238.19,134.659,223.515,119.984,205.414,119.984z M59.442,21.851H178.78v98.133H59.442V21.851z M216.339,359.887
		c0,6.012-4.848,10.925-10.925,10.925H32.743c-6.012,0-10.925-4.848-10.925-10.925V152.76c0-6.012,4.848-10.925,10.925-10.925
		h172.735c6.012,0,10.925,4.848,10.925,10.925v207.127H216.339z"/>
	<path style="fill:#194F82;" d="M283.184,248.566c-4.267-4.267-11.119-4.267-15.451,0c-4.267,4.267-4.267,11.119,0,15.45
		c5.818,5.818,9.051,13.511,9.051,21.786s-3.168,15.968-9.051,21.786c-4.267,4.267-4.331,11.184,0,15.451
		c5.947,5.883,13.317,2.133,15.451,0c9.956-9.956,15.451-23.208,15.451-37.236C298.634,271.644,293.139,258.457,283.184,248.566z"/>
	<path style="fill:#194F82;" d="M316.606,215.208c-4.267-4.267-11.119-4.267-15.451,0c-4.267,4.267-4.267,11.119,0,15.451
		c14.739,14.739,22.885,34.327,22.885,55.143s-8.145,40.404-22.885,55.143c-4.267,4.267-4.59,11.507,0,15.451
		c6.723,5.689,13.317,2.133,15.451,0c18.877-18.877,29.285-43.96,29.285-70.659C345.826,259.103,335.483,234.02,316.606,215.208z"/>
	<path style="fill:#194F82;" d="M349.576,182.109c-4.267-4.267-11.119-4.267-15.451,0c-4.267,4.267-4.267,11.119,0,15.451
		c23.596,23.596,36.525,54.949,36.525,88.242s-12.994,64.646-36.525,88.242c-4.267,4.267-4.59,11.507,0,15.451
		c6.723,5.689,13.317,2.133,15.451,0c27.733-27.798,42.99-64.582,42.99-103.758C392.566,246.626,377.374,209.778,349.576,182.109z"
		/>
	<path style="fill:#194F82;" d="M92.541,40.081c-6.012,0-10.925,4.848-10.925,10.925v39.952c0,6.012,4.848,10.925,10.925,10.925
		c6.077,0,10.925-4.848,10.925-10.925V51.006C103.402,44.929,98.554,40.081,92.541,40.081z"/>
	<path style="fill:#194F82;" d="M145.616,40.081c-6.012,0-10.925,4.848-10.925,10.925v39.952c0,6.012,4.848,10.925,10.925,10.925
		c6.012,0,10.925-4.848,10.925-10.925V51.006C156.606,44.929,151.628,40.081,145.616,40.081z"/>
	<path style="fill:#194F82;" d="M159.192,320.259H78.901c-6.012,0-10.925,4.848-10.925,10.925c0,6.012,4.848,10.925,10.925,10.925
		h80.291c6.012,0,10.925-4.848,10.925-10.925C170.182,325.172,165.204,320.259,159.192,320.259z"/>
</g>
</svg>