<svg xmlns="http://www.w3.org/2000/svg" viewBox="0 0 704.96 550"><defs><style>.cls-1{fill:#f2f3f5;fill-opacity:0.1;}.cls-2{fill:#fff;}.cls-3{fill:#bec1d0;}.cls-4{fill:#d5d7e0;}.cls-5{fill:#e1e2e8;}.cls-6{fill:#b3b5c9;}.cls-7{fill:#1c2bf0;}.cls-8{fill:#0954f5;}.cls-9{fill:#ecedf0;}.cls-10{fill:#009f78;}.cls-11{fill:#09e4a8;}</style></defs><g id="Layer_2" data-name="Layer 2"><g id="illustration-1"><g id="bed"><path class="cls-1" d="M665,327.22a32.7,32.7,0,0,1-16.51,28.59l-29.4,17-237.21,137a81.48,81.48,0,0,1-17.78,7.64,78.09,78.09,0,0,1-9.51,2.23,82.55,82.55,0,0,1-55.25-9.87L62.16,372.8l-29.4-17a33,33,0,0,1,0-57.18L299.38,144.69a82.51,82.51,0,0,1,82.54,0L648.53,298.63A32.68,32.68,0,0,1,665,327.22Z"/><path class="cls-2" d="M340.68,521.84a83.54,83.54,0,0,1-41.82-11.2L61.64,373.69l-29.4-17a34,34,0,0,1,0-59L298.86,143.79a83.82,83.82,0,0,1,83.58,0L649.05,297.73a34,34,0,0,1,0,59l-29.41,17-237.2,137a83.16,83.16,0,0,1-18,7.74,80.52,80.52,0,0,1-9.63,2.26A84,84,0,0,1,340.68,521.84Zm0-387.15a81.46,81.46,0,0,0-40.75,10.89L33.27,299.52a32,32,0,0,0,0,55.4l29.4,17,237.23,137a81.72,81.72,0,0,0,54.56,9.75,80.4,80.4,0,0,0,9.39-2.2,81.5,81.5,0,0,0,17.56-7.55l237.2-137,29.4-17a32,32,0,0,0,0-55.4L381.41,145.58A81.5,81.5,0,0,0,340.65,134.69Z"/><ellipse class="cls-1" cx="175.65" cy="514.7" rx="11.76" ry="6.79"/><path class="cls-2" d="M175.66,522.54a18,18,0,0,1-8.84-2.15c-2.55-1.47-4-3.5-4-5.69s1.41-4.22,4-5.7a19.27,19.27,0,0,1,17.67,0c2.55,1.48,4,3.5,4,5.7s-1.41,4.22-4,5.69h0A18,18,0,0,1,175.66,522.54Zm0-13.61a16,16,0,0,0-7.8,1.86c-1.89,1.09-2.93,2.48-2.93,3.91s1,2.81,2.93,3.9a17.2,17.2,0,0,0,15.59,0h0c1.89-1.09,2.93-2.47,2.93-3.9s-1-2.82-2.93-3.91A15.94,15.94,0,0,0,175.66,508.93Z"/><ellipse class="cls-1" cx="125.54" cy="542.16" rx="11.76" ry="6.79"/><path class="cls-2" d="M125.54,550a18,18,0,0,1-8.83-2.14c-2.56-1.48-4-3.5-4-5.7s1.4-4.22,4-5.69a19.25,19.25,0,0,1,17.66,0c2.55,1.47,4,3.49,4,5.69s-1.41,4.22-4,5.7h0A18,18,0,0,1,125.54,550Zm0-13.61a16,16,0,0,0-7.8,1.86c-1.89,1.09-2.93,2.48-2.93,3.91s1,2.82,2.93,3.91a17.28,17.28,0,0,0,15.6,0h0c1.89-1.09,2.93-2.48,2.93-3.91s-1-2.82-2.93-3.91A16,16,0,0,0,125.54,536.39Z"/><ellipse class="cls-1" cx="78.87" cy="522.05" rx="11.76" ry="6.79"/><path class="cls-2" d="M78.87,529.89A18,18,0,0,1,70,527.74c-2.55-1.47-4-3.49-4-5.69s1.41-4.22,4-5.69a19.27,19.27,0,0,1,17.67,0c2.55,1.47,4,3.49,4,5.69s-1.41,4.22-4,5.69h0A18,18,0,0,1,78.87,529.89Zm0-13.61a16,16,0,0,0-7.8,1.86c-1.89,1.09-2.93,2.48-2.93,3.91s1,2.82,2.93,3.91a17.28,17.28,0,0,0,15.6,0c1.88-1.09,2.92-2.48,2.92-3.91s-1-2.82-2.92-3.91A16,16,0,0,0,78.87,516.28Z"/><path class="cls-2" d="M79.9,515.26H77.83v-15.2c0-2.57,1.73-5,4.74-6.77l94.59-54.61,1,1.78L83.6,495.07c-2.35,1.36-3.7,3.18-3.7,5Z"/><path class="cls-2" d="M176.69,507.91h-2.07v-15.2c0-2.57,1.73-5,4.74-6.77l39.83-23,1,1.79-39.83,23c-2.35,1.36-3.7,3.18-3.7,5Z"/><path class="cls-2" d="M126.57,535.37h-2.06V497.6c0-2.57,1.72-5,4.73-6.78l69.12-39.9,1,1.78-69.12,39.91c-2.35,1.36-3.7,3.18-3.7,5Z"/><ellipse class="cls-1" cx="60.36" cy="433.43" rx="11.76" ry="6.79"/><path class="cls-2" d="M60.36,441.27a18,18,0,0,1-8.83-2.15c-2.55-1.47-4-3.49-4-5.69s1.41-4.22,4-5.7h0a19.25,19.25,0,0,1,17.66,0c2.56,1.48,4,3.5,4,5.7s-1.4,4.22-4,5.69A18,18,0,0,1,60.36,441.27Zm0-13.61a16,16,0,0,0-7.8,1.86h0c-1.89,1.09-2.93,2.48-2.93,3.91s1,2.81,2.93,3.9a17.22,17.22,0,0,0,15.6,0c1.89-1.09,2.93-2.47,2.93-3.9s-1-2.82-2.93-3.91A16,16,0,0,0,60.36,427.66Z"/><ellipse class="cls-1" cx="12.79" cy="462.36" rx="11.76" ry="6.79"/><path class="cls-2" d="M12.79,470.2A18,18,0,0,1,4,468.06c-2.55-1.48-4-3.5-4-5.7s1.41-4.22,4-5.69a19.25,19.25,0,0,1,17.66,0c2.56,1.47,4,3.5,4,5.69s-1.4,4.22-4,5.7A18,18,0,0,1,12.79,470.2Zm0-13.61A16,16,0,0,0,5,458.45c-1.89,1.09-2.93,2.48-2.93,3.91s1,2.82,2.93,3.91a17.28,17.28,0,0,0,15.6,0c1.89-1.09,2.93-2.48,2.93-3.91s-1-2.82-2.93-3.91A16,16,0,0,0,12.79,456.59Z"/><path class="cls-2" d="M98.44,434.46H72.12V432.4H98.44a20,20,0,0,0,9.68-2.3l27.09-15.64,1,1.78-27.09,15.64A21.78,21.78,0,0,1,98.44,434.46Z"/><path class="cls-2" d="M90,463.39H24.55v-2.06H90a20,20,0,0,0,9.67-2.3L156,426.48l1,1.79-56.39,32.55A21.71,21.71,0,0,1,90,463.39Z"/><ellipse class="cls-1" cx="529.3" cy="501.7" rx="11.76" ry="6.79"/><path class="cls-2" d="M529.3,509.54a18,18,0,0,1-8.83-2.15c-2.55-1.47-4-3.49-4-5.69s1.41-4.22,4-5.69a19.22,19.22,0,0,1,17.66,0c2.55,1.47,4,3.49,4,5.69s-1.41,4.22-4,5.69A18,18,0,0,1,529.3,509.54Zm0-13.61a16,16,0,0,0-7.8,1.86c-1.89,1.09-2.93,2.48-2.93,3.91s1,2.82,2.93,3.91h0a17.28,17.28,0,0,0,15.6,0c1.89-1.09,2.93-2.48,2.93-3.91s-1-2.82-2.93-3.91A16,16,0,0,0,529.3,495.93Z"/><ellipse class="cls-1" cx="579.42" cy="529.16" rx="11.76" ry="6.79"/><path class="cls-2" d="M579.42,537a18,18,0,0,1-8.83-2.14c-2.56-1.48-4-3.5-4-5.7s1.4-4.22,4-5.69a19.25,19.25,0,0,1,17.66,0c2.55,1.47,4,3.5,4,5.69s-1.41,4.22-4,5.7A18,18,0,0,1,579.42,537Zm0-13.61a15.85,15.85,0,0,0-7.8,1.87c-1.89,1.09-2.93,2.47-2.93,3.9s1,2.82,2.93,3.91h0a17.22,17.22,0,0,0,15.6,0c1.89-1.09,2.93-2.48,2.93-3.91s-1-2.81-2.93-3.9A15.87,15.87,0,0,0,579.42,523.39Z"/><ellipse class="cls-1" cx="626.09" cy="509.05" rx="11.76" ry="6.79"/><path class="cls-2" d="M626.09,516.89a18.06,18.06,0,0,1-8.83-2.14h0c-2.55-1.48-4-3.5-4-5.7s1.41-4.22,4-5.69a19.25,19.25,0,0,1,17.66,0c2.55,1.47,4,3.49,4,5.69s-1.41,4.22-4,5.7A18.09,18.09,0,0,1,626.09,516.89Zm-7.8-3.93a17.28,17.28,0,0,0,15.6,0c1.89-1.09,2.93-2.48,2.93-3.91s-1-2.82-2.93-3.91a17.28,17.28,0,0,0-15.6,0c-1.89,1.09-2.93,2.48-2.93,3.91s1,2.82,2.93,3.91Z"/><path class="cls-2" d="M627.12,502.26h-2.06v-15.2c0-1.81-1.35-3.62-3.71-5l-94.58-54.62,1-1.78,94.59,54.61c3,1.74,4.73,4.21,4.73,6.77Z"/><path class="cls-2" d="M530.33,494.91h-2.06v-15.2c0-1.81-1.35-3.63-3.7-5l-39.83-23,1-1.79,39.83,23c3,1.73,4.73,4.2,4.73,6.77Z"/><path class="cls-2" d="M580.45,522.37h-2.06V484.6c0-1.81-1.35-3.63-3.71-5L505.56,439.7l1-1.78,69.11,39.9c3,1.74,4.74,4.21,4.74,6.78Z"/><ellipse class="cls-1" cx="644.59" cy="420.43" rx="11.76" ry="6.79"/><path class="cls-2" d="M644.59,428.27a18,18,0,0,1-8.83-2.15c-2.55-1.47-4-3.49-4-5.69s1.41-4.22,4-5.7a19.28,19.28,0,0,1,17.66,0c2.56,1.48,4,3.5,4,5.7s-1.4,4.22-4,5.69A18,18,0,0,1,644.59,428.27Zm0-13.61a16,16,0,0,0-7.8,1.86c-1.89,1.09-2.92,2.48-2.92,3.91s1,2.82,2.92,3.91a17.28,17.28,0,0,0,15.6,0c1.89-1.09,2.93-2.48,2.93-3.91s-1-2.82-2.93-3.91h0A16,16,0,0,0,644.59,414.66Z"/><ellipse class="cls-1" cx="692.16" cy="449.36" rx="11.76" ry="6.79"/><path class="cls-2" d="M692.16,457.2a18,18,0,0,1-8.83-2.14c-2.55-1.48-4-3.5-4-5.7s1.41-4.22,4-5.69a19.27,19.27,0,0,1,17.67,0c2.55,1.47,4,3.5,4,5.69s-1.41,4.22-4,5.7A18,18,0,0,1,692.16,457.2Zm0-13.61a15.87,15.87,0,0,0-7.8,1.87c-1.88,1.09-2.92,2.47-2.92,3.9s1,2.82,2.92,3.91a17.28,17.28,0,0,0,15.6,0c1.89-1.09,2.93-2.48,2.93-3.91s-1-2.81-2.93-3.9A15.85,15.85,0,0,0,692.16,443.59Z"/><path class="cls-2" d="M632.83,421.46H606.51a21.77,21.77,0,0,1-10.7-2.57l-27.09-15.65,1-1.78,27.09,15.64a20,20,0,0,0,9.67,2.3h26.32Z"/><path class="cls-2" d="M680.4,450.39H615a21.78,21.78,0,0,1-10.71-2.57l-56.38-32.55,1-1.79L605.3,446a20,20,0,0,0,9.68,2.3H680.4Z"/></g><g id="server"><path class="cls-3" d="M629.62,231.32v81.19A29.13,29.13,0,0,1,614.91,338L377.41,475.1a73,73,0,0,1-15.83,6.81,69.75,69.75,0,0,1-8.47,2,73.23,73.23,0,0,1-24.93,0,75.31,75.31,0,0,1-8.47-2,73.45,73.45,0,0,1-15.82-6.81L66.37,338a29.14,29.14,0,0,1-14.7-25.47V231.32a29.14,29.14,0,0,1,14.7-25.47L303.89,68.72a73.53,73.53,0,0,1,73.52,0l237.5,137.13A29.13,29.13,0,0,1,629.62,231.32Z"/><path class="cls-4" d="M361.58,400.73v81.18a69.75,69.75,0,0,1-8.47,2,73.23,73.23,0,0,1-24.93,0,75.31,75.31,0,0,1-8.47-2V400.73a71.17,71.17,0,0,0,8.47,2,73.48,73.48,0,0,0,24.93,0A71.72,71.72,0,0,0,361.58,400.73Z"/><path class="cls-2" d="M629.62,231.32a29.11,29.11,0,0,1-14.71,25.47l-26.19,15.14-211.31,122a72.47,72.47,0,0,1-15.83,6.81,71.72,71.72,0,0,1-8.47,2,73.48,73.48,0,0,1-24.93,0,71.17,71.17,0,0,1-8.47-2,72.47,72.47,0,0,1-15.82-6.81l-211.33-122L66.37,256.79a29.42,29.42,0,0,1,0-50.94L303.89,68.72a73.53,73.53,0,0,1,73.52,0l237.5,137.13A29.13,29.13,0,0,1,629.62,231.32Z"/><path class="cls-5" d="M340.67,382.31a65.18,65.18,0,0,1-32.6-8.73l-206-119A26.88,26.88,0,0,1,102,208l206.05-119a65.35,65.35,0,0,1,65.16,0l206,119a26.89,26.89,0,0,1,0,46.57l-206,119a64.93,64.93,0,0,1-14,6,62.31,62.31,0,0,1-7.5,1.76A64.9,64.9,0,0,1,340.67,382.31Zm0-299.19a62.49,62.49,0,0,0-31.21,8.33l-206,119a24.14,24.14,0,0,0,0,41.81l206.05,119A62,62,0,0,0,322.87,377a63.74,63.74,0,0,0,7.19,1.68,62.38,62.38,0,0,0,21.16,0,59.09,59.09,0,0,0,7.19-1.69,61.79,61.79,0,0,0,13.44-5.77l206-119a24.14,24.14,0,0,0,0-41.81l-206-119A62.49,62.49,0,0,0,340.65,83.12Z"/><path class="cls-6" d="M496,238.72a10.54,10.54,0,0,1-.59,1.16,17.11,17.11,0,0,1-5.94,6.34,4.75,4.75,0,0,1-.75.47l-130.3,75.24a35.44,35.44,0,0,1-35.49,0L192.59,246.69a5.87,5.87,0,0,1-.75-.47,17.19,17.19,0,0,1-5.94-6.34,12.63,12.63,0,0,1-.59-1.16A17.75,17.75,0,0,1,192.59,216L322.9,140.72a35.49,35.49,0,0,1,35.49,0L488.69,216A17.74,17.74,0,0,1,496,238.72Z"/><path class="cls-4" d="M495.38,239.88a17.11,17.11,0,0,1-5.94,6.34,4.75,4.75,0,0,1-.75.47l-130.3,75.24a35.44,35.44,0,0,1-35.49,0L192.59,246.69a5.87,5.87,0,0,1-.75-.47,17.19,17.19,0,0,1-5.94-6.34,17.81,17.81,0,0,1,6.69-6.81L322.9,157.85a35.54,35.54,0,0,1,35.49,0l130.3,75.22A17.67,17.67,0,0,1,495.38,239.88Z"/><path class="cls-7" d="M380.79,236.26a3.33,3.33,0,0,0-1.68-2.93L344.9,213.58a8.5,8.5,0,0,0-8.45,0l-34.21,19.75a3.36,3.36,0,0,0-1.69,2.93v7.49a3.36,3.36,0,0,0,1.69,2.92l34.21,19.75a8.45,8.45,0,0,0,8.45,0l34.21-19.75a3.33,3.33,0,0,0,1.68-2.93h0v-7.48Z"/><path class="cls-8" d="M380.79,236.26a3.34,3.34,0,0,1-1.68,2.92l-1.3.76-32.91,19a8.45,8.45,0,0,1-8.45,0l-32.91-19-1.3-.76a3.38,3.38,0,0,1,0-5.85l34.21-19.75a8.5,8.5,0,0,1,8.45,0l34.21,19.75A3.33,3.33,0,0,1,380.79,236.26Z"/><path class="cls-7" d="M404.5,227.75a.84.84,0,0,0-.41-.73l-8.49-4.9a2.11,2.11,0,0,0-2.09,0L385,227a.83.83,0,0,0-.41.72v3.76a.85.85,0,0,0,.41.73l8.49,4.9a2.11,2.11,0,0,0,2.09,0l8.49-4.9a.85.85,0,0,0,.41-.73h0v-3.75Z"/><path class="cls-8" d="M404.5,227.75a.83.83,0,0,1-.41.72l-.33.19-8.16,4.71a2.11,2.11,0,0,1-2.09,0l-8.16-4.71-.33-.19a.85.85,0,0,1,0-1.45l8.49-4.9a2.11,2.11,0,0,1,2.09,0l8.49,4.9A.84.84,0,0,1,404.5,227.75Z"/><path class="cls-7" d="M368.57,207.07a.83.83,0,0,0-.42-.73l-8.48-4.9a2.11,2.11,0,0,0-2.09,0l-8.49,4.9a.84.84,0,0,0-.41.73v3.76a.83.83,0,0,0,.41.72l8.49,4.9a2.11,2.11,0,0,0,2.09,0l8.48-4.9a.83.83,0,0,0,.42-.73h0v-3.75Z"/><path class="cls-8" d="M368.57,207.07a.82.82,0,0,1-.42.72l-.32.19-8.16,4.71a2.11,2.11,0,0,1-2.09,0L349.42,208l-.33-.19a.85.85,0,0,1,0-1.45l8.49-4.9a2.11,2.11,0,0,1,2.09,0l8.48,4.9A.83.83,0,0,1,368.57,207.07Z"/><path class="cls-7" d="M386.47,217.32a.84.84,0,0,0-.42-.73l-8.48-4.9a2.13,2.13,0,0,0-2.1,0l-8.48,4.9a.84.84,0,0,0-.42.73v3.76a.82.82,0,0,0,.42.72l8.48,4.9a2.13,2.13,0,0,0,2.1,0l8.48-4.9a.83.83,0,0,0,.42-.73h0v-3.75Z"/><path class="cls-8" d="M386.47,217.32a.82.82,0,0,1-.42.72l-.32.19-8.16,4.71a2.08,2.08,0,0,1-2.1,0l-8.16-4.71L367,218a.82.82,0,0,1-.42-.72.84.84,0,0,1,.42-.73l8.48-4.9a2.13,2.13,0,0,1,2.1,0l8.48,4.9A.84.84,0,0,1,386.47,217.32Z"/><path class="cls-7" d="M422.16,217.41a.83.83,0,0,0-.42-.73l-8.48-4.9a2.11,2.11,0,0,0-2.09,0l-8.49,4.9a.82.82,0,0,0-.42.72v3.76a.83.83,0,0,0,.42.73l8.49,4.9a2.11,2.11,0,0,0,2.09,0l8.48-4.9a.83.83,0,0,0,.42-.73h0v-3.75Z"/><path class="cls-8" d="M422.16,217.41a.82.82,0,0,1-.42.72l-.32.19L413.26,223a2.11,2.11,0,0,1-2.09,0L403,218.32l-.32-.19a.84.84,0,0,1,0-1.45l8.49-4.9a2.11,2.11,0,0,1,2.09,0l8.48,4.9A.83.83,0,0,1,422.16,217.41Z"/><path class="cls-7" d="M386.23,196.73a.84.84,0,0,0-.42-.73l-8.48-4.9a2.11,2.11,0,0,0-2.09,0l-8.49,4.9a.84.84,0,0,0-.42.73v3.76a.82.82,0,0,0,.42.72l8.49,4.9a2.11,2.11,0,0,0,2.09,0l8.48-4.9a.83.83,0,0,0,.42-.73h0v-3.75Z"/><path class="cls-8" d="M386.23,196.73a.82.82,0,0,1-.42.72l-.32.19-8.16,4.71a2.11,2.11,0,0,1-2.09,0l-8.17-4.71-.32-.19a.82.82,0,0,1-.42-.72.84.84,0,0,1,.42-.73l8.49-4.9a2.11,2.11,0,0,1,2.09,0l8.48,4.9A.84.84,0,0,1,386.23,196.73Z"/><path class="cls-7" d="M404.12,207a.81.81,0,0,0-.41-.73l-8.49-4.9a2.11,2.11,0,0,0-2.09,0l-8.48,4.9a.84.84,0,0,0-.42.73v3.76a.82.82,0,0,0,.42.72l8.48,4.9a2.11,2.11,0,0,0,2.09,0l8.49-4.9a.79.79,0,0,0,.41-.72h0V207Z"/><path class="cls-8" d="M404.12,207a.81.81,0,0,1-.41.72l-.32.19-8.17,4.71a2.06,2.06,0,0,1-2.09,0L385,207.89l-.32-.19a.82.82,0,0,1-.42-.72.84.84,0,0,1,.42-.73l8.48-4.9a2.11,2.11,0,0,1,2.09,0l8.49,4.9A.81.81,0,0,1,404.12,207Z"/><path class="cls-7" d="M312.81,280.83a.82.82,0,0,0-.42-.72l-8.48-4.9a2.11,2.11,0,0,0-2.09,0l-8.49,4.9a.82.82,0,0,0-.42.72v3.76a.85.85,0,0,0,.42.73l8.49,4.89a2.06,2.06,0,0,0,2.09,0l8.48-4.89a.85.85,0,0,0,.42-.73h0v-3.76Z"/><path class="cls-8" d="M312.81,280.83a.83.83,0,0,1-.42.73l-.32.18-8.16,4.72a2.11,2.11,0,0,1-2.09,0l-8.16-4.72-.33-.18a.84.84,0,0,1-.42-.73.82.82,0,0,1,.42-.72l8.49-4.9a2.11,2.11,0,0,1,2.09,0l8.48,4.9A.82.82,0,0,1,312.81,280.83Z"/><path class="cls-7" d="M276.88,260.15a.82.82,0,0,0-.42-.72l-8.48-4.9a2.11,2.11,0,0,0-2.09,0l-8.49,4.9a.82.82,0,0,0-.42.72v3.76a.84.84,0,0,0,.42.73l8.49,4.9a2.11,2.11,0,0,0,2.09,0l8.48-4.9a.84.84,0,0,0,.42-.73h0v-3.76Z"/><path class="cls-8" d="M276.88,260.15a.83.83,0,0,1-.42.73l-.32.18L268,265.78a2.11,2.11,0,0,1-2.09,0l-8.16-4.72-.33-.18a.84.84,0,0,1-.42-.73.82.82,0,0,1,.42-.72l8.49-4.9a2.11,2.11,0,0,1,2.09,0l8.48,4.9A.82.82,0,0,1,276.88,260.15Z"/><path class="cls-7" d="M294.78,270.41a.83.83,0,0,0-.42-.73l-8.48-4.9a2.13,2.13,0,0,0-2.1,0l-8.48,4.9a.82.82,0,0,0-.42.72v3.76a.84.84,0,0,0,.42.73l8.48,4.9a2.13,2.13,0,0,0,2.1,0l8.48-4.9a.84.84,0,0,0,.42-.73h0v-3.75Z"/><path class="cls-8" d="M294.78,270.41a.82.82,0,0,1-.42.72l-.32.19L285.88,276a2.13,2.13,0,0,1-2.1,0l-8.16-4.71-.32-.19a.84.84,0,0,1,0-1.45l8.48-4.9a2.13,2.13,0,0,1,2.1,0l8.48,4.9A.83.83,0,0,1,294.78,270.41Z"/><path class="cls-7" d="M330.47,270.49a.82.82,0,0,0-.42-.72l-8.48-4.9a2.11,2.11,0,0,0-2.09,0l-8.49,4.9a.82.82,0,0,0-.42.72v3.76a.84.84,0,0,0,.42.73l8.49,4.89a2.06,2.06,0,0,0,2.09,0l8.48-4.89a.84.84,0,0,0,.42-.73h0v-3.76Z"/><path class="cls-8" d="M330.47,270.49a.83.83,0,0,1-.42.73l-.32.18-8.16,4.72a2.11,2.11,0,0,1-2.09,0l-8.17-4.72-.32-.18a.84.84,0,0,1-.42-.73.82.82,0,0,1,.42-.72l8.49-4.9a2.11,2.11,0,0,1,2.09,0l8.48,4.9A.82.82,0,0,1,330.47,270.49Z"/><path class="cls-7" d="M371,270.49a.83.83,0,0,0-.41-.72l-8.49-4.9a2.11,2.11,0,0,0-2.09,0l-8.49,4.9a.83.83,0,0,0-.41.72v3.76a.85.85,0,0,0,.41.73l8.49,4.89a2.06,2.06,0,0,0,2.09,0l8.49-4.89a.85.85,0,0,0,.41-.73h0v-3.76Z"/><path class="cls-8" d="M371,270.49a.84.84,0,0,1-.41.73l-.33.18-8.16,4.72a2.11,2.11,0,0,1-2.09,0l-8.16-4.72-.33-.18a.85.85,0,0,1-.41-.73.83.83,0,0,1,.41-.72l8.49-4.9a2.11,2.11,0,0,1,2.09,0l8.49,4.9A.83.83,0,0,1,371,270.49Z"/><path class="cls-7" d="M350.63,280.71a.84.84,0,0,0-.42-.73l-8.48-4.9a2.11,2.11,0,0,0-2.09,0l-8.49,4.9a.84.84,0,0,0-.42.73v3.76a.82.82,0,0,0,.42.72l8.49,4.9a2.11,2.11,0,0,0,2.09,0l8.48-4.9a.82.82,0,0,0,.42-.72h0v-3.76Z"/><path class="cls-8" d="M350.63,280.71a.82.82,0,0,1-.42.72l-.32.19-8.16,4.71a2.06,2.06,0,0,1-2.09,0l-8.17-4.71-.32-.19a.82.82,0,0,1-.42-.72.84.84,0,0,1,.42-.73l8.49-4.9a2.11,2.11,0,0,1,2.09,0l8.48,4.9A.84.84,0,0,1,350.63,280.71Z"/><path class="cls-7" d="M369.72,291.67a.83.83,0,0,0-.42-.73l-8.48-4.9a2.13,2.13,0,0,0-2.1,0l-8.48,4.9a.82.82,0,0,0-.42.72v3.77a.82.82,0,0,0,.42.72l8.48,4.9a2.13,2.13,0,0,0,2.1,0l8.48-4.9a.83.83,0,0,0,.42-.73h0v-3.75Z"/><path class="cls-8" d="M369.72,291.67a.82.82,0,0,1-.42.72l-.32.19-8.16,4.71a2.13,2.13,0,0,1-2.1,0l-8.16-4.71-.32-.19a.84.84,0,0,1,0-1.45l8.48-4.9a2.13,2.13,0,0,1,2.1,0l8.48,4.9A.83.83,0,0,1,369.72,291.67Z"/><path class="cls-7" d="M331.34,291.67a.83.83,0,0,0-.42-.73l-8.49-4.9a2.11,2.11,0,0,0-2.09,0l-8.48,4.9a.82.82,0,0,0-.42.72v3.77a.82.82,0,0,0,.42.72l8.48,4.9a2.11,2.11,0,0,0,2.09,0l8.49-4.9a.83.83,0,0,0,.42-.73h0v-3.75Z"/><path class="cls-8" d="M331.34,291.67a.82.82,0,0,1-.42.72l-.32.19-8.17,4.71a2.11,2.11,0,0,1-2.09,0l-8.16-4.71-.32-.19a.84.84,0,0,1,0-1.45l8.48-4.9a2.11,2.11,0,0,1,2.09,0l8.49,4.9A.83.83,0,0,1,331.34,291.67Z"/><path class="cls-7" d="M350.63,302.71a.83.83,0,0,0-.42-.73l-8.48-4.9a2.11,2.11,0,0,0-2.09,0l-8.49,4.9a.82.82,0,0,0-.42.72v3.76a.84.84,0,0,0,.42.73l8.49,4.9a2.11,2.11,0,0,0,2.09,0l8.48-4.9a.84.84,0,0,0,.42-.73h0v-3.75Z"/><path class="cls-8" d="M350.63,302.71a.82.82,0,0,1-.42.72l-.32.19-8.16,4.71a2.11,2.11,0,0,1-2.09,0l-8.17-4.71-.32-.19a.84.84,0,0,1,0-1.45l8.49-4.9a2.11,2.11,0,0,1,2.09,0l8.48,4.9A.83.83,0,0,1,350.63,302.71Z"/><path class="cls-7" d="M441.45,228.05a.8.8,0,0,0-.41-.73l-8.49-4.9a2.11,2.11,0,0,0-2.09,0l-8.48,4.9a.83.83,0,0,0-.42.73v3.76a.82.82,0,0,0,.42.72l8.48,4.9a2.11,2.11,0,0,0,2.09,0l8.49-4.9a.8.8,0,0,0,.41-.73h0v-3.75Z"/><path class="cls-8" d="M441.45,228.05a.81.81,0,0,1-.41.72l-.32.19-8.17,4.71a2.11,2.11,0,0,1-2.09,0L422.3,229l-.32-.19a.84.84,0,0,1,0-1.45l8.48-4.9a2.11,2.11,0,0,1,2.09,0l8.49,4.9A.8.8,0,0,1,441.45,228.05Z"/><path class="cls-7" d="M460.54,239a.83.83,0,0,0-.42-.73l-8.48-4.9a2.11,2.11,0,0,0-2.09,0l-8.49,4.9a.84.84,0,0,0-.42.72v3.76a.86.86,0,0,0,.42.73l8.49,4.9a2.11,2.11,0,0,0,2.09,0l8.48-4.9a.84.84,0,0,0,.42-.73h0V239Z"/><path class="cls-8" d="M460.54,239a.82.82,0,0,1-.42.72l-.32.19-8.16,4.71a2.11,2.11,0,0,1-2.09,0l-8.16-4.71-.33-.19a.84.84,0,0,1,0-1.45l8.49-4.9a2.11,2.11,0,0,1,2.09,0l8.48,4.9A.83.83,0,0,1,460.54,239Z"/><path class="cls-7" d="M422.16,239a.83.83,0,0,0-.42-.73l-8.48-4.9a2.11,2.11,0,0,0-2.09,0l-8.49,4.9a.82.82,0,0,0-.42.72v3.76a.84.84,0,0,0,.42.73l8.49,4.9a2.11,2.11,0,0,0,2.09,0l8.48-4.9a.84.84,0,0,0,.42-.73h0V239Z"/><path class="cls-8" d="M422.16,239a.82.82,0,0,1-.42.72l-.32.19-8.16,4.71a2.11,2.11,0,0,1-2.09,0L403,239.92l-.32-.19a.84.84,0,0,1,0-1.45l8.49-4.9a2.11,2.11,0,0,1,2.09,0l8.48,4.9A.83.83,0,0,1,422.16,239Z"/><path class="cls-7" d="M441.45,250a.79.79,0,0,0-.41-.72l-8.49-4.9a2.11,2.11,0,0,0-2.09,0l-8.48,4.9a.82.82,0,0,0-.42.72v3.76a.84.84,0,0,0,.42.73l8.48,4.9a2.11,2.11,0,0,0,2.09,0l8.49-4.9a.81.81,0,0,0,.41-.73h0V250Z"/><path class="cls-8" d="M441.45,250a.82.82,0,0,1-.41.73l-.32.19-8.17,4.71a2.11,2.11,0,0,1-2.09,0L422.3,251l-.32-.19a.84.84,0,0,1-.42-.73.82.82,0,0,1,.42-.72l8.48-4.9a2.11,2.11,0,0,1,2.09,0l8.49,4.9A.79.79,0,0,1,441.45,250Z"/><path class="cls-7" d="M349.76,173.72a.81.81,0,0,0-.41-.72l-8.49-4.9a2.11,2.11,0,0,0-2.09,0l-8.48,4.9a.82.82,0,0,0-.42.72v3.76a.84.84,0,0,0,.42.73l8.48,4.9a2.11,2.11,0,0,0,2.09,0l8.49-4.9a.83.83,0,0,0,.41-.73h0v-3.76Z"/><path class="cls-8" d="M349.76,173.72a.84.84,0,0,1-.41.73l-.33.18-8.16,4.72a2.11,2.11,0,0,1-2.09,0l-8.16-4.72-.32-.18a.84.84,0,0,1-.42-.73.82.82,0,0,1,.42-.72l8.48-4.9a2.11,2.11,0,0,1,2.09,0l8.49,4.9A.81.81,0,0,1,349.76,173.72Z"/><path class="cls-7" d="M368.85,184.68a.82.82,0,0,0-.42-.72l-8.48-4.9a2.11,2.11,0,0,0-2.09,0l-8.49,4.9a.82.82,0,0,0-.42.72v3.76a.82.82,0,0,0,.42.72l8.49,4.9a2.06,2.06,0,0,0,2.09,0l8.48-4.9a.82.82,0,0,0,.42-.72h0v-3.76Z"/><path class="cls-8" d="M368.85,184.68a.84.84,0,0,1-.42.73l-.32.18L360,190.3a2.06,2.06,0,0,1-2.09,0l-8.17-4.71-.32-.18a.84.84,0,0,1-.42-.73.82.82,0,0,1,.42-.72l8.49-4.9a2.11,2.11,0,0,1,2.09,0l8.48,4.9A.82.82,0,0,1,368.85,184.68Z"/><path class="cls-7" d="M330.47,184.68a.82.82,0,0,0-.42-.72l-8.48-4.9a2.11,2.11,0,0,0-2.09,0L311,184a.82.82,0,0,0-.42.72v3.76a.82.82,0,0,0,.42.72l8.49,4.9a2.06,2.06,0,0,0,2.09,0l8.48-4.9a.82.82,0,0,0,.42-.72h0v-3.76Z"/><path class="cls-8" d="M330.47,184.68a.84.84,0,0,1-.42.73l-.32.18-8.16,4.71a2.06,2.06,0,0,1-2.09,0l-8.17-4.71-.32-.18a.84.84,0,0,1-.42-.73A.82.82,0,0,1,311,184l8.49-4.9a2.11,2.11,0,0,1,2.09,0l8.48,4.9A.82.82,0,0,1,330.47,184.68Z"/><path class="cls-7" d="M349.76,195.72a.81.81,0,0,0-.41-.72l-8.49-4.9a2.06,2.06,0,0,0-2.09,0l-8.48,4.9a.82.82,0,0,0-.42.72v3.76a.82.82,0,0,0,.42.72l8.48,4.9a2.11,2.11,0,0,0,2.09,0l8.49-4.9a.81.81,0,0,0,.41-.72h0v-3.76Z"/><path class="cls-8" d="M349.76,195.72a.86.86,0,0,1-.41.73l-.33.18-8.16,4.71a2.06,2.06,0,0,1-2.09,0l-8.16-4.71-.32-.18a.85.85,0,0,1-.42-.73.82.82,0,0,1,.42-.72l8.48-4.9a2.06,2.06,0,0,1,2.09,0l8.49,4.9A.81.81,0,0,1,349.76,195.72Z"/><path class="cls-7" d="M258.08,227.33a.84.84,0,0,0-.42-.73l-8.48-4.9a2.11,2.11,0,0,0-2.09,0l-8.49,4.9a.84.84,0,0,0-.42.73v3.76a.82.82,0,0,0,.42.72l8.49,4.9a2.11,2.11,0,0,0,2.09,0l8.48-4.9a.82.82,0,0,0,.42-.72h0v-3.76Z"/><path class="cls-8" d="M258.08,227.33a.82.82,0,0,1-.42.72l-.32.19L249.18,233a2.06,2.06,0,0,1-2.09,0l-8.17-4.71-.32-.19a.82.82,0,0,1-.42-.72.84.84,0,0,1,.42-.73l8.49-4.9a2.11,2.11,0,0,1,2.09,0l8.48,4.9A.84.84,0,0,1,258.08,227.33Z"/><path class="cls-7" d="M277.17,238.29a.83.83,0,0,0-.42-.73l-8.48-4.9a2.13,2.13,0,0,0-2.1,0l-8.48,4.9a.82.82,0,0,0-.42.72V242a.83.83,0,0,0,.42.73l8.48,4.9a2.13,2.13,0,0,0,2.1,0l8.48-4.9a.83.83,0,0,0,.42-.73h0v-3.75Z"/><path class="cls-8" d="M277.17,238.29a.82.82,0,0,1-.42.72l-.32.19-8.16,4.71a2.13,2.13,0,0,1-2.1,0L258,239.2l-.32-.19a.84.84,0,0,1,0-1.45l8.48-4.9a2.13,2.13,0,0,1,2.1,0l8.48,4.9A.83.83,0,0,1,277.17,238.29Z"/><path class="cls-7" d="M238.79,238.29a.83.83,0,0,0-.42-.73l-8.49-4.9a2.11,2.11,0,0,0-2.09,0l-8.48,4.9a.82.82,0,0,0-.42.72V242a.83.83,0,0,0,.42.73l8.48,4.9a2.11,2.11,0,0,0,2.09,0l8.49-4.9a.83.83,0,0,0,.42-.73h0v-3.75Z"/><path class="cls-8" d="M238.79,238.29a.82.82,0,0,1-.42.72l-.32.19-8.17,4.71a2.11,2.11,0,0,1-2.09,0l-8.16-4.71-.32-.19a.84.84,0,0,1,0-1.45l8.48-4.9a2.11,2.11,0,0,1,2.09,0l8.49,4.9A.83.83,0,0,1,238.79,238.29Z"/><path class="cls-7" d="M258.08,249.33a.83.83,0,0,0-.42-.73l-8.48-4.9a2.11,2.11,0,0,0-2.09,0l-8.49,4.9a.82.82,0,0,0-.42.72v3.76a.84.84,0,0,0,.42.73l8.49,4.9a2.11,2.11,0,0,0,2.09,0l8.48-4.9a.84.84,0,0,0,.42-.73h0v-3.75Z"/><path class="cls-8" d="M258.08,249.33a.82.82,0,0,1-.42.72l-.32.19L249.18,255a2.11,2.11,0,0,1-2.09,0l-8.17-4.71-.32-.19a.84.84,0,0,1,0-1.45l8.49-4.9a2.11,2.11,0,0,1,2.09,0l8.48,4.9A.83.83,0,0,1,258.08,249.33Z"/><path class="cls-7" d="M406.83,249.77a.84.84,0,0,0-.42-.73l-8.48-4.9a2.13,2.13,0,0,0-2.1,0l-8.48,4.9a.84.84,0,0,0-.42.73v3.76a.82.82,0,0,0,.42.72l8.48,4.9a2.13,2.13,0,0,0,2.1,0l8.48-4.9a.82.82,0,0,0,.42-.72h0v-3.76Z"/><path class="cls-8" d="M406.83,249.77a.82.82,0,0,1-.42.72l-.32.19-8.16,4.71a2.08,2.08,0,0,1-2.1,0l-8.16-4.71-.32-.19a.82.82,0,0,1-.42-.72.84.84,0,0,1,.42-.73l8.48-4.9a2.13,2.13,0,0,1,2.1,0l8.48,4.9A.84.84,0,0,1,406.83,249.77Z"/><path class="cls-7" d="M389.07,260.07a.82.82,0,0,0-.42-.72l-8.48-4.9a2.13,2.13,0,0,0-2.1,0l-8.48,4.9a.82.82,0,0,0-.42.72v3.76a.85.85,0,0,0,.42.73l8.48,4.89a2.08,2.08,0,0,0,2.1,0l8.48-4.89a.85.85,0,0,0,.42-.73h0v-3.76Z"/><path class="cls-8" d="M389.07,260.07a.84.84,0,0,1-.42.73l-.32.18-8.16,4.71a2.08,2.08,0,0,1-2.1,0L369.91,261l-.32-.18a.84.84,0,0,1-.42-.73.82.82,0,0,1,.42-.72l8.48-4.9a2.13,2.13,0,0,1,2.1,0l8.48,4.9A.82.82,0,0,1,389.07,260.07Z"/><path class="cls-7" d="M388.53,280.71a.84.84,0,0,0-.42-.73l-8.48-4.9a2.13,2.13,0,0,0-2.1,0l-8.48,4.9a.84.84,0,0,0-.42.73v3.76a.82.82,0,0,0,.42.72l8.48,4.9a2.13,2.13,0,0,0,2.1,0l8.48-4.9a.82.82,0,0,0,.42-.72h0v-3.76Z"/><path class="cls-8" d="M388.53,280.71a.82.82,0,0,1-.42.72l-.32.19-8.16,4.71a2.08,2.08,0,0,1-2.1,0l-8.16-4.71-.32-.19a.82.82,0,0,1-.42-.72.84.84,0,0,1,.42-.73l8.48-4.9a2.13,2.13,0,0,1,2.1,0l8.48,4.9A.84.84,0,0,1,388.53,280.71Z"/><path class="cls-7" d="M424.38,260a.83.83,0,0,0-.41-.72l-8.49-4.9a2.11,2.11,0,0,0-2.09,0l-8.49,4.9a.83.83,0,0,0-.41.72v3.76a.85.85,0,0,0,.41.73l8.49,4.9a2.11,2.11,0,0,0,2.09,0l8.49-4.9a.85.85,0,0,0,.41-.73h0V260Z"/><path class="cls-8" d="M424.38,260a.84.84,0,0,1-.41.73l-.33.18-8.16,4.72a2.11,2.11,0,0,1-2.09,0l-8.16-4.72-.33-.18a.85.85,0,0,1-.41-.73.83.83,0,0,1,.41-.72l8.49-4.9a2.11,2.11,0,0,1,2.09,0l8.49,4.9A.83.83,0,0,1,424.38,260Z"/><path class="cls-7" d="M406.62,270.29a.85.85,0,0,0-.41-.73l-8.49-4.9a2.11,2.11,0,0,0-2.09,0l-8.49,4.9a.85.85,0,0,0-.41.73v3.76a.83.83,0,0,0,.41.72l8.49,4.9a2.11,2.11,0,0,0,2.09,0l8.49-4.9a.84.84,0,0,0,.41-.73h0v-3.75Z"/><path class="cls-8" d="M406.62,270.29a.83.83,0,0,1-.41.72l-.33.19-8.16,4.71a2.11,2.11,0,0,1-2.09,0l-8.16-4.71-.33-.19a.83.83,0,0,1-.41-.72.85.85,0,0,1,.41-.73l8.49-4.9a2.11,2.11,0,0,1,2.09,0l8.49,4.9A.85.85,0,0,1,406.62,270.29Z"/><path class="cls-7" d="M278,216.45a.83.83,0,0,0-.42-.73l-8.48-4.9a2.11,2.11,0,0,0-2.09,0l-8.49,4.9a.82.82,0,0,0-.42.72v3.76a.83.83,0,0,0,.42.73l8.49,4.9a2.11,2.11,0,0,0,2.09,0l8.48-4.9a.83.83,0,0,0,.42-.73h0v-3.75Z"/><path class="cls-8" d="M278,216.45a.82.82,0,0,1-.42.72l-.32.19-8.16,4.71a2.11,2.11,0,0,1-2.09,0l-8.17-4.71-.32-.19a.84.84,0,0,1,0-1.45l8.49-4.9a2.11,2.11,0,0,1,2.09,0l8.48,4.9A.83.83,0,0,1,278,216.45Z"/><path class="cls-7" d="M313.88,195.72a.82.82,0,0,0-.42-.72L305,190.1a2.08,2.08,0,0,0-2.1,0L294.4,195a.82.82,0,0,0-.42.72v3.76a.82.82,0,0,0,.42.72l8.48,4.9a2.13,2.13,0,0,0,2.1,0l8.48-4.9a.82.82,0,0,0,.42-.72h0v-3.76Z"/><path class="cls-8" d="M313.88,195.72a.85.85,0,0,1-.42.73l-.32.18L305,201.34a2.08,2.08,0,0,1-2.1,0l-8.16-4.71-.32-.18a.85.85,0,0,1-.42-.73.82.82,0,0,1,.42-.72l8.48-4.9a2.08,2.08,0,0,1,2.1,0l8.48,4.9A.82.82,0,0,1,313.88,195.72Z"/><path class="cls-7" d="M296.12,206a.82.82,0,0,0-.42-.72l-8.48-4.9a2.13,2.13,0,0,0-2.1,0l-8.48,4.9a.82.82,0,0,0-.42.72v3.76a.84.84,0,0,0,.42.73l8.48,4.9a2.13,2.13,0,0,0,2.1,0l8.48-4.9a.84.84,0,0,0,.42-.73h0V206Z"/><path class="cls-8" d="M296.12,206a.83.83,0,0,1-.42.73l-.32.19-8.16,4.71a2.13,2.13,0,0,1-2.1,0L277,206.94l-.32-.19a.84.84,0,0,1,0-1.45l8.48-4.9a2.13,2.13,0,0,1,2.1,0l8.48,4.9A.82.82,0,0,1,296.12,206Z"/><path class="cls-7" d="M295.57,226.66a.79.79,0,0,0-.41-.72l-8.49-4.9a2.06,2.06,0,0,0-2.09,0l-8.48,4.9a.82.82,0,0,0-.42.72v3.76a.82.82,0,0,0,.42.72l8.48,4.9a2.06,2.06,0,0,0,2.09,0l8.49-4.9a.79.79,0,0,0,.41-.72h0v-3.76Z"/><path class="cls-8" d="M295.57,226.66a.84.84,0,0,1-.41.73l-.32.18-8.17,4.71a2.06,2.06,0,0,1-2.09,0l-8.16-4.71-.32-.18a.85.85,0,0,1-.42-.73.82.82,0,0,1,.42-.72l8.48-4.9a2.06,2.06,0,0,1,2.09,0l8.49,4.9A.79.79,0,0,1,295.57,226.66Z"/><path class="cls-7" d="M331.43,205.94a.83.83,0,0,0-.42-.73l-8.48-4.9a2.11,2.11,0,0,0-2.09,0l-8.49,4.9a.82.82,0,0,0-.42.72v3.77a.82.82,0,0,0,.42.72l8.49,4.9a2.11,2.11,0,0,0,2.09,0l8.48-4.9a.83.83,0,0,0,.42-.73h0v-3.75Z"/><path class="cls-8" d="M331.43,205.94a.82.82,0,0,1-.42.72l-.32.19-8.16,4.71a2.11,2.11,0,0,1-2.09,0l-8.17-4.71-.32-.19a.84.84,0,0,1,0-1.45l8.49-4.9a2.11,2.11,0,0,1,2.09,0l8.48,4.9A.83.83,0,0,1,331.43,205.94Z"/><path class="cls-7" d="M313.67,216.24a.84.84,0,0,0-.42-.73l-8.48-4.89a2.06,2.06,0,0,0-2.09,0l-8.49,4.89a.84.84,0,0,0-.42.73V220a.82.82,0,0,0,.42.72l8.49,4.9a2.11,2.11,0,0,0,2.09,0l8.48-4.9a.82.82,0,0,0,.42-.72h0v-3.76Z"/><path class="cls-8" d="M313.67,216.24a.82.82,0,0,1-.42.72l-.32.19-8.16,4.71a2.06,2.06,0,0,1-2.09,0l-8.17-4.71-.32-.19a.82.82,0,0,1-.42-.72.84.84,0,0,1,.42-.73l8.49-4.89a2.06,2.06,0,0,1,2.09,0l8.48,4.89A.84.84,0,0,1,313.67,216.24Z"/><path class="cls-7" d="M294.54,249.82a.83.83,0,0,0-.42-.73l-8.48-4.9a2.13,2.13,0,0,0-2.1,0l-8.48,4.9a.82.82,0,0,0-.42.72v3.76a.84.84,0,0,0,.42.73l8.48,4.9a2.13,2.13,0,0,0,2.1,0l8.48-4.9a.84.84,0,0,0,.42-.73h0v-3.75Z"/><path class="cls-8" d="M294.54,249.82a.82.82,0,0,1-.42.72l-.32.19-8.16,4.71a2.13,2.13,0,0,1-2.1,0l-8.16-4.71-.32-.19a.84.84,0,0,1,0-1.45l8.48-4.9a2.13,2.13,0,0,1,2.1,0l8.48,4.9A.83.83,0,0,1,294.54,249.82Z"/><path class="cls-7" d="M312.43,260.07a.8.8,0,0,0-.41-.73l-8.49-4.9a2.11,2.11,0,0,0-2.09,0l-8.48,4.9a.82.82,0,0,0-.42.72v3.76a.83.83,0,0,0,.42.73l8.48,4.9a2.11,2.11,0,0,0,2.09,0l8.49-4.9a.8.8,0,0,0,.41-.73h0v-3.75Z"/><path class="cls-8" d="M312.43,260.07a.81.81,0,0,1-.41.72l-.33.19-8.16,4.71a2.11,2.11,0,0,1-2.09,0L293.28,261l-.32-.19a.84.84,0,0,1,0-1.45l8.48-4.9a2.11,2.11,0,0,1,2.09,0l8.49,4.9A.8.8,0,0,1,312.43,260.07Z"/><ellipse class="cls-9" cx="341.69" cy="354.64" rx="9.38" ry="5.74"/><ellipse class="cls-9" cx="557.57" cy="229.93" rx="9.38" ry="5.74"/><ellipse class="cls-9" cx="122.64" cy="229.93" rx="9.38" ry="5.74"/></g><g id="cloud"><path class="cls-7" d="M519.39,106.67v14.41a18,18,0,0,1-9.1,15.76l-146.9,84.81a45.14,45.14,0,0,1-9.8,4.21,43.28,43.28,0,0,1-5.24,1.23,45.46,45.46,0,0,1-30.44-5.44L171,136.84a18,18,0,0,1-9.1-15.76V106.67A18,18,0,0,1,171,90.92L317.91,6.09a45.5,45.5,0,0,1,45.48,0l146.9,84.83A18,18,0,0,1,519.39,106.67Z"/><path class="cls-8" d="M519.39,106.67a18,18,0,0,1-9.1,15.76l-16.2,9.36-130.7,75.46a45.14,45.14,0,0,1-9.8,4.21,43.28,43.28,0,0,1-5.24,1.23,45.46,45.46,0,0,1-30.44-5.44L187.19,131.79,171,122.43a18.19,18.19,0,0,1,0-31.51L317.91,6.09a45.5,45.5,0,0,1,45.48,0l146.9,84.83A18,18,0,0,1,519.39,106.67Z"/><path class="cls-3" d="M418,76.13l-7,1.3c-.58-.41-1.18-.81-1.83-1.19l-1.36-.78a34.17,34.17,0,0,0-11.78-4c-9.32-1.46-18.56-1.18-27.79,2-1.21.41-3.91-.31-5.68-.8-14.06-3.86-29.2-2.16-39.19,4.77-3.07,2.13-5.07,4.78-7.58,7.2-19.27-1.8-35,1.51-45.23,10.93h-7.2V109h0c0,5.67,3.91,11.08,10.75,16.1H270.6v12.26h0c-.3,6.83,5,12.25,15.8,15.89,11.25,3.78,26,3.66,35.24-1.52q45.14-25.3,89-51.36c5-3,7.21-6.53,7.3-10.31l0,0Z"/><path class="cls-2" d="M407.75,62.06l1.36.78a17.9,17.9,0,0,1,6.42,5.91l0,0c4,6.55,3.51,13.14-4.89,18.12q-43.89,26-89,51.35c-9.24,5.19-24,5.31-35.24,1.52-11.86-4-17.11-10.12-15.57-17.92.59-3,2.91-6,4.59-9.24-12.86-8.84-16.56-19-5.88-29.61,10.15-10.09,26.31-13.65,46.18-11.79,2.51-2.43,4.51-5.07,7.58-7.2,10-6.93,25.13-8.64,39.19-4.77,1.77.48,4.47,1.21,5.68.79,9.23-3.15,18.47-3.42,27.79-2A34.39,34.39,0,0,1,407.75,62.06Z"/><ellipse class="cls-7" cx="340.64" cy="194.34" rx="9.38" ry="5.74"/><ellipse class="cls-7" cx="340.64" cy="18.7" rx="9.38" ry="5.74"/><ellipse class="cls-7" cx="491.57" cy="106.67" rx="9.38" ry="5.74"/><ellipse class="cls-7" cx="193.1" cy="106.67" rx="9.38" ry="5.74"/></g><g id="cubes"><path class="cls-10" d="M648.43,112a1.85,1.85,0,0,0-.94-1.63l-19-11a4.7,4.7,0,0,0-4.7,0l-19,11a1.87,1.87,0,0,0-.94,1.62v21.65a1.88,1.88,0,0,0,.94,1.63l19,11a4.75,4.75,0,0,0,4.7,0l19-11a1.86,1.86,0,0,0,.94-1.63h0V112Z"/><path class="cls-11" d="M648.43,112a1.84,1.84,0,0,1-.94,1.62l-.72.42-18.33,10.58a4.7,4.7,0,0,1-4.7,0L605.41,114l-.72-.42a1.87,1.87,0,0,1,0-3.25l19-11a4.7,4.7,0,0,1,4.7,0l19,11A1.85,1.85,0,0,1,648.43,112Z"/><path class="cls-10" d="M57.16,86a2.32,2.32,0,0,0-1.17-2L32.29,70.26a5.87,5.87,0,0,0-5.85,0L2.74,83.94a2.32,2.32,0,0,0-1.17,2v26.94a2.32,2.32,0,0,0,1.17,2l23.7,13.68a5.83,5.83,0,0,0,5.85,0L56,114.93a2.32,2.32,0,0,0,1.17-2h0V86Z"/><path class="cls-11" d="M57.16,86A2.32,2.32,0,0,1,56,88l-.9.52-22.8,13.16a5.83,5.83,0,0,1-5.85,0L3.64,88.52,2.74,88a2.35,2.35,0,0,1,0-4.06l23.7-13.68a5.87,5.87,0,0,1,5.85,0L56,83.94A2.32,2.32,0,0,1,57.16,86Z"/><path class="cls-10" d="M142.55,56.85a1.23,1.23,0,0,0-.61-1.07l-12.49-7.21a3.08,3.08,0,0,0-3.08,0l-12.49,7.21a1.24,1.24,0,0,0-.62,1.07v14.2a1.22,1.22,0,0,0,.62,1.06l12.49,7.21a3.08,3.08,0,0,0,3.08,0l12.49-7.21a1.22,1.22,0,0,0,.61-1.07h0V56.85Z"/><path class="cls-11" d="M142.55,56.85a1.22,1.22,0,0,1-.61,1.07l-.48.27-12,6.94a3.08,3.08,0,0,1-3.08,0l-12-6.94-.47-.27a1.23,1.23,0,0,1,0-2.14l12.49-7.21a3.08,3.08,0,0,1,3.08,0l12.49,7.21A1.23,1.23,0,0,1,142.55,56.85Z"/><path class="cls-10" d="M28.27,180.74a1,1,0,0,0-.51-.88l-10.25-5.92a2.54,2.54,0,0,0-2.53,0L4.73,179.86a1,1,0,0,0-.51.87v11.66a1,1,0,0,0,.51.87L15,199.18a2.54,2.54,0,0,0,2.53,0l10.25-5.92a1,1,0,0,0,.51-.88h0V180.74Z"/><path class="cls-11" d="M28.27,180.74a1,1,0,0,1-.51.87l-.39.23-9.86,5.69a2.54,2.54,0,0,1-2.53,0l-9.86-5.69-.39-.23a1,1,0,0,1,0-1.75L15,173.94a2.54,2.54,0,0,1,2.53,0l10.25,5.92A1,1,0,0,1,28.27,180.74Z"/><path class="cls-10" d="M567.2,65a.56.56,0,0,0-.28-.49l-5.78-3.34a1.44,1.44,0,0,0-1.42,0l-5.78,3.34a.57.57,0,0,0-.29.49v6.57a.57.57,0,0,0,.29.49l5.78,3.33a1.39,1.39,0,0,0,1.42,0L566.92,72a.56.56,0,0,0,.28-.5h0V65Z"/><path class="cls-11" d="M567.2,65a.57.57,0,0,1-.28.5l-.22.12-5.56,3.21a1.39,1.39,0,0,1-1.42,0l-5.56-3.21-.22-.12a.58.58,0,0,1-.29-.5.57.57,0,0,1,.29-.49l5.78-3.34a1.44,1.44,0,0,1,1.42,0l5.78,3.34A.56.56,0,0,1,567.2,65Z"/><path class="cls-10" d="M101.82,138.75a.36.36,0,0,0-.18-.33l-3.84-2.21a1,1,0,0,0-1,0L93,138.42a.39.39,0,0,0-.19.33v4.36a.39.39,0,0,0,.19.33l3.84,2.22a1,1,0,0,0,1,0l3.84-2.22a.36.36,0,0,0,.18-.33h0v-4.36Z"/><path class="cls-11" d="M101.82,138.75a.39.39,0,0,1-.18.33l-.15.08-3.69,2.13a1,1,0,0,1-1,0l-3.69-2.13-.15-.08a.4.4,0,0,1-.19-.33.39.39,0,0,1,.19-.33l3.84-2.21a1,1,0,0,1,1,0l3.84,2.21A.36.36,0,0,1,101.82,138.75Z"/><path class="cls-10" d="M692.16,160.79a.37.37,0,0,0-.19-.33l-3.83-2.22a1,1,0,0,0-.95,0l-3.84,2.22a.37.37,0,0,0-.19.33v4.36a.37.37,0,0,0,.19.33l3.84,2.21a1,1,0,0,0,.95,0l3.83-2.21a.37.37,0,0,0,.19-.33h0v-4.36Z"/><path class="cls-11" d="M692.16,160.79a.38.38,0,0,1-.19.33l-.14.08-3.69,2.13a1,1,0,0,1-.95,0l-3.69-2.13-.15-.08a.38.38,0,0,1-.19-.33.37.37,0,0,1,.19-.33l3.84-2.22a1,1,0,0,1,.95,0l3.83,2.22A.37.37,0,0,1,692.16,160.79Z"/><path class="cls-10" d="M648.43,204a1.28,1.28,0,0,0-.65-1.12l-13.15-7.6a3.25,3.25,0,0,0-3.25,0l-13.15,7.6a1.28,1.28,0,0,0-.65,1.12V219a1.29,1.29,0,0,0,.65,1.12l13.15,7.59a3.25,3.25,0,0,0,3.25,0l13.15-7.59a1.3,1.3,0,0,0,.65-1.13h0V204Z"/><path class="cls-11" d="M648.43,204a1.28,1.28,0,0,1-.65,1.12l-.5.29-12.65,7.31a3.25,3.25,0,0,1-3.25,0l-12.65-7.31-.5-.29a1.29,1.29,0,0,1,0-2.24l13.15-7.6a3.25,3.25,0,0,1,3.25,0l13.15,7.6A1.28,1.28,0,0,1,648.43,204Z"/></g></g></g></svg>