<svg xmlns="http://www.w3.org/2000/svg" xmlns:xlink="http://www.w3.org/1999/xlink" viewBox="0 0 581.8 550"><defs><style>.cls-1{isolation:isolate;}.cls-2{fill:#f2f3f5;fill-opacity:0.1;}.cls-3{fill:#caccd8;}.cls-4{fill:#bec1d0;}.cls-11,.cls-5{fill:#fff;}.cls-6{fill:#1c2bf0;}.cls-7{fill:#1d6fff;}.cls-8{fill:#0954f5;}.cls-9{fill:#009f78;}.cls-10{fill:url(#linear-gradient);}.cls-11{opacity:0.3;}.cls-12{fill:url(#linear-gradient-2);}.cls-13{fill:url(#linear-gradient-3);}.cls-14{fill:#0c1659;}.cls-15,.cls-16,.cls-17,.cls-18,.cls-19,.cls-20{mix-blend-mode:screen;}.cls-15{fill:url(#linear-gradient-4);}.cls-16{fill:url(#linear-gradient-5);}.cls-17{fill:url(#linear-gradient-6);}.cls-18{fill:url(#linear-gradient-7);}.cls-19{fill:url(#linear-gradient-8);}.cls-20{fill:url(#linear-gradient-9);}.cls-21{fill:#09e4a8;}</style><linearGradient id="linear-gradient" x1="209.14" y1="364.48" x2="241.43" y2="364.48" gradientUnits="userSpaceOnUse"><stop offset="0" stop-color="#09e4a8"/><stop offset="0.4" stop-color="#05c794"/><stop offset="1" stop-color="#009f78"/></linearGradient><linearGradient id="linear-gradient-2" x1="190.6" y1="347.99" x2="191.55" y2="337.7" gradientUnits="userSpaceOnUse"><stop offset="0" stop-color="#f2f3f5"/><stop offset="0.44" stop-color="#cfd1dd"/><stop offset="1" stop-color="#a7aac1"/></linearGradient><linearGradient id="linear-gradient-3" x1="192.14" y1="341.01" x2="187.47" y2="346.98" xlink:href="#linear-gradient-2"/><linearGradient id="linear-gradient-4" x1="292.82" y1="172.29" x2="292.82" y2="25.32" gradientUnits="userSpaceOnUse"><stop offset="0" stop-color="#09e4a8" stop-opacity="0.5"/><stop offset="0.11" stop-color="#09e4a8" stop-opacity="0.38"/><stop offset="0.27" stop-color="#09e4a8" stop-opacity="0.24"/><stop offset="0.43" stop-color="#09e4a8" stop-opacity="0.14"/><stop offset="0.6" stop-color="#09e4a8" stop-opacity="0.06"/><stop offset="0.78" stop-color="#09e4a8" stop-opacity="0.01"/><stop offset="1" stop-color="#09e4a8" stop-opacity="0"/></linearGradient><linearGradient id="linear-gradient-5" x1="355.67" y1="129.91" x2="355.67" y2="54.81" gradientUnits="userSpaceOnUse"><stop offset="0" stop-color="#fff" stop-opacity="0"/><stop offset="1" stop-color="#fff"/></linearGradient><linearGradient id="linear-gradient-6" x1="331.79" y1="104.17" x2="331.79" y2="45.07" xlink:href="#linear-gradient-5"/><linearGradient id="linear-gradient-7" x1="307.91" y1="134.24" x2="307.91" y2="60.9" xlink:href="#linear-gradient-5"/><linearGradient id="linear-gradient-8" x1="237.1" y1="124.12" x2="237.1" y2="66.23" xlink:href="#linear-gradient-5"/><linearGradient id="linear-gradient-9" x1="270.76" y1="112.45" x2="270.76" y2="43.48" xlink:href="#linear-gradient-5"/></defs><g class="cls-1"><g id="Layer_2" data-name="Layer 2"><g id="illustration-2"><g id="bed"><path class="cls-2" d="M567.73,359.68a27.89,27.89,0,0,1-14.09,24.4l-25.09,14.5L326.13,515.45A70.44,70.44,0,0,1,311,522a67.76,67.76,0,0,1-8.12,1.9,70.45,70.45,0,0,1-47.15-8.42L53.25,398.58l-25.09-14.5a28.17,28.17,0,0,1,0-48.8L255.69,203.91a70.45,70.45,0,0,1,70.44,0L553.64,335.28A27.88,27.88,0,0,1,567.73,359.68Z"/><path class="cls-3" d="M290.93,526a72,72,0,0,1-12.15-1,73.12,73.12,0,0,1-8.24-1.92,70.94,70.94,0,0,1-15.39-6.62L27.62,385a29.26,29.26,0,0,1,0-50.68L255.15,203a71.74,71.74,0,0,1,71.52,0L554.19,334.34a29.26,29.26,0,0,1,0,50.68L326.67,516.39A71.09,71.09,0,0,1,311.26,523a68.87,68.87,0,0,1-8.24,1.93A71.25,71.25,0,0,1,290.93,526Zm0-330.38a69.41,69.41,0,0,0-34.68,9.26L28.7,336.22a27.09,27.09,0,0,0,0,46.92L256.23,514.51a69.58,69.58,0,0,0,14.93,6.42,71.2,71.2,0,0,0,8,1.86,69.38,69.38,0,0,0,46.44-8.28L553.1,383.14a27.08,27.08,0,0,0,0-46.92L325.58,204.85A69.35,69.35,0,0,0,290.91,195.59Z"/><ellipse class="cls-2" cx="150.11" cy="519.67" rx="10.04" ry="5.79"/><path class="cls-3" d="M150.11,526.56a15.62,15.62,0,0,1-7.64-1.85c-2.25-1.3-3.49-3.09-3.49-5s1.24-3.74,3.49-5a16.68,16.68,0,0,1,15.28,0c2.24,1.3,3.48,3.09,3.48,5s-1.24,3.74-3.48,5h0A15.68,15.68,0,0,1,150.11,526.56Zm0-11.61a13.45,13.45,0,0,0-6.56,1.56c-1.54.89-2.39,2-2.39,3.16s.85,2.26,2.39,3.15a14.49,14.49,0,0,0,13.11,0h0c1.54-.89,2.39-2,2.39-3.15s-.85-2.26-2.39-3.16A13.44,13.44,0,0,0,150.11,515Z"/><ellipse class="cls-2" cx="107.34" cy="543.11" rx="10.04" ry="5.79"/><path class="cls-3" d="M107.34,550a15.52,15.52,0,0,1-7.64-1.86c-2.25-1.29-3.49-3.08-3.49-5s1.24-3.75,3.49-5a16.65,16.65,0,0,1,15.28,0c2.24,1.29,3.48,3.08,3.48,5s-1.24,3.74-3.48,5A15.52,15.52,0,0,1,107.34,550Zm0-11.62a13.45,13.45,0,0,0-6.56,1.57c-1.54.89-2.39,2-2.39,3.16s.85,2.26,2.39,3.15a14.49,14.49,0,0,0,13.11,0h0c1.54-.89,2.4-2,2.4-3.15s-.86-2.27-2.4-3.16A13.44,13.44,0,0,0,107.34,538.38Z"/><ellipse class="cls-2" cx="67.51" cy="525.94" rx="10.04" ry="5.79"/><path class="cls-3" d="M67.51,532.84A15.52,15.52,0,0,1,59.87,531c-2.25-1.3-3.48-3.09-3.48-5s1.23-3.74,3.48-5a16.62,16.62,0,0,1,15.28,0c2.24,1.29,3.48,3.08,3.48,5s-1.24,3.74-3.48,5h0A15.52,15.52,0,0,1,67.51,532.84Zm0-11.59A13.38,13.38,0,0,0,61,522.79c-1.55.89-2.4,2-2.4,3.15s.85,2.27,2.4,3.16a14.72,14.72,0,0,0,13.1,0h0c1.55-.89,2.4-2,2.4-3.16s-.85-2.26-2.4-3.15A13.38,13.38,0,0,0,67.51,521.25Z"/><path class="cls-3" d="M66.42,520.15v-13c0-2.27,1.51-4.44,4.15-6l80.72-46.6,1.08,1.88L71.65,503.1c-1.94,1.12-3.06,2.61-3.06,4.08v13Z"/><path class="cls-3" d="M151.19,513.88H149v-13c0-2.27,1.51-4.45,4.14-6l34-19.63,1.09,1.89-34,19.62c-1.94,1.12-3.06,2.61-3.06,4.08Z"/><path class="cls-3" d="M108.42,537.31h-2.17V505.08c0-2.27,1.51-4.44,4.14-6l59-34.06,1.09,1.88-59,34.06c-1.94,1.12-3.06,2.61-3.06,4.08Z"/><ellipse class="cls-2" cx="51.72" cy="450.31" rx="10.04" ry="5.79"/><path class="cls-3" d="M51.72,457.21a15.52,15.52,0,0,1-7.64-1.86c-2.25-1.29-3.48-3.08-3.48-5s1.23-3.74,3.48-5h0a16.68,16.68,0,0,1,15.28,0c2.24,1.29,3.48,3.08,3.48,5s-1.24,3.75-3.48,5A15.52,15.52,0,0,1,51.72,457.21Zm-6.55-10c-1.55.89-2.4,2-2.4,3.15s.85,2.27,2.4,3.16a14.47,14.47,0,0,0,13.1,0c1.55-.89,2.4-2,2.4-3.16s-.85-2.26-2.4-3.15a14.5,14.5,0,0,0-13.1,0Z"/><ellipse class="cls-2" cx="11.12" cy="475.01" rx="10.04" ry="5.79"/><path class="cls-3" d="M11.12,481.9a15.65,15.65,0,0,1-7.64-1.85C1.24,478.75,0,477,0,475s1.24-3.74,3.48-5h0a16.68,16.68,0,0,1,15.28,0c2.25,1.3,3.49,3.09,3.49,5s-1.24,3.74-3.49,5A15.62,15.62,0,0,1,11.12,481.9Zm-6.55-10c-1.55.89-2.4,2-2.4,3.16s.85,2.26,2.4,3.15a14.49,14.49,0,0,0,13.11,0c1.54-.89,2.39-2,2.39-3.15s-.85-2.27-2.39-3.16a14.55,14.55,0,0,0-13.11,0Z"/><path class="cls-3" d="M84.22,451.4H61.75v-2.17H84.22a16.81,16.81,0,0,0,8.15-1.94L115.49,434l1.08,1.88L93.45,449.18A18.78,18.78,0,0,1,84.22,451.4Z"/><path class="cls-3" d="M77,476.09H21.16v-2.17H77A16.76,16.76,0,0,0,85.14,472l48.12-27.78,1.08,1.88L86.23,473.87A18.79,18.79,0,0,1,77,476.09Z"/><ellipse class="cls-2" cx="431.7" cy="519.67" rx="10.04" ry="5.79"/><path class="cls-3" d="M431.7,526.56a15.62,15.62,0,0,1-7.64-1.85h0c-2.25-1.3-3.49-3.09-3.49-5s1.24-3.74,3.49-5a16.68,16.68,0,0,1,15.28,0c2.24,1.3,3.48,3.09,3.48,5s-1.24,3.74-3.48,5A15.62,15.62,0,0,1,431.7,526.56Zm-6.56-3.74a14.49,14.49,0,0,0,13.11,0c1.55-.89,2.4-2,2.4-3.15s-.85-2.27-2.4-3.16a14.55,14.55,0,0,0-13.11,0c-1.54.89-2.39,2-2.39,3.16s.85,2.26,2.39,3.15Z"/><ellipse class="cls-2" cx="474.47" cy="543.11" rx="10.04" ry="5.79"/><path class="cls-3" d="M474.47,550a15.52,15.52,0,0,1-7.64-1.86h0c-2.25-1.29-3.49-3.08-3.49-5s1.24-3.75,3.49-5a16.62,16.62,0,0,1,15.28,0c2.24,1.29,3.48,3.08,3.48,5s-1.24,3.74-3.48,5A15.54,15.54,0,0,1,474.47,550Zm-6.56-3.74a14.49,14.49,0,0,0,13.11,0c1.55-.89,2.4-2,2.4-3.15s-.85-2.27-2.4-3.16a14.49,14.49,0,0,0-13.11,0c-1.54.89-2.39,2-2.39,3.16s.85,2.26,2.39,3.15Z"/><ellipse class="cls-2" cx="514.29" cy="525.94" rx="10.04" ry="5.79"/><path class="cls-3" d="M514.29,532.84a15.51,15.51,0,0,1-7.63-1.86c-2.25-1.3-3.49-3.09-3.49-5s1.24-3.74,3.49-5a16.6,16.6,0,0,1,15.27,0c2.25,1.29,3.49,3.08,3.49,5s-1.24,3.74-3.49,5A15.52,15.52,0,0,1,514.29,532.84Zm0-11.62a13.33,13.33,0,0,0-6.55,1.57c-1.54.89-2.39,2-2.39,3.15s.85,2.27,2.39,3.16h0a14.55,14.55,0,0,0,13.11,0c1.54-.89,2.39-2,2.39-3.16s-.85-2.26-2.39-3.15A13.35,13.35,0,0,0,514.29,521.22Z"/><path class="cls-3" d="M515.38,520.15h-2.17v-13c0-1.47-1.12-3-3.06-4.08l-80.72-46.6,1.09-1.88,80.72,46.6c2.63,1.52,4.14,3.69,4.14,6Z"/><path class="cls-3" d="M432.78,513.88h-2.17v-13c0-1.47-1.11-3-3.06-4.08l-34-19.62,1.08-1.89,34,19.63c2.63,1.51,4.14,3.69,4.14,6Z"/><path class="cls-3" d="M475.55,537.31h-2.17V505.08c0-1.47-1.12-3-3.06-4.08l-59-34.06,1.09-1.88,59,34.06c2.63,1.52,4.14,3.69,4.14,6Z"/><ellipse class="cls-2" cx="530.09" cy="450.31" rx="10.04" ry="5.79"/><path class="cls-3" d="M530.09,457.21a15.52,15.52,0,0,1-7.64-1.86c-2.25-1.29-3.49-3.08-3.49-5s1.24-3.74,3.49-5a16.6,16.6,0,0,1,15.27,0h0c2.25,1.29,3.49,3.08,3.49,5s-1.24,3.75-3.49,5A15.51,15.51,0,0,1,530.09,457.21Zm0-11.59a13.45,13.45,0,0,0-6.56,1.54c-1.54.89-2.39,2-2.39,3.15s.85,2.27,2.39,3.16a14.74,14.74,0,0,0,13.11,0c1.54-.89,2.39-2,2.39-3.16s-.85-2.26-2.39-3.15A13.43,13.43,0,0,0,530.09,445.62Z"/><ellipse class="cls-2" cx="570.68" cy="475.01" rx="10.04" ry="5.79"/><path class="cls-3" d="M570.68,481.9a15.62,15.62,0,0,1-7.64-1.85c-2.24-1.3-3.48-3.09-3.48-5s1.24-3.74,3.48-5a16.68,16.68,0,0,1,15.28,0c2.25,1.3,3.48,3.09,3.48,5s-1.23,3.74-3.48,5A15.62,15.62,0,0,1,570.68,481.9Zm0-11.61a13.41,13.41,0,0,0-6.55,1.56c-1.55.89-2.4,2-2.4,3.16s.85,2.26,2.4,3.15a14.47,14.47,0,0,0,13.1,0c1.55-.89,2.4-2,2.4-3.15s-.85-2.27-2.4-3.16h0A13.41,13.41,0,0,0,570.68,470.29Z"/><path class="cls-3" d="M520.05,451.4H497.59a18.85,18.85,0,0,1-9.24-2.22l-23.12-13.35,1.09-1.88,23.12,13.34a16.81,16.81,0,0,0,8.15,1.94h22.46Z"/><path class="cls-3" d="M560.65,476.09H504.81a18.85,18.85,0,0,1-9.24-2.22l-48.11-27.78,1.08-1.88L496.66,472a16.81,16.81,0,0,0,8.15,1.93h55.84Z"/></g><g id="server"><path class="cls-4" d="M515,345.66h0a20.33,20.33,0,0,0-9.79-21.83L313.24,213a40.84,40.84,0,0,0-40.85,0L80.45,323.82a20.31,20.31,0,0,0-9.79,21.83q1.62,8.09,0,0c-.24,1.19-.11,12.61-.11,14.74,0,.22.08.44.12.66a20.16,20.16,0,0,0,9.79,13.54l192,110.81a40.84,40.84,0,0,0,40.85,0L505.19,374.59A20.12,20.12,0,0,0,515,361.05q.07-.33.12-.66C515.1,358.26,515.24,347,515,345.66Z"/><path class="cls-5" d="M515,345.65a20.1,20.1,0,0,1-9.79,13.54L313.24,470a40.82,40.82,0,0,1-40.84,0L80.45,359.19a20.42,20.42,0,0,1,0-35.37L272.4,213a40.82,40.82,0,0,1,40.84,0l192,110.82A20.31,20.31,0,0,1,515,345.65Z"/><ellipse class="cls-4" cx="292.82" cy="452.01" rx="7.79" ry="3.82"/><ellipse class="cls-4" cx="482.44" cy="340.75" rx="7.79" ry="3.82"/><ellipse class="cls-4" cx="105.13" cy="340.75" rx="7.79" ry="3.82"/><path class="cls-6" d="M450,274.16a14.23,14.23,0,0,1-6.93,9.58l-135.79,78.4a28.91,28.91,0,0,1-28.9,0l-135.79-78.4a14.44,14.44,0,0,1,0-25l135.79-78.4a28.86,28.86,0,0,1,28.9,0l135.79,78.4A14.37,14.37,0,0,1,450,274.16Z"/><path class="cls-7" d="M450.28,277.09a14.29,14.29,0,0,1-7.22,12.51L307.27,368a28.91,28.91,0,0,1-28.9,0L142.58,289.6a14.25,14.25,0,0,1-7.22-12.19v-.67a14.77,14.77,0,0,1,.29-2.58,14.26,14.26,0,0,0,6.93,9.58l135.79,78.4a28.91,28.91,0,0,0,28.9,0l135.79-78.4a14.26,14.26,0,0,0,6.93-9.58A15.16,15.16,0,0,1,450.28,277.09Z"/><path class="cls-8" d="M450.29,277.09s-.07,11.11-.2,56c0,1.73,0,3.37,0,4.87a3.89,3.89,0,0,1-.09.47,14.21,14.21,0,0,1-6.92,9.58l-135.8,78.4a28.89,28.89,0,0,1-28.89,0L142.58,348a14.21,14.21,0,0,1-6.92-9.58,3.89,3.89,0,0,1-.09-.47c0-1.5,0-3.14,0-4.87-.12-44.85-.2-55.64-.2-55.64a14.28,14.28,0,0,0,7.22,12.2l122.6,70.78,13.2,7.62a28.89,28.89,0,0,0,28.89,0l13.2-7.62,122.6-70.78A14.31,14.31,0,0,0,450.29,277.09Z"/><path class="cls-7" d="M258.24,369.58v31.6a1.68,1.68,0,0,1-2.51,1.45l-85.21-49.21a3.32,3.32,0,0,1-1.67-2.88v-31.6a1.67,1.67,0,0,1,2.51-1.44l3.52,2,.43.24,81.26,46.92A3.34,3.34,0,0,1,258.24,369.58Z"/><path class="cls-6" d="M258.24,369.58v27.53L177,350.19a3.3,3.3,0,0,1-1.67-2.88V319.77l81.26,46.92A3.34,3.34,0,0,1,258.24,369.58Z"/><path class="cls-9" d="M243.07,368.87a7,7,0,0,0-3.15-3.24c-.43-.24-23.29-13.43-23.66-13.63-1.17-.65-2.24-1.12-3.22-.64H213l0,0h-.07l0,0h-.08l0,0h-.07l0,0h-.23l0,0h-.07l0,0h-.07l0,0h-.08l0,0h-.32l0,0h-.07l0,0h-.07l0,0h-.08l0,0h-.32l0,0h-.07l0,0H211l0,0h-.26l-.28.16a2.22,2.22,0,0,0-.44.38c-1.05,1.17-1.17,3.47-.18,5.64a7,7,0,0,0,3.16,3.24l23.67,13.64c1.16.64,2.23,1.11,3.2.63h.05l0,0H240l0,0h.23l0,0h.07l0,0h.08l0,0h.07l0,0h.32l0,0H241l0,0h.07l0,0h.32l0,0h.07l0,0h.08l0,0h.07l0,0H242l0,0h.07l0,0h0l.29-.16a1.76,1.76,0,0,0,.37-.35l0,0C243.94,373.36,244.08,371.05,243.07,368.87Z"/><path class="cls-10" d="M240.75,370.14a7,7,0,0,0-3.15-3.24c-.43-.23-23.29-13.42-23.66-13.63-1.17-.64-2.24-1.11-3.22-.63l-.28.16a2.22,2.22,0,0,0-.44.38c-1.05,1.17-1.17,3.47-.18,5.64a7,7,0,0,0,3.16,3.24l23.67,13.64c1.16.64,2.23,1.11,3.2.63l.29-.16a1.72,1.72,0,0,0,.37-.34l0,0C241.62,374.64,241.76,372.32,240.75,370.14Z"/><path class="cls-11" d="M414,350.71h0a.84.84,0,0,0,.2.18l.15.09c.9.44,2.13-.32,2.76-1.7a2.91,2.91,0,0,0-.1-3,1.43,1.43,0,0,0-.23-.2l-.15-.09c-.9-.44-2.13.32-2.76,1.7A2.85,2.85,0,0,0,414,350.71Z"/><path class="cls-11" d="M414,325.26h0a1.12,1.12,0,0,0,.2.18l.15.09c.9.44,2.13-.32,2.76-1.7a2.91,2.91,0,0,0-.1-3,1.07,1.07,0,0,0-.23-.2l-.15-.09c-.9-.44-2.13.32-2.76,1.7A2.85,2.85,0,0,0,414,325.26Z"/><path class="cls-3" d="M417.49,350.2a2.75,2.75,0,0,1-1.62-.53l1.24-1.79a.61.61,0,0,0,.67.08.72.72,0,0,0,.39-.63V326.81a.64.64,0,0,0-.21-.49l-2.24-2.12,1.5-1.58,2.24,2.12a2.86,2.86,0,0,1,.89,2.07v20.52a2.87,2.87,0,0,1-2.86,2.87Z"/><path class="cls-11" d="M401.29,358.25h0a.73.73,0,0,0,.2.19l.15.08c.89.44,2.12-.32,2.75-1.7a2.91,2.91,0,0,0-.09-3,1.5,1.5,0,0,0-.24-.2l-.15-.09c-.89-.44-2.13.32-2.75,1.7A2.88,2.88,0,0,0,401.29,358.25Z"/><path class="cls-11" d="M401.29,332.8h0a.58.58,0,0,0,.2.18l.15.09c.89.44,2.12-.32,2.75-1.7a2.91,2.91,0,0,0-.09-3,1.5,1.5,0,0,0-.24-.2l-.15-.09c-.89-.44-2.13.32-2.75,1.7A2.88,2.88,0,0,0,401.29,332.8Z"/><path class="cls-3" d="M404.74,357.74a2.7,2.7,0,0,1-1.61-.53l1.23-1.79a.61.61,0,0,0,.67.08.72.72,0,0,0,.4-.63V334.35a.67.67,0,0,0-.21-.49L403,331.74l1.49-1.58,2.24,2.12a2.84,2.84,0,0,1,.89,2.07v20.52a2.87,2.87,0,0,1-2.86,2.87Z"/><path class="cls-11" d="M388.55,365.79v0a1.71,1.71,0,0,0,.2.18l.15.08c.9.44,2.13-.32,2.76-1.7a2.89,2.89,0,0,0-.1-3,1.51,1.51,0,0,0-.23-.21l-.15-.08c-.9-.44-2.13.31-2.76,1.69A2.85,2.85,0,0,0,388.55,365.79Z"/><path class="cls-11" d="M388.55,340.34h0a1.19,1.19,0,0,0,.2.19l.15.08c.9.44,2.13-.32,2.76-1.7a2.89,2.89,0,0,0-.1-3,1.12,1.12,0,0,0-.23-.21l-.15-.09c-.9-.44-2.13.32-2.76,1.7A2.85,2.85,0,0,0,388.55,340.34Z"/><path class="cls-3" d="M392,365.29a2.75,2.75,0,0,1-1.62-.53l1.24-1.8a.61.61,0,0,0,.67.08.71.71,0,0,0,.39-.63V341.89a.64.64,0,0,0-.21-.49l-2.24-2.12,1.5-1.58,2.24,2.12a2.87,2.87,0,0,1,.89,2.07v20.52a2.89,2.89,0,0,1-2.86,2.88Z"/><path class="cls-11" d="M375.8,373.33l0,0a.7.7,0,0,0,.2.18l.15.08c.9.44,2.12-.32,2.75-1.69a2.91,2.91,0,0,0-.09-3,1.57,1.57,0,0,0-.24-.21l-.15-.08c-.89-.44-2.13.31-2.75,1.69A2.88,2.88,0,0,0,375.8,373.33Z"/><path class="cls-11" d="M375.8,347.88l0,0a.7.7,0,0,0,.2.18l.15.08c.9.44,2.12-.32,2.75-1.69a2.91,2.91,0,0,0-.09-3,1.57,1.57,0,0,0-.24-.21l-.15-.08c-.89-.44-2.13.31-2.75,1.69A2.88,2.88,0,0,0,375.8,347.88Z"/><path class="cls-3" d="M379.25,372.83a2.7,2.7,0,0,1-1.61-.53l1.23-1.79a.63.63,0,0,0,.67.07.72.72,0,0,0,.4-.63V349.43a.69.69,0,0,0-.21-.49l-2.24-2.12,1.49-1.58,2.24,2.12a2.84,2.84,0,0,1,.89,2.07V370a2.88,2.88,0,0,1-1.59,2.57A2.74,2.74,0,0,1,379.25,372.83Z"/><path class="cls-12" d="M195.83,341.14c-1.34-3-4-4.61-5.93-3.66l-2.66,1.3a2.79,2.79,0,0,0-.33.19,2.51,2.51,0,0,0-.5.44c-1.2,1.34-1.34,4-.2,6.46,1.35,3,4,4.61,5.93,3.66l2.66-1.3a2.69,2.69,0,0,0,.32-.19,1.47,1.47,0,0,0,.43-.39,0,0,0,0,0,0,0C196.83,346.29,197,343.64,195.83,341.14Z"/><path class="cls-13" d="M192.92,348.93l0,0a1.77,1.77,0,0,1-.43.39l-.33.19c-1.93,1-4.58-.7-5.93-3.66-1.14-2.49-1-5.12.2-6.46a2.51,2.51,0,0,1,.5-.44,2.79,2.79,0,0,1,.33-.19c1.93-.95,4.59.68,5.93,3.66C194.32,344.93,194.17,347.59,192.92,348.93Z"/><path class="cls-6" d="M450,121.42a14.23,14.23,0,0,1-6.93,9.58L307.27,209.4a28.91,28.91,0,0,1-28.9,0L142.58,131a14.44,14.44,0,0,1,0-25L278.37,27.57a28.91,28.91,0,0,1,28.9,0L443.06,106A14.37,14.37,0,0,1,450,121.42Z"/><path class="cls-7" d="M292.82,188.47a21.88,21.88,0,0,1-10.92-2.92l-99.23-57.29a11.07,11.07,0,0,1-5.41-7.49,11.27,11.27,0,0,1,5.41-12l99.23-57.3a21.9,21.9,0,0,1,21.84,0L403,108.72a11.28,11.28,0,0,1,5.41,12,11.13,11.13,0,0,1-5.41,7.49l-99.24,57.29A21.88,21.88,0,0,1,292.82,188.47Zm0-138.52a20.33,20.33,0,0,0-10.19,2.73L183.39,110a9.83,9.83,0,0,0-4.71,10.51,9.63,9.63,0,0,0,4.71,6.52l99.24,57.29a20.4,20.4,0,0,0,20.39,0L402.25,127a9.6,9.6,0,0,0,4.71-6.51h0A9.84,9.84,0,0,0,402.25,110L303,52.68A20.37,20.37,0,0,0,292.82,50Z"/><path class="cls-7" d="M450.28,124.35a14.29,14.29,0,0,1-7.22,12.51l-135.79,78.4a28.86,28.86,0,0,1-28.9,0l-135.79-78.4a14.25,14.25,0,0,1-7.22-12.19V124a14.77,14.77,0,0,1,.29-2.57,14.26,14.26,0,0,0,6.93,9.58l135.79,78.4a28.91,28.91,0,0,0,28.9,0L443.06,131a14.26,14.26,0,0,0,6.93-9.58A15.16,15.16,0,0,1,450.28,124.35Z"/><path class="cls-8" d="M450.29,124.35s-.21,116-.21,117.52a3.73,3.73,0,0,1-.09.46,14.21,14.21,0,0,1-6.92,9.58l-135.8,78.4a28.85,28.85,0,0,1-28.89,0l-135.8-78.4a14.21,14.21,0,0,1-6.92-9.58,3.73,3.73,0,0,1-.09-.46c0-1.51-.21-117.21-.21-117.21a14.28,14.28,0,0,0,7.22,12.2l122.6,70.78,13.2,7.62a28.89,28.89,0,0,0,28.89,0l13.2-7.62,122.6-70.78A14.31,14.31,0,0,0,450.29,124.35Z"/><path class="cls-7" d="M271.52,249.35v8.53a2.17,2.17,0,0,1-3.25,1.87L157.74,195.93a4.33,4.33,0,0,1-2.17-3.75v-8.51a2.17,2.17,0,0,1,3.25-1.88l4.58,2.64,106,61.18A4.29,4.29,0,0,1,271.52,249.35Z"/><path class="cls-14" d="M271.52,249.35v5.25l-106-61.18a4.32,4.32,0,0,1-2.16-3.75v-5.24l106,61.18A4.29,4.29,0,0,1,271.52,249.35Z"/><path class="cls-7" d="M271.52,281.57v8.53a2.16,2.16,0,0,1-3.25,1.87L157.74,228.15a4.32,4.32,0,0,1-2.17-3.74v-8.52a2.16,2.16,0,0,1,3.25-1.87l4.58,2.64,106,61.17A4.31,4.31,0,0,1,271.52,281.57Z"/><path class="cls-14" d="M271.52,281.57v5.25l-106-61.18a4.31,4.31,0,0,1-2.16-3.74v-5.24l106,61.17A4.31,4.31,0,0,1,271.52,281.57Z"/><path class="cls-7" d="M382.59,120.16a8.2,8.2,0,0,1-4,5.47l-6.08,3.51-71.48,41.27a16.54,16.54,0,0,1-16.5,0l-71.49-41.27L207,125.63a8.25,8.25,0,0,1,0-14.29l77.56-44.78a16.54,16.54,0,0,1,16.5,0l77.56,44.78A8.24,8.24,0,0,1,382.59,120.16Z"/><path class="cls-6" d="M372.55,129.14l-71.48,41.27a16.54,16.54,0,0,1-16.5,0l-71.49-41.27,71.49-41.27a16.49,16.49,0,0,1,16.5,0Z"/><path class="cls-15" d="M382.59,55.8a8.24,8.24,0,0,0-4-8.81L301.07,2.2a16.6,16.6,0,0,0-16.51,0L207,47a8.2,8.2,0,0,0-3.94,8.81v61.1a8.32,8.32,0,0,0,0,3.26,8.11,8.11,0,0,0,3.94,5.47l6.08,3.51,71.48,41.27a16.55,16.55,0,0,0,16.51,0l71.48-41.27,6.08-3.51a8.2,8.2,0,0,0,4-5.47,8.61,8.61,0,0,0,0-3.2Z"/><path class="cls-16" d="M355.67,129.91a.87.87,0,0,1-.87-.87V55.68a.87.87,0,1,1,1.73,0V129A.87.87,0,0,1,355.67,129.91Z"/><path class="cls-17" d="M331.79,104.17a.87.87,0,0,1-.87-.87V45.94a.87.87,0,1,1,1.73,0V103.3A.87.87,0,0,1,331.79,104.17Z"/><path class="cls-18" d="M307.91,134.24a.86.86,0,0,1-.87-.86V61.77a.87.87,0,1,1,1.73,0v71.61A.86.86,0,0,1,307.91,134.24Z"/><path class="cls-19" d="M237.1,124.12a.87.87,0,0,1-.87-.87V67.1a.87.87,0,0,1,1.74,0v56.15A.87.87,0,0,1,237.1,124.12Z"/><path class="cls-20" d="M270.76,112.45a.87.87,0,0,1-.87-.87V44.35a.87.87,0,0,1,1.74,0v67.23A.87.87,0,0,1,270.76,112.45Z"/><circle class="cls-5" cx="293.9" cy="142.58" r="1.08"/><circle class="cls-5" cx="290.22" cy="49.22" r="1.08"/><circle class="cls-5" cx="254.85" cy="65.44" r="1.08"/><circle class="cls-5" cx="344.81" cy="64.36" r="1.08"/><circle class="cls-5" cx="219.3" cy="81.91" r="1.08"/><circle class="cls-5" cx="285.93" cy="92.36" r="1.08"/><circle class="cls-5" cx="332.87" cy="123.27" r="1.08"/><circle class="cls-5" cx="247.34" cy="114.99" r="1.08"/><path class="cls-5" d="M279.3,481.46l-.36-.12v0A2.67,2.67,0,0,0,279.3,481.46Z"/><path class="cls-5" d="M334.26,248.59l9.95-5.74q3.65-2.11,5.68-.85c1.36.84,2,2.72,2,5.65a16.07,16.07,0,0,1-2,8,15,15,0,0,1-5.68,5.74l-5.79,3.34v11.8L334.26,279Zm9.43,8.86A8.1,8.1,0,0,0,348,250c0-1.69-.35-2.75-1.06-3.15s-1.79-.2-3.23.63l-5.27,3v10Z"/><path class="cls-5" d="M369.75,239q1.62,1.22,1.62,5.7v12.79l-3.84,2.22v-3.23a11.32,11.32,0,0,1-1.73,3.62,8.93,8.93,0,0,1-2.73,2.53,4.91,4.91,0,0,1-2.88.79,2.61,2.61,0,0,1-2-1.19,5,5,0,0,1-.74-2.93,9.52,9.52,0,0,1,.88-4.17,11.69,11.69,0,0,1,2.9-3.61,34.53,34.53,0,0,1,5.52-3.79l.81-.47v-1c0-1.44-.24-2.34-.7-2.7s-1.23-.24-2.31.39a12.57,12.57,0,0,0-2.63,2.1,27.41,27.41,0,0,0-2.7,3.17l-1.13-3.05a26.19,26.19,0,0,1,3.2-3.7,18.35,18.35,0,0,1,3.55-2.78C367,238.46,368.68,238.22,369.75,239Zm-3.24,16.32a9.46,9.46,0,0,0,1-4.31v-.91l-.59.34a29,29,0,0,0-3.36,2.2,6.65,6.65,0,0,0-1.71,1.89,4.29,4.29,0,0,0-.51,2.07,2,2,0,0,0,.71,1.84,1.63,1.63,0,0,0,1.81-.16A6.8,6.8,0,0,0,366.51,255.36Z"/><path class="cls-5" d="M390.43,227.1c1.07.82,1.61,2.71,1.61,5.7v12.79l-3.84,2.22v-3.23a11.26,11.26,0,0,1-1.73,3.63,8.9,8.9,0,0,1-2.73,2.52,4.9,4.9,0,0,1-2.87.8,2.66,2.66,0,0,1-2-1.2,5,5,0,0,1-.74-2.93,9.42,9.42,0,0,1,.89-4.17,11.62,11.62,0,0,1,2.89-3.61,35.2,35.2,0,0,1,5.52-3.79l.81-.46v-1c0-1.43-.23-2.33-.7-2.69s-1.23-.24-2.3.38a13.29,13.29,0,0,0-2.64,2.1,28.58,28.58,0,0,0-2.7,3.18l-1.13-3.06a27.35,27.35,0,0,1,3.2-3.7,19.5,19.5,0,0,1,3.55-2.78Q388.81,225.88,390.43,227.1Zm-3.25,16.33a9.53,9.53,0,0,0,1-4.32v-.9l-.58.33a28.52,28.52,0,0,0-3.36,2.2,6.36,6.36,0,0,0-1.71,1.89,4.19,4.19,0,0,0-.52,2.07,2,2,0,0,0,.71,1.85,1.67,1.67,0,0,0,1.81-.16A6.86,6.86,0,0,0,387.18,243.43Z"/><path class="cls-5" d="M402.54,239a6.15,6.15,0,0,1-3.87-.43l1.39-4.85a6.21,6.21,0,0,0,3.47.45,11.64,11.64,0,0,0,4-1.51,11,11,0,0,0,3.64-3.2,6.58,6.58,0,0,0,1.28-3.81c0-1.15-.4-1.8-1.18-2a9.89,9.89,0,0,0-3.93.54,15.5,15.5,0,0,1-4.62.77,3.31,3.31,0,0,1-2.68-1.2,6.14,6.14,0,0,1-.9-3.74,14.56,14.56,0,0,1,1.09-5.42,18.29,18.29,0,0,1,3.11-5.09,17.76,17.76,0,0,1,4.62-3.85,12.4,12.4,0,0,1,4.55-1.66,5.24,5.24,0,0,1,3.55.6l-1.39,4.85q-3-1.49-6.71.65a10.13,10.13,0,0,0-3.48,3.19,7.16,7.16,0,0,0-1.27,4c0,1.18.37,1.86,1.13,2.06a8.41,8.41,0,0,0,3.84-.45,17.84,17.84,0,0,1,4.67-.78,3.47,3.47,0,0,1,2.74,1.11,5.36,5.36,0,0,1,1,3.58,14.23,14.23,0,0,1-1.08,5.38,16.89,16.89,0,0,1-3.14,5,19.76,19.76,0,0,1-4.83,3.88A14.61,14.61,0,0,1,402.54,239Z"/></g><g id="cubes"><path class="cls-9" d="M447.24,291.43a1.3,1.3,0,0,0-.65-1.13l-13.26-7.66a3.29,3.29,0,0,0-3.27,0l-13.25,7.66a1.29,1.29,0,0,0-.66,1.13v15.06a1.31,1.31,0,0,0,.66,1.14l13.25,7.65a3.29,3.29,0,0,0,3.27,0l13.26-7.65a1.33,1.33,0,0,0,.65-1.14h0V291.43Z"/><path class="cls-21" d="M447.24,291.43a1.3,1.3,0,0,1-.65,1.13l-.51.29-12.75,7.37a3.29,3.29,0,0,1-3.27,0l-12.75-7.37-.5-.29a1.3,1.3,0,0,1,0-2.26l13.25-7.66a3.29,3.29,0,0,1,3.27,0l13.26,7.66A1.3,1.3,0,0,1,447.24,291.43Z"/><path class="cls-9" d="M505.36,240.72a1,1,0,0,0-.52-.91l-10.62-6.13a2.61,2.61,0,0,0-2.62,0L481,239.81a1,1,0,0,0-.52.91v12.07a1,1,0,0,0,.52.9l10.62,6.14a2.66,2.66,0,0,0,2.62,0l10.62-6.14a1,1,0,0,0,.52-.91h0V240.72Z"/><path class="cls-21" d="M505.36,240.72a1,1,0,0,1-.52.91l-.4.23-10.22,5.9a2.61,2.61,0,0,1-2.62,0l-10.21-5.9-.41-.23a1,1,0,0,1-.52-.91,1,1,0,0,1,.52-.91l10.62-6.13a2.61,2.61,0,0,1,2.62,0l10.62,6.13A1,1,0,0,1,505.36,240.72Z"/><path class="cls-9" d="M477.44,205a.44.44,0,0,0-.22-.39L472.69,202a1.1,1.1,0,0,0-1.11,0l-4.53,2.61a.43.43,0,0,0-.22.38v5.15a.42.42,0,0,0,.22.38l4.53,2.62a1.1,1.1,0,0,0,1.11,0l4.53-2.62a.42.42,0,0,0,.22-.38h0V205Z"/><path class="cls-21" d="M477.44,205a.42.42,0,0,1-.22.38l-.17.1L472.69,208a1.1,1.1,0,0,1-1.11,0l-4.36-2.52-.17-.1a.43.43,0,0,1-.22-.39.43.43,0,0,1,.22-.38l4.53-2.61a1.1,1.1,0,0,1,1.11,0l4.53,2.61A.44.44,0,0,1,477.44,205Z"/><path class="cls-9" d="M131,216a.54.54,0,0,0-.28-.48l-5.59-3.23a1.36,1.36,0,0,0-1.38,0l-5.59,3.23a.54.54,0,0,0-.28.48v6.35a.53.53,0,0,0,.28.48L123.7,226a1.36,1.36,0,0,0,1.38,0l5.59-3.23a.53.53,0,0,0,.28-.48h0V216Z"/><path class="cls-21" d="M131,216a.55.55,0,0,1-.28.48l-.21.12-5.38,3.11a1.41,1.41,0,0,1-1.38,0l-5.38-3.11-.21-.12a.55.55,0,0,1-.28-.48.54.54,0,0,1,.28-.48l5.59-3.23a1.36,1.36,0,0,1,1.38,0l5.59,3.23A.54.54,0,0,1,131,216Z"/><path class="cls-9" d="M103.53,283.11a1.38,1.38,0,0,0-.7-1.21l-14.18-8.19a3.48,3.48,0,0,0-3.5,0L71,281.9a1.38,1.38,0,0,0-.7,1.21v16.13a1.38,1.38,0,0,0,.7,1.21l14.19,8.19a3.53,3.53,0,0,0,3.5,0l14.18-8.19a1.38,1.38,0,0,0,.7-1.22h0V283.11Z"/><path class="cls-21" d="M103.53,283.11a1.36,1.36,0,0,1-.7,1.21l-.53.32-13.65,7.88a3.53,3.53,0,0,1-3.5,0L71.5,284.64l-.54-.32a1.4,1.4,0,0,1,0-2.42l14.19-8.19a3.48,3.48,0,0,1,3.5,0l14.18,8.19A1.38,1.38,0,0,1,103.53,283.11Z"/><path class="cls-9" d="M92.26,233.94a.94.94,0,0,0-.47-.82l-9.58-5.53a2.37,2.37,0,0,0-2.36,0l-9.58,5.53a.94.94,0,0,0-.47.82v10.88a.94.94,0,0,0,.47.82l9.58,5.53a2.37,2.37,0,0,0,2.36,0l9.58-5.53a.94.94,0,0,0,.47-.82h0V233.94Z"/><path class="cls-21" d="M92.26,233.94a1,1,0,0,1-.47.82l-.36.21-9.22,5.31a2.32,2.32,0,0,1-2.36,0L70.64,235l-.37-.21a1,1,0,0,1-.47-.82.94.94,0,0,1,.47-.82l9.58-5.53a2.37,2.37,0,0,1,2.36,0l9.58,5.53A.94.94,0,0,1,92.26,233.94Z"/></g></g></g></g></svg>