<svg xmlns="http://www.w3.org/2000/svg" viewBox="0 0 479.96 550"><defs><style>.cls-1{fill:#1c2bf0;}.cls-2,.cls-3{fill:#0954f5;}.cls-10,.cls-3,.cls-6,.cls-7{opacity:0.3;}.cls-4,.cls-5,.cls-7{fill:#09e4a8;}.cls-5{opacity:0.5;}.cls-6{fill:#0a0d35;}.cls-10,.cls-8,.cls-9{fill:#fff;}.cls-9{opacity:0.6;}</style></defs><g id="Layer_2" data-name="Layer 2"><g id="illustration-3"><g id="server-1"><path class="cls-1" d="M480,349.22v59.11a11.55,11.55,0,0,1-5.82,10.29L251.92,547l-.46.26-.22.1a25.48,25.48,0,0,1-22.8,0l-.22-.1L6,418.86a11.52,11.52,0,0,1-4.41-4.41A12,12,0,0,1,0,408.77V349.22H90.83l137.09-79.14a23.75,23.75,0,0,1,23.82,0l137.08,79.14Z"/><path class="cls-2" d="M474.14,359.09,251.92,487.4l-.46.26-.22.09a25.42,25.42,0,0,1-22.8,0l-.22-.09L6,359.3a11.89,11.89,0,0,1,0-20.62l222-128.15a23.78,23.78,0,0,1,23.84,0L474.14,338.94A11.63,11.63,0,0,1,474.14,359.09Z"/><path class="cls-3" d="M251.92,487.4V547l-.46.26-.22.1a25.48,25.48,0,0,1-22.8,0V487.75a25.42,25.42,0,0,0,22.8,0l.22-.09Z"/><ellipse class="cls-4" cx="387.55" cy="434.79" rx="3.96" ry="2.24" transform="translate(-164.27 621.16) rotate(-66.95)"/><ellipse class="cls-4" cx="397.87" cy="428.84" rx="3.96" ry="2.24" transform="translate(-152.52 627.02) rotate(-66.95)"/><ellipse class="cls-5" cx="408.18" cy="422.88" rx="3.96" ry="2.24" transform="translate(-140.76 632.89) rotate(-66.95)"/><ellipse class="cls-4" cx="418.5" cy="416.93" rx="3.96" ry="2.24" transform="translate(-129 638.76) rotate(-66.95)"/><ellipse class="cls-4" cx="428.81" cy="410.97" rx="3.96" ry="2.24" transform="translate(-117.25 644.63) rotate(-66.95)"/><ellipse class="cls-5" cx="439.12" cy="405.02" rx="3.96" ry="2.24" transform="translate(-105.49 650.49) rotate(-66.95)"/><ellipse class="cls-5" cx="449.44" cy="399.06" rx="3.96" ry="2.24" transform="translate(-93.74 656.36) rotate(-66.95)"/><ellipse class="cls-4" cx="459.75" cy="393.11" rx="3.96" ry="2.24" transform="translate(-81.98 662.23) rotate(-66.95)"/><ellipse class="cls-4" cx="387.55" cy="448.54" rx="3.96" ry="2.24" transform="translate(-176.93 629.52) rotate(-66.95)"/><ellipse class="cls-5" cx="397.87" cy="442.59" rx="3.96" ry="2.24" transform="translate(-165.17 635.39) rotate(-66.95)"/><ellipse class="cls-5" cx="408.18" cy="436.63" rx="3.96" ry="2.24" transform="translate(-153.41 641.26) rotate(-66.95)"/><ellipse class="cls-4" cx="418.5" cy="430.68" rx="3.96" ry="2.24" transform="translate(-141.66 647.13) rotate(-66.95)"/><ellipse class="cls-4" cx="428.81" cy="424.72" rx="3.96" ry="2.24" transform="translate(-129.9 652.99) rotate(-66.95)"/><ellipse class="cls-5" cx="439.12" cy="418.77" rx="3.96" ry="2.24" transform="translate(-118.15 658.86) rotate(-66.95)"/><ellipse class="cls-4" cx="449.44" cy="412.81" rx="3.96" ry="2.24" transform="translate(-106.39 664.73) rotate(-66.95)"/><ellipse class="cls-4" cx="459.75" cy="406.86" rx="3.96" ry="2.24" transform="translate(-94.64 670.6) rotate(-66.95)"/><ellipse class="cls-4" cx="94.44" cy="434.79" rx="2.24" ry="3.96" transform="translate(-162.7 71.69) rotate(-23.05)"/><ellipse class="cls-4" cx="84.13" cy="428.84" rx="2.24" ry="3.96" transform="translate(-161.19 67.18) rotate(-23.05)"/><ellipse class="cls-5" cx="73.81" cy="422.88" rx="2.24" ry="3.96" transform="translate(-159.69 62.67) rotate(-23.05)"/><ellipse class="cls-4" cx="63.5" cy="416.93" rx="2.24" ry="3.96" transform="translate(-158.18 58.15) rotate(-23.05)"/><ellipse class="cls-4" cx="53.19" cy="410.97" rx="2.24" ry="3.96" transform="translate(-156.67 53.64) rotate(-23.05)"/><ellipse class="cls-5" cx="42.87" cy="405.02" rx="2.24" ry="3.96" transform="translate(-155.16 49.12) rotate(-23.05)"/><ellipse class="cls-5" cx="32.56" cy="399.06" rx="2.24" ry="3.96" transform="translate(-153.65 44.61) rotate(-23.05)"/><ellipse class="cls-4" cx="22.24" cy="393.11" rx="2.24" ry="3.96" transform="translate(-152.15 40.1) rotate(-23.05)"/><ellipse class="cls-4" cx="94.44" cy="448.54" rx="2.24" ry="3.96" transform="translate(-168.09 72.79) rotate(-23.05)"/><ellipse class="cls-5" cx="84.13" cy="442.59" rx="2.24" ry="3.96" transform="translate(-166.58 68.28) rotate(-23.05)"/><ellipse class="cls-5" cx="73.81" cy="436.63" rx="2.24" ry="3.96" transform="translate(-165.07 63.76) rotate(-23.05)"/><ellipse class="cls-4" cx="63.5" cy="430.68" rx="2.24" ry="3.96" transform="translate(-163.56 59.25) rotate(-23.05)"/><ellipse class="cls-4" cx="53.19" cy="424.72" rx="2.24" ry="3.96" transform="translate(-162.06 54.74) rotate(-23.05)"/><ellipse class="cls-5" cx="42.87" cy="418.77" rx="2.24" ry="3.96" transform="translate(-160.55 50.22) rotate(-23.05)"/><ellipse class="cls-4" cx="32.56" cy="412.81" rx="2.24" ry="3.96" transform="translate(-159.04 45.71) rotate(-23.05)"/><ellipse class="cls-4" cx="22.24" cy="406.86" rx="2.24" ry="3.96" transform="translate(-157.53 41.19) rotate(-23.05)"/><polygon class="cls-6" points="364.84 458.7 272.01 512.29 272.01 504.5 364.84 450.9 364.84 458.7"/><polygon class="cls-7" points="115.12 458.7 207.95 512.29 207.95 504.5 115.12 450.9 115.12 458.7"/></g><g id="server-2"><path class="cls-1" d="M480,245.56v59.11A11.52,11.52,0,0,1,474.14,315L251.92,443.28l-.46.26-.22.1a25.48,25.48,0,0,1-22.8,0l-.22-.1L6,315.19a11.39,11.39,0,0,1-4.41-4.41A12,12,0,0,1,0,305.11V245.56H90.83l137.09-79.15a23.8,23.8,0,0,1,23.82,0l137.08,79.15Z"/><path class="cls-2" d="M474.14,255.42,251.92,383.73l-.46.26-.22.1a25.48,25.48,0,0,1-22.8,0l-.22-.1L6,255.64A11.89,11.89,0,0,1,6,235l222-128.16a23.83,23.83,0,0,1,23.84,0L474.14,235.27A11.63,11.63,0,0,1,474.14,255.42Z"/><path class="cls-3" d="M251.92,383.73v59.55l-.46.26-.22.1a25.48,25.48,0,0,1-22.8,0V384.09a25.48,25.48,0,0,0,22.8,0l.22-.1Z"/><ellipse class="cls-4" cx="387.55" cy="331.13" rx="3.96" ry="2.24" transform="translate(-68.88 558.08) rotate(-66.95)"/><ellipse class="cls-4" cx="397.87" cy="325.17" rx="3.96" ry="2.24" transform="translate(-57.13 563.95) rotate(-66.95)"/><ellipse class="cls-5" cx="408.18" cy="319.22" rx="3.96" ry="2.24" transform="translate(-45.37 569.82) rotate(-66.95)"/><ellipse class="cls-4" cx="418.5" cy="313.26" rx="3.96" ry="2.24" transform="translate(-33.62 575.69) rotate(-66.95)"/><ellipse class="cls-4" cx="428.81" cy="307.31" rx="3.96" ry="2.24" transform="translate(-21.86 581.55) rotate(-66.95)"/><ellipse class="cls-5" cx="439.12" cy="301.35" rx="3.96" ry="2.24" transform="translate(-10.11 587.42) rotate(-66.95)"/><ellipse class="cls-5" cx="449.44" cy="295.4" rx="3.96" ry="2.24" transform="translate(1.65 593.29) rotate(-66.95)"/><ellipse class="cls-4" cx="459.75" cy="289.44" rx="3.96" ry="2.24" transform="translate(13.4 599.16) rotate(-66.95)"/><ellipse class="cls-4" cx="387.55" cy="344.88" rx="3.96" ry="2.24" transform="translate(-81.54 566.45) rotate(-66.95)"/><ellipse class="cls-5" cx="397.87" cy="338.93" rx="3.96" ry="2.24" transform="translate(-69.78 572.32) rotate(-66.95)"/><ellipse class="cls-5" cx="408.18" cy="332.97" rx="3.96" ry="2.24" transform="translate(-58.03 578.19) rotate(-66.95)"/><ellipse class="cls-4" cx="418.5" cy="327.02" rx="3.96" ry="2.24" transform="translate(-46.27 584.05) rotate(-66.95)"/><ellipse class="cls-4" cx="428.81" cy="321.06" rx="3.96" ry="2.24" transform="translate(-34.52 589.92) rotate(-66.95)"/><ellipse class="cls-5" cx="439.12" cy="315.11" rx="3.96" ry="2.24" transform="translate(-22.76 595.79) rotate(-66.95)"/><ellipse class="cls-4" cx="449.44" cy="309.15" rx="3.96" ry="2.24" transform="matrix(0.39, -0.92, 0.92, 0.39, -11.01, 601.66)"/><ellipse class="cls-4" cx="459.75" cy="303.2" rx="3.96" ry="2.24" transform="translate(0.75 607.52) rotate(-66.95)"/><ellipse class="cls-4" cx="94.44" cy="331.13" rx="2.24" ry="3.96" transform="translate(-122.11 63.42) rotate(-23.05)"/><ellipse class="cls-4" cx="84.13" cy="325.17" rx="2.24" ry="3.96" transform="translate(-120.6 58.9) rotate(-23.05)"/><ellipse class="cls-5" cx="73.81" cy="319.22" rx="2.24" ry="3.96" transform="translate(-119.1 54.39) rotate(-23.05)"/><ellipse class="cls-4" cx="63.5" cy="313.26" rx="2.24" ry="3.96" transform="translate(-117.59 49.88) rotate(-23.05)"/><ellipse class="cls-4" cx="53.19" cy="307.31" rx="2.24" ry="3.96" transform="translate(-116.08 45.36) rotate(-23.05)"/><ellipse class="cls-5" cx="42.87" cy="301.35" rx="2.24" ry="3.96" transform="translate(-114.57 40.85) rotate(-23.05)"/><ellipse class="cls-5" cx="32.56" cy="295.4" rx="2.24" ry="3.96" transform="translate(-113.06 36.33) rotate(-23.05)"/><ellipse class="cls-4" cx="22.24" cy="289.44" rx="2.24" ry="3.96" transform="translate(-111.56 31.82) rotate(-23.05)"/><ellipse class="cls-4" cx="94.44" cy="344.88" rx="2.24" ry="3.96" transform="translate(-127.5 64.52) rotate(-23.05)"/><ellipse class="cls-5" cx="84.13" cy="338.93" rx="2.24" ry="3.96" transform="translate(-125.99 60) rotate(-23.05)"/><ellipse class="cls-5" cx="73.81" cy="332.97" rx="2.24" ry="3.96" transform="translate(-124.48 55.49) rotate(-23.05)"/><ellipse class="cls-4" cx="63.5" cy="327.02" rx="2.24" ry="3.96" transform="translate(-122.97 50.97) rotate(-23.05)"/><ellipse class="cls-4" cx="53.19" cy="321.06" rx="2.24" ry="3.96" transform="translate(-121.47 46.46) rotate(-23.05)"/><ellipse class="cls-5" cx="42.87" cy="315.11" rx="2.24" ry="3.96" transform="translate(-119.96 41.95) rotate(-23.05)"/><ellipse class="cls-4" cx="32.56" cy="309.15" rx="2.24" ry="3.96" transform="translate(-118.45 37.43) rotate(-23.05)"/><ellipse class="cls-4" cx="22.24" cy="303.2" rx="2.24" ry="3.96" transform="translate(-116.94 32.92) rotate(-23.05)"/><polygon class="cls-7" points="364.84 355.04 272.01 408.63 272.01 400.83 364.84 347.24 364.84 355.04"/><polygon class="cls-6" points="115.12 355.04 207.95 408.63 207.95 400.83 115.12 347.24 115.12 355.04"/></g><g id="server-3"><path class="cls-1" d="M480,141.89V201a11.52,11.52,0,0,1-5.82,10.28L251.92,339.62l-.46.26-.22.1a25.48,25.48,0,0,1-22.8,0l-.22-.1L6,211.53a11.39,11.39,0,0,1-4.41-4.41A12,12,0,0,1,0,201.44V141.89H90.83L227.92,62.75a23.75,23.75,0,0,1,23.82,0l137.08,79.14Z"/><path class="cls-2" d="M474.14,151.76,251.92,280.07l-.46.26-.22.1a25.48,25.48,0,0,1-22.8,0l-.22-.1L6,152a11.9,11.9,0,0,1,0-20.63L227.92,3.2a23.78,23.78,0,0,1,23.84,0L474.14,131.61A11.63,11.63,0,0,1,474.14,151.76Z"/><path class="cls-1" d="M429.52,149.82,249.64,253.68l-.37.21-.17.08a20.61,20.61,0,0,1-18.46,0l-.18-.08L50.55,150a9.63,9.63,0,0,1,0-16.69L230.22,29.56a19.27,19.27,0,0,1,19.29,0l180,104A9.41,9.41,0,0,1,429.52,149.82Z"/><path class="cls-3" d="M251.92,280.07v59.55l-.46.26-.22.1a25.48,25.48,0,0,1-22.8,0V280.43a25.48,25.48,0,0,0,22.8,0l.22-.1Z"/><ellipse class="cls-4" cx="387.55" cy="227.46" rx="3.96" ry="2.24" transform="translate(26.5 495.01) rotate(-66.95)"/><ellipse class="cls-4" cx="397.87" cy="221.51" rx="3.96" ry="2.24" transform="translate(38.26 500.88) rotate(-66.95)"/><ellipse class="cls-5" cx="408.18" cy="215.55" rx="3.96" ry="2.24" transform="translate(50.01 506.74) rotate(-66.95)"/><ellipse class="cls-4" cx="418.5" cy="209.6" rx="3.96" ry="2.24" transform="translate(61.77 512.61) rotate(-66.95)"/><ellipse class="cls-4" cx="428.81" cy="203.64" rx="3.96" ry="2.24" transform="translate(73.52 518.48) rotate(-66.95)"/><ellipse class="cls-5" cx="439.12" cy="197.69" rx="3.96" ry="2.24" transform="translate(85.28 524.35) rotate(-66.95)"/><ellipse class="cls-5" cx="449.44" cy="191.73" rx="3.96" ry="2.24" transform="translate(97.03 530.21) rotate(-66.95)"/><ellipse class="cls-4" cx="459.75" cy="185.78" rx="3.96" ry="2.24" transform="translate(108.79 536.08) rotate(-66.95)"/><ellipse class="cls-4" cx="387.55" cy="241.22" rx="3.96" ry="2.24" transform="translate(13.85 503.38) rotate(-66.95)"/><ellipse class="cls-5" cx="397.87" cy="235.26" rx="3.96" ry="2.24" transform="translate(25.6 509.24) rotate(-66.95)"/><ellipse class="cls-5" cx="408.18" cy="229.31" rx="3.96" ry="2.24" transform="translate(37.36 515.11) rotate(-66.95)"/><ellipse class="cls-4" cx="418.5" cy="223.35" rx="3.96" ry="2.24" transform="translate(49.11 520.98) rotate(-66.95)"/><ellipse class="cls-4" cx="428.81" cy="217.4" rx="3.96" ry="2.24" transform="translate(60.87 526.85) rotate(-66.95)"/><ellipse class="cls-5" cx="439.12" cy="211.44" rx="3.96" ry="2.24" transform="translate(72.62 532.71) rotate(-66.95)"/><ellipse class="cls-4" cx="449.44" cy="205.49" rx="3.96" ry="2.24" transform="translate(84.38 538.58) rotate(-66.95)"/><ellipse class="cls-4" cx="459.75" cy="199.53" rx="3.96" ry="2.24" transform="translate(96.14 544.45) rotate(-66.95)"/><ellipse class="cls-4" cx="94.44" cy="227.46" rx="2.24" ry="3.96" transform="translate(-81.52 55.14) rotate(-23.05)"/><ellipse class="cls-4" cx="84.13" cy="221.51" rx="2.24" ry="3.96" transform="translate(-80.02 50.63) rotate(-23.05)"/><ellipse class="cls-5" cx="73.81" cy="215.55" rx="2.24" ry="3.96" transform="translate(-78.51 46.11) rotate(-23.05)"/><ellipse class="cls-4" cx="63.5" cy="209.6" rx="2.24" ry="3.96" transform="translate(-77 41.6) rotate(-23.05)"/><ellipse class="cls-4" cx="53.19" cy="203.64" rx="2.24" ry="3.96" transform="translate(-75.49 37.08) rotate(-23.05)"/><ellipse class="cls-5" cx="42.87" cy="197.69" rx="2.24" ry="3.96" transform="translate(-73.98 32.57) rotate(-23.05)"/><ellipse class="cls-5" cx="32.56" cy="191.73" rx="2.24" ry="3.96" transform="translate(-72.47 28.06) rotate(-23.05)"/><ellipse class="cls-4" cx="22.24" cy="185.78" rx="2.24" ry="3.96" transform="translate(-70.97 23.54) rotate(-23.05)"/><ellipse class="cls-4" cx="94.44" cy="241.22" rx="2.24" ry="3.96" transform="translate(-86.91 56.24) rotate(-23.05)"/><ellipse class="cls-5" cx="84.13" cy="235.26" rx="2.24" ry="3.96" transform="translate(-85.4 51.73) rotate(-23.05)"/><ellipse class="cls-5" cx="73.81" cy="229.31" rx="2.24" ry="3.96" transform="translate(-83.89 47.21) rotate(-23.05)"/><ellipse class="cls-4" cx="63.5" cy="223.35" rx="2.24" ry="3.96" transform="translate(-82.38 42.7) rotate(-23.05)"/><ellipse class="cls-4" cx="53.19" cy="217.4" rx="2.24" ry="3.96" transform="translate(-80.88 38.18) rotate(-23.05)"/><ellipse class="cls-5" cx="42.87" cy="211.44" rx="2.24" ry="3.96" transform="translate(-79.37 33.67) rotate(-23.05)"/><ellipse class="cls-4" cx="32.56" cy="205.49" rx="2.24" ry="3.96" transform="translate(-77.86 29.15) rotate(-23.05)"/><ellipse class="cls-4" cx="22.24" cy="199.53" rx="2.24" ry="3.96" transform="translate(-76.35 24.64) rotate(-23.05)"/><polygon class="cls-6" points="364.84 251.37 272.01 304.97 272.01 297.17 364.84 243.57 364.84 251.37"/><polygon class="cls-7" points="115.12 251.37 207.95 304.97 207.95 297.17 115.12 243.57 115.12 251.37"/><path class="cls-8" d="M157.1,181.74a21.8,21.8,0,0,1-4.83,1.06l-2-2.88a25.45,25.45,0,0,0,4.22-.93,17.78,17.78,0,0,0,3.58-1.54,5.34,5.34,0,0,0,2-1.66.81.81,0,0,0-.4-1.21,3.08,3.08,0,0,0-1.94-.24,21.91,21.91,0,0,0-3.8,1.15,32.49,32.49,0,0,1-5.48,1.62,11.8,11.8,0,0,1-3.91.16,9,9,0,0,1-3.16-1.13,4.2,4.2,0,0,1-2.14-2.36,3.3,3.3,0,0,1,.59-2.84,9.59,9.59,0,0,1,3.28-2.8,22.39,22.39,0,0,1,4.52-1.95,18.12,18.12,0,0,1,4.46-.86l2,2.87a18.17,18.17,0,0,0-7.16,2.1,3.69,3.69,0,0,0-1.67,1.56,1,1,0,0,0,.55,1.27,2.27,2.27,0,0,0,1.12.31,6.83,6.83,0,0,0,1.73-.27,28.43,28.43,0,0,0,3-1,31.76,31.76,0,0,1,5.38-1.55,12.35,12.35,0,0,1,3.92-.14,8.8,8.8,0,0,1,3.1,1.07q2.78,1.61,2.2,3.74t-4.45,4.38A25.36,25.36,0,0,1,157.1,181.74Z"/><path class="cls-8" d="M175.08,169.88a13.12,13.12,0,0,1-6.84-1.76,6.25,6.25,0,0,1-2.71-2.63,3.06,3.06,0,0,1,.16-2.9,7.74,7.74,0,0,1,3-2.72,15.94,15.94,0,0,1,3.27-1.4,14.19,14.19,0,0,1,3.38-.62l2,2.54a12.57,12.57,0,0,0-2.48.44,8.92,8.92,0,0,0-2.12.83c-1,.55-1.42,1.13-1.4,1.73s.59,1.22,1.67,1.85a6.89,6.89,0,0,0,3.22,1,5.69,5.69,0,0,0,3-.8,5,5,0,0,0,1.44-1.22,3,3,0,0,0,.73-1.45l4.43,1.18a4.05,4.05,0,0,1-1.15,2,11.25,11.25,0,0,1-2.56,2A14.3,14.3,0,0,1,175.08,169.88Z"/><path class="cls-8" d="M190.52,148.92a11.6,11.6,0,0,1,5.93,1.71L204,155l-4.46,2.58-1.84-1.06a1.51,1.51,0,0,1,.25,1.59,3.43,3.43,0,0,1-1.56,1.54,9.67,9.67,0,0,1-3,1.1,10.1,10.1,0,0,1-3.24.11,7.26,7.26,0,0,1-2.83-.91c-1-.54-1.45-1.12-1.52-1.72s.3-1.29,1.12-2.05a22.31,22.31,0,0,1,3.95-2.72l.72-.41-.32-.19a3.35,3.35,0,0,0-1.83-.53,4.67,4.67,0,0,0-2,.7,7.45,7.45,0,0,0-1.73,1.42,8.14,8.14,0,0,0-1.31,1.82l-4.33-1.11a7.74,7.74,0,0,1,1.71-2.33,13,13,0,0,1,2.7-2.1A12.28,12.28,0,0,1,190.52,148.92Zm4.74,7c0-.5-.43-1-1.14-1.36l-.32-.19-.43.25a7.08,7.08,0,0,0-2.12,1.58c-.28.39-.17.73.31,1a2.8,2.8,0,0,0,1.4.36,2.6,2.6,0,0,0,1.4-.35C195,156.8,195.3,156.37,195.26,155.87Z"/><path class="cls-8" d="M209.91,151.62l-18.83-10.87,4.75-2.75,18.83,10.88Z"/><path class="cls-8" d="M219.18,132.38a11.6,11.6,0,0,1,5.93,1.71l7.58,4.38L228.23,141,226.39,140a1.51,1.51,0,0,1,.25,1.59,3.39,3.39,0,0,1-1.56,1.54,9.67,9.67,0,0,1-3,1.1,10.4,10.4,0,0,1-3.24.12,7.6,7.6,0,0,1-2.83-.91c-.95-.55-1.45-1.12-1.52-1.73s.3-1.29,1.12-2.05a22.86,22.86,0,0,1,4-2.72l.72-.41-.32-.19a3.44,3.44,0,0,0-1.83-.53,4.67,4.67,0,0,0-2,.7,7.72,7.72,0,0,0-1.73,1.42,8.14,8.14,0,0,0-1.31,1.82l-4.33-1.11a7.87,7.87,0,0,1,1.71-2.33,12.89,12.89,0,0,1,2.7-2.09A12.18,12.18,0,0,1,219.18,132.38Zm4.74,6.94c0-.5-.43-.95-1.14-1.36l-.32-.19L222,138a7.6,7.6,0,0,0-2.12,1.58c-.28.4-.17.73.31,1a2.73,2.73,0,0,0,1.4.36,2.69,2.69,0,0,0,1.4-.34C223.66,140.26,224,139.82,223.92,139.32Z"/><path class="cls-8" d="M237.66,121a13.4,13.4,0,0,1,4.4.19,14.09,14.09,0,0,1,4.31,1.63,8.07,8.07,0,0,1,2.87,2.51,2.85,2.85,0,0,1,.38,2.6,4.47,4.47,0,0,1-2.13,2.23,9.32,9.32,0,0,1-2.93,1.07,9.09,9.09,0,0,1-3.11.1l1.79,1-4.67,2.7L219.74,124.2l4.75-2.74,7.24,4.18a2,2,0,0,1,.28-1.74,4.89,4.89,0,0,1,1.8-1.62A10.29,10.29,0,0,1,237.66,121Zm5.83,6.36c-.13-.59-.74-1.2-1.82-1.82a7.07,7.07,0,0,0-3-1,4.68,4.68,0,0,0-2.71.61c-.84.48-1.2,1-1.08,1.59s.7,1.18,1.75,1.79a7.35,7.35,0,0,0,3.13,1,4.75,4.75,0,0,0,2.75-.6C243.29,128.5,243.63,128,243.49,127.37Z"/><path class="cls-8" d="M238.65,112.27l5-2.87,4.31,2.48-5,2.87Zm19.82,11.32L245.32,116l4.76-2.75,13.14,7.59Z"/><path class="cls-8" d="M269.18,117.4l-18.83-10.87,4.75-2.74,18.83,10.87Z"/><path class="cls-8" d="M260.07,99.9,265,97l4.3,2.48-5,2.87Zm19.82,11.32-13.14-7.59,4.75-2.74,13.14,7.58Z"/><path class="cls-8" d="M296.47,97.85l3.15,2.1a13.29,13.29,0,0,1-1.55,1,12.57,12.57,0,0,1-6,1.92,10.75,10.75,0,0,1-5.64-1.58l-4.33-2.49-2.45,1.41-3.5-2,2.45-1.41-3.82-2.21,4.76-2.75L283.36,94l3.15-1.82,3.5,2-3.15,1.82,4.35,2.51a3.77,3.77,0,0,0,4,.08A12.78,12.78,0,0,0,296.47,97.85Z"/><path class="cls-8" d="M300.77,84l4.65-2.69,9.91,15-4.81,2.77-3.07-4.82-17.57-4,5-2.87,10.29,2.61Z"/><path class="cls-9" d="M265.36,154.18l-78.55,45.35a4,4,0,0,1-3.59-.15l-4.63-2.68c-1.07-.61-1.18-1.54-.26-2.07l78.54-45.35a4,4,0,0,1,3.59.15l4.64,2.68C266.16,152.72,266.27,153.65,265.36,154.18Z"/><path class="cls-10" d="M233.49,193.91l-28.21,16.28a4,4,0,0,1-3.59-.15l-4.63-2.68c-1.06-.61-1.18-1.54-.26-2.07L225,189a4,4,0,0,1,3.58.15l4.64,2.67C234.29,192.45,234.41,193.38,233.49,193.91Z"/></g></g></g></svg>