<svg xmlns="http://www.w3.org/2000/svg" viewBox="0 0 532.36 550"><defs><style>.cls-1,.cls-13,.cls-9{fill:#0a0d35;}.cls-2{fill:#9b9fb9;}.cls-3{fill:#e1e2e8;}.cls-4{fill:#1c2bf0;}.cls-5,.cls-6{fill:#0954f5;}.cls-6{opacity:0.3;}.cls-7,.cls-8{fill:#09e4a8;}.cls-8{opacity:0.5;}.cls-9{opacity:0.4;}.cls-10{fill:#bec1d0;}.cls-11{fill:#ecedf0;}.cls-12{fill:#f2f3f5;}.cls-13{opacity:0.2;}.cls-14{fill:#fff;}</style></defs><g id="Layer_2" data-name="Layer 2"><g id="illustration-5"><g id="box-element-2"><path class="cls-1" d="M475.62,246.92,276.54,132a21.37,21.37,0,0,0-21.35,0L56.49,246.67a10.67,10.67,0,0,0,0,18.47l199,114.9.2.09a22.77,22.77,0,0,0,20.41,0l.2-.09.41-.23L475.62,265a10.4,10.4,0,0,0,0-18Z"/><path class="cls-2" d="M56.73,246.62,4,187.31a16,16,0,0,1,4-24.45L178.67,64.31a16,16,0,0,1,19.93,3.23l57.06,64.22Z"/><path class="cls-3" d="M475.62,246.94l52.7-59.31a16,16,0,0,0-4-24.45L353.69,64.63a16,16,0,0,0-19.93,3.23l-57.07,64.22Z"/></g><g id="server"><path class="cls-4" d="M441,248v43.1a8.39,8.39,0,0,1-4.24,7.5l-162,93.56-.33.19-.16.08a18.64,18.64,0,0,1-16.63,0l-.16-.08-162-93.58a8.38,8.38,0,0,1-3.21-3.21A8.81,8.81,0,0,1,91,291.37V248h66.23l99.95-57.7a17.32,17.32,0,0,1,17.36,0L374.52,248Z"/><path class="cls-5" d="M436.72,255.15l-162,93.55-.33.19-.16.07a18.58,18.58,0,0,1-16.63,0l-.16-.07-162-93.58a8.69,8.69,0,0,1,0-15l161.84-93.43a17.31,17.31,0,0,1,17.38,0l162.13,93.62A8.48,8.48,0,0,1,436.72,255.15Z"/><path class="cls-6" d="M274.7,348.7v43.41l-.33.19-.16.08a18.64,18.64,0,0,1-16.63,0V349a18.58,18.58,0,0,0,16.63,0l.16-.07Z"/><path class="cls-4" d="M441,175.7v43.1a8.39,8.39,0,0,1-4.24,7.5l-162,93.56-.33.19-.16.07a18.58,18.58,0,0,1-16.63,0l-.16-.07-162-93.58a8.38,8.38,0,0,1-3.21-3.21A8.81,8.81,0,0,1,91,219.12V175.7h66.23L257.21,118a17.32,17.32,0,0,1,17.36,0l99.95,57.7Z"/><path class="cls-5" d="M436.72,182.9l-162,93.55-.33.18-.16.08a18.58,18.58,0,0,1-16.63,0l-.16-.08-162-93.57a8.69,8.69,0,0,1,0-15L257.21,74.58a17.35,17.35,0,0,1,17.38,0l162.13,93.63A8.48,8.48,0,0,1,436.72,182.9Z"/><path class="cls-6" d="M274.7,276.45v43.41l-.33.19-.16.07a18.58,18.58,0,0,1-16.63,0V276.71a18.58,18.58,0,0,0,16.63,0l.16-.08Z"/><ellipse class="cls-7" cx="387.74" cy="234.94" rx="4.16" ry="2.35" transform="translate(19.74 499.73) rotate(-66.95)"/><ellipse class="cls-8" cx="398.57" cy="228.69" rx="4.16" ry="2.35" transform="translate(32.08 505.89) rotate(-66.95)"/><ellipse class="cls-7" cx="409.4" cy="222.43" rx="4.16" ry="2.35" transform="translate(44.42 512.05) rotate(-66.95)"/><ellipse class="cls-8" cx="420.23" cy="216.18" rx="4.16" ry="2.35" transform="translate(56.77 518.21) rotate(-66.95)"/><ellipse class="cls-7" cx="142.53" cy="234.94" rx="2.35" ry="4.16" transform="translate(-80.61 74.57) rotate(-23.05)"/><ellipse class="cls-7" cx="131.7" cy="228.69" rx="2.35" ry="4.16" transform="translate(-79.03 69.83) rotate(-23.05)"/><ellipse class="cls-8" cx="120.87" cy="222.43" rx="2.35" ry="4.16" transform="translate(-77.44 65.09) rotate(-23.05)"/><ellipse class="cls-7" cx="110.04" cy="216.18" rx="2.35" ry="4.16" transform="translate(-75.86 60.35) rotate(-23.05)"/><polygon class="cls-9" points="357.03 255.52 289.35 294.6 289.35 288.91 357.03 249.84 357.03 255.52"/><polygon class="cls-9" points="174.97 255.52 242.65 294.6 242.65 288.91 174.97 249.84 174.97 255.52"/><path class="cls-4" d="M441,103.45v43.1a8.39,8.39,0,0,1-4.24,7.5l-162,93.56-.33.19-.16.07a18.58,18.58,0,0,1-16.63,0l-.16-.07-162-93.58A8.38,8.38,0,0,1,92.16,151,8.81,8.81,0,0,1,91,146.87V103.45h66.23l99.95-57.7a17.32,17.32,0,0,1,17.36,0l99.95,57.7Z"/><path class="cls-5" d="M436.72,110.65l-162,93.55-.33.18-.16.08a18.58,18.58,0,0,1-16.63,0l-.16-.08-162-93.58a8.68,8.68,0,0,1,0-15L257.21,2.33a17.35,17.35,0,0,1,17.38,0L436.72,96A8.48,8.48,0,0,1,436.72,110.65Z"/><path class="cls-6" d="M274.7,204.2v43.41l-.33.19-.16.07a18.58,18.58,0,0,1-16.63,0V204.46a18.58,18.58,0,0,0,16.63,0l.16-.08Z"/><ellipse class="cls-7" cx="387.74" cy="162.69" rx="4.16" ry="2.35" transform="translate(86.22 455.77) rotate(-66.95)"/><ellipse class="cls-8" cx="398.57" cy="156.44" rx="4.16" ry="2.35" transform="translate(98.56 461.93) rotate(-66.95)"/><ellipse class="cls-7" cx="409.4" cy="150.18" rx="4.16" ry="2.35" transform="translate(110.91 468.09) rotate(-66.95)"/><ellipse class="cls-8" cx="420.23" cy="143.93" rx="4.16" ry="2.35" transform="translate(123.25 474.25) rotate(-66.95)"/><ellipse class="cls-7" cx="142.53" cy="162.69" rx="2.35" ry="4.16" transform="translate(-52.32 68.8) rotate(-23.05)"/><ellipse class="cls-7" cx="131.7" cy="156.44" rx="2.35" ry="4.16" transform="translate(-50.74 64.06) rotate(-23.05)"/><ellipse class="cls-8" cx="120.87" cy="150.18" rx="2.35" ry="4.16" transform="translate(-49.15 59.32) rotate(-23.05)"/><ellipse class="cls-7" cx="110.04" cy="143.93" rx="2.35" ry="4.16" transform="translate(-47.57 54.58) rotate(-23.05)"/><polygon class="cls-9" points="357.03 183.27 289.35 222.35 289.35 216.66 357.03 177.59 357.03 183.27"/><polygon class="cls-9" points="174.97 183.27 242.65 222.35 242.65 216.66 174.97 177.59 174.97 183.27"/></g><g id="box-element-1"><path class="cls-10" d="M480.85,256.12v167a10.35,10.35,0,0,1-5.23,9.22L276.69,547.27V379.81L475.62,265a10.33,10.33,0,0,0,5.21-8.83Z"/><path class="cls-3" d="M255.67,380.13V547.59l-.2-.1-199-114.9a10.33,10.33,0,0,1-4-3.95,10.88,10.88,0,0,1-1.39-5.09V256.12h0a10.49,10.49,0,0,0,5.32,9l199,114.9Z"/><path class="cls-11" d="M276.69,379.81V547.27l-.41.22-.2.1a22.83,22.83,0,0,1-20.41,0V380.13a22.77,22.77,0,0,0,20.41,0l.2-.09Z"/><path class="cls-2" d="M475.62,265l52.7,59.31a16,16,0,0,1-4,24.45L353.69,447.26A16,16,0,0,1,333.76,444l-57.07-64.23Z"/><path class="cls-12" d="M56.73,265,4,324.26a16,16,0,0,0,4,24.45l170.68,98.55A16,16,0,0,0,198.6,444l57.06-64.23Z"/></g><path id="shadow" class="cls-13" d="M475.62,246.92l-.16-.09L276.69,361.59l-.41.23-.2.09a22.77,22.77,0,0,1-20.41,0l-.2-.09-199-114.9-.18-.13a10.66,10.66,0,0,0,.18,18.35l199,114.9.2.09a22.77,22.77,0,0,0,20.41,0l.2-.09.41-.23L475.62,265a10.4,10.4,0,0,0,0-18Z"/><path id="sign" class="cls-14" d="M236,137.66c-20.8,0-38.37-9.58-38.37-20.93,0-5.28,3.78-10.38,10.64-14.34,7.36-4.25,17.21-6.59,27.73-6.59h19.2A2.88,2.88,0,0,0,258,92.92V81.83c0-5.29,3.77-10.38,10.63-14.34,7.36-4.25,17.21-6.59,27.73-6.59,20.79,0,38.36,9.58,38.36,20.93,0,5.29-3.78,10.38-10.64,14.34-7.36,4.25-17.2,6.59-27.72,6.59h-19.2a2.88,2.88,0,0,0-2.89,2.88v11.09c0,5.29-3.78,10.38-10.64,14.34C256.32,135.32,246.48,137.66,236,137.66Zm0-34.9a30.54,30.54,0,0,0-15,3.63c-4.56,2.63-7.07,6.31-7.07,10.34,0,7.83,9.7,14,22.09,14a30.54,30.54,0,0,0,15-3.63c4.56-2.63,7.07-6.31,7.06-10.34V105.64a2.87,2.87,0,0,0-2.88-2.88Zm60.45-34.9a30.54,30.54,0,0,0-15,3.63c-4.56,2.63-7.07,6.3-7.07,10.34V92.91a2.89,2.89,0,0,0,2.89,2.89h19.2a30.54,30.54,0,0,0,15-3.63c4.55-2.63,7.06-6.3,7.07-10.34C318.49,74,308.79,67.86,296.41,67.86Z"/></g></g></svg>