<svg xmlns="http://www.w3.org/2000/svg" viewBox="0 0 474.97 550"><defs><style>.cls-1{fill:#1340ff;}.cls-2{fill:#009f78;}.cls-3{fill:#09e4a8;}.cls-4{fill:#fff;}.cls-5{fill:#caccd8;}.cls-6{fill:#a7aac1;}.cls-7{fill:#d5d7e0;}.cls-8{fill:#ecedf0;}.cls-9{fill:#05c290;}</style></defs><g id="Layer_2" data-name="Layer 2"><g id="illustration-4"><path id="bed" class="cls-1" d="M469.37,375,309.84,282.86a24.7,24.7,0,0,1-9-9,24.43,24.43,0,0,1-3.29-12.28V9.31c0-7.82-4.76-11.43-10.63-8L10.63,160.81C4.76,164.19,0,173.29,0,181.1V430.56a29.36,29.36,0,0,0,3.94,14.71H4a29.46,29.46,0,0,0,10.78,10.77L171.8,546.77c6.77,3.91,17,4.33,22.9.94L471,388.18C476.88,384.8,476.14,378.88,469.37,375Z"/><g id="cta"><path class="cls-2" d="M248.44,454.3l-20.76-12.05a7.33,7.33,0,0,0-7.36,0l-56.9,32.85H146.1v12.12a3.64,3.64,0,0,0,1.84,3.19l36.25,21a7.33,7.33,0,0,0,7.36,0l72.38-41.78a3.67,3.67,0,0,0,1.84-3.19V454.3Z"/><path class="cls-3" d="M263.93,457.49l-72.38,41.79a7.38,7.38,0,0,1-7.36,0l-36.25-21a3.68,3.68,0,0,1,0-6.37l72.38-41.79a7.38,7.38,0,0,1,7.36,0l36.25,21A3.68,3.68,0,0,1,263.93,457.49Z"/><path class="cls-4" d="M214.75,472.69c-1.52.87-1.31,2.4.44,3.41a6.59,6.59,0,0,0,5.91.26c1.52-.88,1.32-2.42-.42-3.43A6.59,6.59,0,0,0,214.75,472.69Zm-37.64-10.08,3.18,1.84,2.75-1.59,17,4.1,2,3.32a3.3,3.3,0,0,0,1.18,1.08,6.63,6.63,0,0,0,5.93.25l16.52-9.54-3.18-1.83-15.94,9.2a.84.84,0,0,1-.74,0l-.15-.14-1.35-2.21,10.25-5.92a1.57,1.57,0,0,0,.77-2.33L210,450a1.69,1.69,0,0,0-.6-.54,3.3,3.3,0,0,0-3-.12L186.08,461.1,181.61,460Zm47.73,4.25c-1.52.87-1.31,2.41.44,3.42a6.58,6.58,0,0,0,5.91.25c1.52-.87,1.33-2.41-.42-3.42A6.63,6.63,0,0,0,224.84,466.86Z"/></g><g id="bar-2"><path class="cls-5" d="M118.6,426.1l-5.36,3.09L85.81,445.12a4.88,4.88,0,0,1-4.9,0l-.23-.13-1.79-1,1.32-.76,31.49-18.27a5.19,5.19,0,0,1,1.54-.56,4.85,4.85,0,0,1,3.36.57Z"/><path class="cls-4" d="M123.18,422.82a1.18,1.18,0,0,1-.6,1l-4,2.3-5.36,3.09L85.81,445.12a4.88,4.88,0,0,1-4.9,0l-.23-.13-1.79-1-4-2.3a1.19,1.19,0,0,1-.6-1.05,1.22,1.22,0,0,1,.6-1.07l36.78-21.32a4.93,4.93,0,0,1,4.9,0l6,3.46A1.18,1.18,0,0,1,123.18,422.82Z"/><path class="cls-5" d="M123.19,422.82v6.64a1.22,1.22,0,0,1-.61,1.06l-3.82,2.19L85.81,451.84a4.93,4.93,0,0,1-4.9,0l-6-3.46a1.19,1.19,0,0,1-.6-1.06h0v-6.71h0a1.19,1.19,0,0,0,.6,1.05l4,2.3,1.79,1,.23.13a4.88,4.88,0,0,0,4.9,0l27.43-15.93,5.36-3.09,4-2.3a1.18,1.18,0,0,0,.6-1Z"/></g><g id="bar-1"><path class="cls-4" d="M252.89,379.39a1.18,1.18,0,0,1-.6,1l-4,2.29-5.37,3.1L113,460.65a4.94,4.94,0,0,1-4.91,0l-.22-.14-1.79-1-4-2.29a1.23,1.23,0,0,1,0-2.12l139.29-80.28a4.9,4.9,0,0,1,4.91,0l6,3.46A1.17,1.17,0,0,1,252.89,379.39Z"/><path class="cls-5" d="M252.91,379.39V386a1.2,1.2,0,0,1-.62,1.05l-3.81,2.2L113,467.36a4.94,4.94,0,0,1-4.91,0l-6-3.46a1.19,1.19,0,0,1-.61-1h0v-6.72h0a1.21,1.21,0,0,0,.61,1.06l4,2.29,1.79,1,.22.14a4.94,4.94,0,0,0,4.91,0L243,385.76l5.37-3.1,4-2.29a1.18,1.18,0,0,0,.6-1Z"/></g><g id="chart"><path class="cls-4" d="M393.84,377.35c0,7.71-5.1,15.41-15.28,21.29-20.36,11.76-53.39,11.75-73.75,0-10.18-5.88-15.29-13.58-15.29-21.29s5.11-15.41,15.29-21.29c20.36-11.77,53.39-11.77,73.75,0C388.74,361.94,393.84,369.64,393.84,377.35Z"/><path class="cls-6" d="M393.84,377.35v15.51a24,24,0,0,1-11.39,20.6l-.14.09c-22.44,13.53-58.81,13.53-81.25,0-.6-.36-1.18-.72-1.74-1.09a22.11,22.11,0,0,1-9.8-18.51v-16.6c0,7.71,5.11,15.41,15.29,21.29,20.36,11.75,53.39,11.76,73.75,0C388.74,392.76,393.84,385.06,393.84,377.35Z"/><path class="cls-7" d="M352.5,338.06l-10.82,29.46-33.07-23.29C321.16,338.27,337.4,336.21,352.5,338.06Z"/><polygon class="cls-6" points="341.68 367.51 341.68 376.71 308.61 354.07 308.61 344.23 341.68 367.51"/><path class="cls-4" d="M393.84,360.46c0,.33,0,.66,0,1,0,.12,0,.23,0,.35a.41.41,0,0,0,0,.11c0,.32-.06.62-.11.93a9.53,9.53,0,0,1-.18,1.09c-.09.47-.2.93-.33,1.39-.09.3-.17.6-.27.89-.17.52-.37,1-.59,1.53a8.53,8.53,0,0,1-.45,1c-.19.39-.39.78-.61,1.16l-49.56-9.41L352.5,331l.13,0,1.65.22c.25,0,.5.07.74.12l1.51.23c.75.13,1.49.26,2.23.41l.8.17c1.38.29,2.74.61,4.08,1,.78.22,1.54.43,2.29.66s1.37.42,2,.65l.48.16c.64.23,1.29.46,1.93.71s1.27.49,1.89.75c1.28.54,2.51,1.11,3.72,1.73.31.14.62.3.91.46.56.29,1.12.6,1.66.91C388.74,345.05,393.84,352.75,393.84,360.46Z"/><path class="cls-6" d="M393.84,360.46V376c0,3.83-.26,8.9-2.72,11l.18-17.08h-.06A18.87,18.87,0,0,0,393.84,360.46Z"/><polygon class="cls-5" points="391.3 369.88 391.12 386.96 375.88 383.19 341.68 376.71 341.68 360.46 391.24 369.87 391.3 369.88"/></g><g id="cloud"><path class="cls-6" d="M322.64,119.48v30.6l-135,78V207.24s16.84-9,30.14-33.23c15-27.29,33.73-50.27,54.08-43.84,19.39,6.16,26.93,12,46-5.89C319.33,122.84,321,121.24,322.64,119.48Z"/><polygon class="cls-5" points="187.6 207.24 187.6 228.05 177.21 222.07 177.21 201.25 187.6 207.24"/><path class="cls-8" d="M322.64,119.48c-1.69,1.76-3.31,3.36-4.83,4.8-19.06,17.91-26.6,12.05-46,5.89-20.35-6.43-39.1,16.55-54.08,43.84-13.3,24.23-30.14,33.23-30.14,33.23l-10.39-6s16.84-9,30.14-33.23c15-27.29,33.73-50.27,54.08-43.82,21,6.64,28.07,12.94,50.82-10.7Z"/></g><g id="cube"><path class="cls-4" d="M137.91,384.88a1.21,1.21,0,0,1-.61-.16L43.2,330.39a1.23,1.23,0,0,1,0-2.12l94.1-54.33a1.23,1.23,0,0,1,1.23,0l94.1,54.33a1.23,1.23,0,0,1,0,2.12l-94.1,54.33A1.25,1.25,0,0,1,137.91,384.88ZM46.27,329.33l91.64,52.91,91.65-52.91-91.65-52.91Z"/><path class="cls-4" d="M137.91,276.23a1.22,1.22,0,0,1-1.22-1.23V166.34a1.23,1.23,0,0,1,2.45,0V275A1.23,1.23,0,0,1,137.91,276.23Z"/><polygon class="cls-3" points="137.91 275 77.06 239.87 137.91 204.74 198.76 239.87 137.91 275"/><polygon class="cls-9" points="198.76 310.13 137.91 345.27 137.91 275 198.76 239.87 198.76 310.13"/><polygon class="cls-2" points="77.06 310.13 137.91 345.27 137.91 275 77.06 239.87 77.06 310.13"/><path class="cls-4" d="M137.91,276.23a1.22,1.22,0,0,1-.61-.17L43.2,221.73a1.23,1.23,0,0,1,0-2.12l94.1-54.33a1.23,1.23,0,0,1,1.23,0l94.1,54.33a1.23,1.23,0,0,1,0,2.12l-94.1,54.33A1.26,1.26,0,0,1,137.91,276.23ZM46.27,220.67l91.64,52.91,91.65-52.91-91.65-52.91Z"/><path class="cls-4" d="M137.91,384.88a1.21,1.21,0,0,1-1.22-1.22V275a1.22,1.22,0,0,1,.61-1.06l94.1-54.33a1.23,1.23,0,0,1,1.84,1.06V329.33a1.22,1.22,0,0,1-.61,1.06l-94.1,54.33A1.25,1.25,0,0,1,137.91,384.88Zm1.23-109.17V381.53l91.65-52.91V222.8ZM232,329.33h0Z"/><path class="cls-4" d="M137.91,384.88a1.21,1.21,0,0,1-.61-.16L43.2,330.39a1.22,1.22,0,0,1-.61-1.06V220.67a1.23,1.23,0,0,1,1.84-1.06l94.1,54.33a1.22,1.22,0,0,1,.61,1.06V383.66a1.22,1.22,0,0,1-.61,1.06A1.25,1.25,0,0,1,137.91,384.88ZM45,328.62l91.65,52.91V275.71L45,222.8Z"/><circle class="cls-4" cx="137.91" cy="166.34" r="5.47"/><circle class="cls-4" cx="232.01" cy="220.67" r="5.47"/><circle class="cls-4" cx="232.01" cy="329.33" r="5.47"/><circle class="cls-4" cx="43.81" cy="220.67" r="5.47"/><circle class="cls-4" cx="43.81" cy="329.33" r="5.47"/><circle class="cls-4" cx="137.91" cy="275" r="5.47"/><circle class="cls-4" cx="137.91" cy="383.66" r="5.47"/></g></g></g></svg>