<svg xmlns="http://www.w3.org/2000/svg" viewBox="0 0 1081.92 750"><defs><style>.cls-1,.cls-11{fill:#f2f3f5;}.cls-1{fill-opacity:0.1;}.cls-2,.cls-3{fill:#fff;}.cls-3{opacity:0.6;}.cls-4{fill:#1c2bf0;}.cls-5,.cls-6{fill:#0954f5;}.cls-6,.cls-9{opacity:0.3;}.cls-7,.cls-8{fill:#09e4a8;}.cls-8{opacity:0.5;}.cls-15,.cls-9{fill:#0a0d35;}.cls-10{fill:#9b9fb9;}.cls-12{fill:#bec1d0;}.cls-13{fill:#009f78;}.cls-14{fill:#1340ff;}.cls-16{fill:#d5d7e0;}.cls-17{fill:#e1e2e8;}</style></defs><g id="Layer_2" data-name="Layer 2"><g id="main-illustration-5"><g id="wires-2"><ellipse class="cls-1" cx="474.83" cy="278.26" rx="11.99" ry="6.92"/><path class="cls-2" d="M474.83,286.7a18.85,18.85,0,0,1-9.23-2.24c-2.75-1.59-4.26-3.79-4.26-6.2s1.51-4.61,4.26-6.19c5.18-3,13.29-3,18.46,0,2.75,1.58,4.27,3.78,4.27,6.19s-1.52,4.61-4.27,6.2A18.85,18.85,0,0,1,474.83,286.7Zm0-13.85a15.91,15.91,0,0,0-7.73,1.82c-1.78,1-2.76,2.3-2.76,3.59s1,2.57,2.76,3.6c4.2,2.41,11.27,2.41,15.46,0,1.78-1,2.76-2.31,2.76-3.6s-1-2.56-2.76-3.59A15.86,15.86,0,0,0,474.83,272.85Z"/><ellipse class="cls-1" cx="525.94" cy="250.26" rx="11.99" ry="6.92"/><path class="cls-2" d="M525.94,258.69a18.74,18.74,0,0,1-9.23-2.24c-2.75-1.59-4.27-3.79-4.27-6.2s1.52-4.6,4.27-6.19c5.17-3,13.28-3,18.46,0,2.75,1.59,4.26,3.79,4.26,6.19s-1.51,4.61-4.26,6.2A18.74,18.74,0,0,1,525.94,258.69Zm0-13.84a15.85,15.85,0,0,0-7.73,1.81c-1.78,1-2.76,2.3-2.76,3.59s1,2.57,2.76,3.6c4.19,2.42,11.27,2.42,15.46,0,1.78-1,2.76-2.31,2.76-3.6s-1-2.56-2.76-3.59A15.91,15.91,0,0,0,525.94,244.85Z"/><ellipse class="cls-1" cx="573.53" cy="270.76" rx="11.99" ry="6.92"/><path class="cls-2" d="M573.53,279.2A18.85,18.85,0,0,1,564.3,277c-2.75-1.59-4.27-3.79-4.27-6.2s1.52-4.61,4.27-6.19c5.18-3,13.29-3,18.46,0,2.75,1.58,4.26,3.78,4.26,6.19s-1.51,4.61-4.26,6.2A18.85,18.85,0,0,1,573.53,279.2Zm0-13.84a15.88,15.88,0,0,0-7.73,1.81c-1.78,1-2.76,2.3-2.76,3.59s1,2.57,2.76,3.6c4.19,2.42,11.27,2.42,15.46,0,1.78-1,2.76-2.31,2.76-3.6s-1-2.56-2.76-3.59A15.88,15.88,0,0,0,573.53,265.36Z"/><path class="cls-3" d="M473.52,356.17l-1.5-2.6,96.45-55.69c2.26-1.3,3.56-3,3.56-4.7V277.69h3v15.49c0,2.79-1.84,5.45-5,7.3Z"/><path class="cls-3" d="M430.67,331.43l-1.5-2.6,40.61-23.45c2.26-1.31,3.55-3,3.55-4.7V285.19h3v15.49c0,2.78-1.85,5.44-5.06,7.3Z"/><path class="cls-2" d="M451.91,343.69l-1.51-2.61,70.48-40.69c2.26-1.3,3.56-3,3.56-4.69V257.18h3V295.7c0,2.78-1.84,5.44-5.05,7.3Z"/><ellipse class="cls-1" cx="592.4" cy="361.13" rx="11.99" ry="6.92"/><path class="cls-2" d="M592.4,369.57a18.82,18.82,0,0,1-9.23-2.24c-2.75-1.59-4.27-3.79-4.27-6.2s1.52-4.61,4.27-6.2c5.17-3,13.28-3,18.46,0,2.75,1.59,4.26,3.79,4.26,6.2s-1.51,4.61-4.26,6.2A18.85,18.85,0,0,1,592.4,369.57Zm0-13.85a15.86,15.86,0,0,0-7.73,1.82c-1.78,1-2.76,2.3-2.76,3.59s1,2.57,2.76,3.6c4.19,2.42,11.26,2.42,15.45,0,1.78-1,2.76-2.31,2.77-3.6s-1-2.56-2.77-3.59A15.84,15.84,0,0,0,592.4,355.72Z"/><ellipse class="cls-1" cx="640.9" cy="331.63" rx="11.99" ry="6.92"/><path class="cls-2" d="M640.91,340.07a18.76,18.76,0,0,1-9.24-2.25c-2.74-1.58-4.26-3.79-4.26-6.2s1.52-4.6,4.26-6.19c5.18-3,13.29-3,18.46,0,2.75,1.59,4.27,3.79,4.27,6.19s-1.52,4.62-4.27,6.2A18.68,18.68,0,0,1,640.91,340.07Zm0-13.85a15.84,15.84,0,0,0-7.72,1.81c-1.78,1-2.77,2.31-2.77,3.59s1,2.57,2.77,3.6c4.19,2.42,11.26,2.42,15.45,0h0c1.78-1,2.76-2.3,2.76-3.6s-1-2.56-2.76-3.59A15.85,15.85,0,0,0,640.9,326.22Z"/><path class="cls-3" d="M516.3,380.87l-1.5-2.61,27.63-15.94a22.51,22.51,0,0,1,11.14-2.69h26.84v3H553.57a19.88,19.88,0,0,0-9.64,2.29Z"/><path class="cls-2" d="M495.07,368.61,493.56,366l57.5-33.19a22.64,22.64,0,0,1,11.14-2.69h66.71v3H562.2a19.91,19.91,0,0,0-9.64,2.28Z"/></g><g id="wires-1"><ellipse class="cls-1" cx="755.19" cy="387.3" rx="11.99" ry="6.92"/><path class="cls-2" d="M755.19,395.73a18.74,18.74,0,0,1-9.23-2.24c-2.75-1.59-4.26-3.79-4.26-6.2s1.51-4.6,4.26-6.19h0c5.17-3,13.28-3,18.46,0,2.75,1.59,4.26,3.79,4.26,6.2s-1.51,4.6-4.26,6.19A18.74,18.74,0,0,1,755.19,395.73Zm-7.73-12c-1.78,1-2.76,2.3-2.76,3.59s1,2.57,2.76,3.6c4.19,2.42,11.27,2.42,15.46,0,1.78-1,2.76-2.31,2.76-3.59s-1-2.57-2.76-3.6c-4.19-2.42-11.27-2.42-15.46,0Z"/><ellipse class="cls-1" cx="802.78" cy="407.8" rx="11.99" ry="6.92"/><path class="cls-2" d="M802.78,416.24a18.85,18.85,0,0,1-9.23-2.24c-2.75-1.59-4.26-3.79-4.26-6.2s1.51-4.61,4.26-6.19c5.17-3,13.28-3,18.46,0,2.75,1.58,4.26,3.78,4.26,6.19s-1.51,4.61-4.26,6.2A18.85,18.85,0,0,1,802.78,416.24Zm0-13.84a15.88,15.88,0,0,0-7.73,1.81c-1.78,1-2.76,2.3-2.76,3.59s1,2.57,2.76,3.6c4.19,2.42,11.27,2.42,15.46,0,1.78-1,2.76-2.31,2.76-3.6s-1-2.56-2.76-3.59A15.88,15.88,0,0,0,802.78,402.4Z"/><ellipse class="cls-1" cx="870.16" cy="468.67" rx="11.99" ry="6.92"/><path class="cls-2" d="M870.16,477.1a18.71,18.71,0,0,1-9.23-2.24c-2.75-1.58-4.27-3.79-4.27-6.2s1.52-4.6,4.27-6.19c5.17-3,13.28-3,18.46,0,2.75,1.59,4.26,3.79,4.26,6.19s-1.51,4.62-4.26,6.2A18.74,18.74,0,0,1,870.16,477.1Zm0-13.84a15.85,15.85,0,0,0-7.73,1.81c-1.78,1-2.76,2.31-2.76,3.59s1,2.57,2.76,3.6c4.19,2.42,11.26,2.42,15.45,0h0c1.78-1,2.77-2.3,2.77-3.6s-1-2.56-2.77-3.59A15.84,15.84,0,0,0,870.16,463.26Z"/><path class="cls-2" d="M724.32,505.65,722.81,503l57.5-33.19a22.67,22.67,0,0,1,11.14-2.69h66.71v3H791.45a19.91,19.91,0,0,0-9.64,2.28Z"/><path class="cls-3" d="M753,514.73l-1.5-2.6L809,478.94a22.64,22.64,0,0,1,11.14-2.69h66.71v3H820.13a19.91,19.91,0,0,0-9.64,2.28Z"/></g><g id="server"><path class="cls-4" d="M767,241.17v40.38a7.86,7.86,0,0,1-4,7L611.22,376.25l-.32.17-.15.07a17.37,17.37,0,0,1-15.58,0l-.15-.07L443.18,288.74a7.9,7.9,0,0,1-3-3,8.25,8.25,0,0,1-1.06-3.88V241.17h62.06l93.65-54.07a16.2,16.2,0,0,1,16.27,0l93.66,54.07Z"/><path class="cls-5" d="M763,247.91,611.22,335.56l-.32.18-.15.07a17.43,17.43,0,0,1-15.58,0l-.15-.07L443.18,248.06a8.14,8.14,0,0,1,0-14.09l151.64-87.55a16.24,16.24,0,0,1,16.29,0L763,234.14A8,8,0,0,1,763,247.91Z"/><path class="cls-6" d="M611.22,335.56v40.69l-.32.17-.15.07a17.37,17.37,0,0,1-15.58,0V335.81a17.43,17.43,0,0,0,15.58,0l.15-.07Z"/><ellipse class="cls-7" cx="706.98" cy="302.53" rx="3.89" ry="2.2" transform="translate(151.79 834.61) rotate(-66.95)"/><ellipse class="cls-8" cx="717.13" cy="296.67" rx="3.89" ry="2.2" transform="translate(163.35 840.38) rotate(-66.95)"/><ellipse class="cls-7" cx="727.28" cy="290.81" rx="3.89" ry="2.2" transform="translate(174.92 846.15) rotate(-66.95)"/><ellipse class="cls-7" cx="737.43" cy="284.95" rx="3.89" ry="2.2" transform="translate(186.49 851.93) rotate(-66.95)"/><ellipse class="cls-8" cx="747.58" cy="279.09" rx="3.89" ry="2.2" transform="translate(198.05 857.7) rotate(-66.95)"/><ellipse class="cls-7" cx="497.52" cy="302.53" rx="2.2" ry="3.9" transform="translate(-78.73 218.96) rotate(-23.05)"/><ellipse class="cls-8" cx="487.37" cy="296.67" rx="2.2" ry="3.9" transform="translate(-77.25 214.52) rotate(-23.05)"/><ellipse class="cls-7" cx="477.22" cy="290.81" rx="2.2" ry="3.9" transform="translate(-75.76 210.08) rotate(-23.05)"/><ellipse class="cls-7" cx="467.07" cy="284.95" rx="2.2" ry="3.9" transform="translate(-74.28 205.63) rotate(-23.05)"/><ellipse class="cls-8" cx="456.92" cy="279.09" rx="2.2" ry="3.9" transform="translate(-72.8 201.19) rotate(-23.05)"/><polygon class="cls-9" points="688.36 315.96 624.94 352.57 624.94 347.25 688.36 310.63 688.36 315.96"/><polygon class="cls-9" points="517.76 315.96 581.18 352.57 581.18 347.25 517.76 310.63 517.76 315.96"/><path class="cls-4" d="M767,169.05v40.39a7.85,7.85,0,0,1-4,7L611.22,304.13l-.32.18-.15.07a17.43,17.43,0,0,1-15.58,0l-.15-.07L443.18,216.62a7.84,7.84,0,0,1-3-3,8.18,8.18,0,0,1-1.06-3.88V169.05h62.06L594.82,115a16.25,16.25,0,0,1,16.27,0l93.66,54.07Z"/><path class="cls-5" d="M763,175.79,611.22,263.45l-.32.18-.15.06a17.37,17.37,0,0,1-15.58,0l-.15-.06L443.18,175.94a8.14,8.14,0,0,1,0-14.09L594.82,74.3a16.29,16.29,0,0,1,16.29,0L763,162A7.94,7.94,0,0,1,763,175.79Z"/><path class="cls-6" d="M611.22,263.45v40.68l-.32.18-.15.07a17.43,17.43,0,0,1-15.58,0V263.69a17.37,17.37,0,0,0,15.58,0l.15-.06Z"/><ellipse class="cls-8" cx="706.98" cy="230.42" rx="3.89" ry="2.2" transform="translate(218.14 790.73) rotate(-66.95)"/><ellipse class="cls-7" cx="717.13" cy="224.56" rx="3.89" ry="2.2" transform="translate(229.71 796.5) rotate(-66.95)"/><ellipse class="cls-8" cx="727.28" cy="218.7" rx="3.89" ry="2.2" transform="translate(241.28 802.28) rotate(-66.95)"/><ellipse class="cls-7" cx="737.43" cy="212.84" rx="3.89" ry="2.2" transform="translate(252.84 808.05) rotate(-66.95)"/><ellipse class="cls-8" cx="747.58" cy="206.98" rx="3.89" ry="2.2" transform="translate(264.41 813.82) rotate(-66.95)"/><ellipse class="cls-8" cx="497.52" cy="230.42" rx="2.2" ry="3.9" transform="translate(-50.5 213.2) rotate(-23.05)"/><ellipse class="cls-7" cx="487.37" cy="224.56" rx="2.2" ry="3.9" transform="translate(-49.01 208.76) rotate(-23.05)"/><ellipse class="cls-7" cx="477.22" cy="218.7" rx="2.2" ry="3.9" transform="translate(-47.53 204.32) rotate(-23.05)"/><ellipse class="cls-8" cx="467.07" cy="212.84" rx="2.2" ry="3.9" transform="translate(-46.04 199.88) rotate(-23.05)"/><ellipse class="cls-7" cx="456.92" cy="206.98" rx="2.2" ry="3.9" transform="translate(-44.56 195.43) rotate(-23.05)"/><polygon class="cls-9" points="688.36 243.84 624.94 280.46 624.94 275.13 688.36 238.52 688.36 243.84"/><polygon class="cls-9" points="517.76 243.84 581.18 280.46 581.18 275.13 517.76 238.52 517.76 243.84"/><path class="cls-4" d="M767,96.94v40.38a7.86,7.86,0,0,1-4,7L611.22,232l-.32.17-.15.07a17.37,17.37,0,0,1-15.58,0l-.15-.07L443.18,144.51a7.9,7.9,0,0,1-3-3,8.22,8.22,0,0,1-1.06-3.88V96.94h62.06l93.65-54.07a16.2,16.2,0,0,1,16.27,0l93.66,54.07Z"/><path class="cls-5" d="M763,103.68,611.22,191.34l-.32.17-.15.07a17.43,17.43,0,0,1-15.58,0l-.15-.07L443.18,103.83a8.14,8.14,0,0,1,0-14.09L594.82,2.19a16.24,16.24,0,0,1,16.29,0L763,89.91A8,8,0,0,1,763,103.68Z"/><path class="cls-6" d="M611.22,191.34V232l-.32.17-.15.07a17.37,17.37,0,0,1-15.58,0V191.58a17.43,17.43,0,0,0,15.58,0l.15-.07Z"/><ellipse class="cls-7" cx="706.98" cy="158.3" rx="3.89" ry="2.2" transform="translate(284.5 746.85) rotate(-66.95)"/><ellipse class="cls-8" cx="717.13" cy="152.44" rx="3.89" ry="2.2" transform="translate(296.07 752.63) rotate(-66.95)"/><ellipse class="cls-7" cx="727.28" cy="146.58" rx="3.89" ry="2.2" transform="translate(307.63 758.4) rotate(-66.95)"/><ellipse class="cls-7" cx="737.43" cy="140.72" rx="3.89" ry="2.2" transform="translate(319.2 764.17) rotate(-66.95)"/><ellipse class="cls-8" cx="747.58" cy="134.86" rx="3.89" ry="2.2" transform="translate(330.77 769.94) rotate(-66.95)"/><ellipse class="cls-7" cx="497.52" cy="158.3" rx="2.2" ry="3.9" transform="translate(-22.26 207.44) rotate(-23.05)"/><ellipse class="cls-8" cx="487.37" cy="152.44" rx="2.2" ry="3.9" transform="translate(-20.78 203) rotate(-23.05)"/><ellipse class="cls-7" cx="477.22" cy="146.58" rx="2.2" ry="3.9" transform="translate(-19.29 198.56) rotate(-23.05)"/><ellipse class="cls-7" cx="467.07" cy="140.72" rx="2.2" ry="3.9" transform="translate(-17.81 194.12) rotate(-23.05)"/><ellipse class="cls-8" cx="456.92" cy="134.86" rx="2.2" ry="3.9" transform="translate(-16.32 189.68) rotate(-23.05)"/><polygon class="cls-9" points="688.36 171.73 624.94 208.34 624.94 203.02 688.36 166.4 688.36 171.73"/><polygon class="cls-9" points="517.76 171.73 581.18 208.34 581.18 203.02 517.76 166.4 517.76 171.73"/><path class="cls-2" d="M524.56,124.09a19.54,19.54,0,0,1-6.65,0,18.7,18.7,0,0,1-6.17-2.23,9.6,9.6,0,0,1-3.85-3.55,4,4,0,0,1,0-3.84,9.38,9.38,0,0,1,3.86-3.6,19.32,19.32,0,0,1,4.08-1.72,18.2,18.2,0,0,1,4.27-.75l1.93,2.85a15.9,15.9,0,0,0-6.32,1.78c-1.51.88-2.19,1.82-2,2.83s1.16,2.06,3,3.15a12.15,12.15,0,0,0,5.46,1.77,8.67,8.67,0,0,0,4.91-1.18,6.33,6.33,0,0,0,3.09-3.64l4.94,1.11a4.81,4.81,0,0,1-1.31,2.46,11.49,11.49,0,0,1-3,2.36A18.36,18.36,0,0,1,524.56,124.09Z"/><path class="cls-2" d="M541.55,115.38l-18.62-10.75,4.86-2.8,14.68,8.48,7.92-4.58,3.94,2.27Z"/><path class="cls-2" d="M560.64,103.28a19.33,19.33,0,0,1-6.57-.06,18.91,18.91,0,0,1-6.19-2.26A10,10,0,0,1,544,97.39a3.91,3.91,0,0,1-.07-3.78,9,9,0,0,1,3.78-3.53,18,18,0,0,1,6.12-2.19,19.06,19.06,0,0,1,12.71,2.33,9.82,9.82,0,0,1,3.92,3.57,4,4,0,0,1,.09,3.79,9,9,0,0,1-3.75,3.52A17.93,17.93,0,0,1,560.64,103.28Zm4.21-7.1q-.32-1.55-3.16-3.19a12.58,12.58,0,0,0-5.53-1.81,8.3,8.3,0,0,0-4.76,1c-1.41.81-2,1.73-1.84,2.75s1.24,2.08,3.16,3.19a12.62,12.62,0,0,0,5.54,1.83A8.34,8.34,0,0,0,563,99C564.44,98.14,565.05,97.21,564.85,96.18Z"/><path class="cls-2" d="M581,90.51a15.87,15.87,0,0,1-8.12-2.26L562.09,82l4.75-2.74,11,6.32a8.87,8.87,0,0,0,4,1.27,6.49,6.49,0,0,0,3.67-.87c1.13-.65,1.63-1.36,1.51-2.12s-.86-1.53-2.19-2.3l-11-6.33,4.78-2.76,10.77,6.22c2.62,1.52,3.92,3.08,3.88,4.7s-1.39,3.19-4.06,4.74A16.44,16.44,0,0,1,581,90.51Z"/><path class="cls-2" d="M584,69.39,591.55,65A20.57,20.57,0,0,1,598,62.59a19,19,0,0,1,6.63-.12,18,18,0,0,1,6.16,2.18,9.17,9.17,0,0,1,3.83,3.57,3.82,3.82,0,0,1-.2,3.82,11.23,11.23,0,0,1-4.24,3.72l-7.57,4.38Zm21.93,4.32c1.83-1.06,2.75-2.11,2.75-3.14s-.91-2.08-2.72-3.13a10.77,10.77,0,0,0-5.4-1.56,11,11,0,0,0-5.42,1.59l-2.38,1.38,10.8,6.23Z"/><path class="cls-2" d="M559.92,146.08a22.66,22.66,0,0,1-4.78,1l-1.93-2.85a24.85,24.85,0,0,0,4.17-.92,17.39,17.39,0,0,0,3.54-1.52,5.31,5.31,0,0,0,2-1.65.8.8,0,0,0-.4-1.19,2.94,2.94,0,0,0-1.91-.23,20,20,0,0,0-3.76,1.13,32.68,32.68,0,0,1-5.42,1.6,11.5,11.5,0,0,1-3.86.16,8.92,8.92,0,0,1-3.13-1.12,4.16,4.16,0,0,1-2.11-2.33,3.23,3.23,0,0,1,.58-2.81,9.67,9.67,0,0,1,3.24-2.77,22.29,22.29,0,0,1,4.46-1.92,17.79,17.79,0,0,1,4.41-.85l2,2.83a18.15,18.15,0,0,0-7.08,2.07,3.66,3.66,0,0,0-1.65,1.55,1,1,0,0,0,.54,1.26,2.36,2.36,0,0,0,1.11.3,6.54,6.54,0,0,0,1.71-.26,29.49,29.49,0,0,0,3-1,31.41,31.41,0,0,1,5.32-1.53,12.3,12.3,0,0,1,3.86-.15,8.78,8.78,0,0,1,3.07,1.07q2.75,1.59,2.17,3.7T564.59,144A25.31,25.31,0,0,1,559.92,146.08Z"/><path class="cls-2" d="M581.06,134.23l-14.68-8.47L560.81,129l-3.93-2.27,16-9.27,3.93,2.27-5.57,3.22L586,131.4Z"/><path class="cls-2" d="M597.59,123.61a19.53,19.53,0,0,1-6.56-.06,18.82,18.82,0,0,1-6.19-2.26,9.82,9.82,0,0,1-3.92-3.57,3.88,3.88,0,0,1-.08-3.78,9,9,0,0,1,3.79-3.53,17.9,17.9,0,0,1,6.11-2.19,19.1,19.1,0,0,1,6.53,0,19.34,19.34,0,0,1,6.18,2.27,9.83,9.83,0,0,1,3.92,3.58,3.93,3.93,0,0,1,.09,3.79,8.89,8.89,0,0,1-3.75,3.52A17.93,17.93,0,0,1,597.59,123.61Zm4.21-7.1q-.3-1.55-3.15-3.19a12.66,12.66,0,0,0-5.54-1.81,8.32,8.32,0,0,0-4.76,1c-1.41.81-2,1.73-1.84,2.75s1.24,2.08,3.16,3.19a12.66,12.66,0,0,0,5.54,1.83,8.34,8.34,0,0,0,4.78-1C601.4,118.46,602,117.54,601.8,116.51Z"/><path class="cls-2" d="M634.5,103.38l-5.33,3.08L620,104.89a4.42,4.42,0,0,0-3,.52l-1.48.85,7,4L617.76,113,599.15,102.3,608,97.18a14.32,14.32,0,0,1,6.54-2.09,10.68,10.68,0,0,1,5.94,1.46,4.41,4.41,0,0,1,2.42,2.74,3.25,3.25,0,0,1-1.31,3,9,9,0,0,1,4.65-.27Zm-17.44-2.77c.13-.46-.18-.91-.94-1.35a4,4,0,0,0-2.37-.56,7.1,7.1,0,0,0-2.83,1l-3.38,2,4.33,2.5,3.38-2C616.32,101.62,616.93,101.08,617.06,100.61Z"/><path class="cls-2" d="M652.42,93l-5.51-1.27-8.24,4.76,2.19,3.19L636,102.53l-9.93-15.76,3.85-2.23,27.33,5.72Zm-15.84.49,5.13-3-8.53-2Z"/><path class="cls-2" d="M665.92,73.11l9.32,5.38A11.48,11.48,0,0,1,673,81a21.33,21.33,0,0,1-3.4,2.4,19.93,19.93,0,0,1-6.42,2.37,19.21,19.21,0,0,1-6.72.07,18.61,18.61,0,0,1-6.3-2.26A9.41,9.41,0,0,1,646.3,80a4,4,0,0,1,0-3.86,9.79,9.79,0,0,1,3.95-3.62,21.38,21.38,0,0,1,4.34-1.9,17.77,17.77,0,0,1,4.34-.83l1.93,2.85a22.2,22.2,0,0,0-3.7.73,14,14,0,0,0-2.9,1.25q-2.5,1.45-2.34,3c.12,1,1.14,2.07,3.08,3.19a12.25,12.25,0,0,0,5.7,1.81,9.9,9.9,0,0,0,5.36-1.43,13.35,13.35,0,0,0,2.24-1.6l-3.45-2-3.28,1.89-3.32-1.92Z"/><path class="cls-2" d="M681.7,76.13,663.09,65.38l13.23-7.64,3.75,2.17-8.5,4.91,3.53,2,8-4.6,3.72,2.15-8,4.6,3.85,2.22,8.5-4.91,3.75,2.17Z"/></g><g id="ssd"><g id="bed"><path class="cls-10" d="M558.36,691.69V676.84H528.45v13.83L0,385.69v37.9c0,8.5,5.17,18.37,11.54,22.05l499,288h0l11.71,6.75,10.48,6,0,0,1.52.88a20,20,0,0,0,20,0l4.32-2.49.1-.05L806.76,601.56c8-4.6,14.43-16.94,14.43-27.56V539.94Z"/><path class="cls-11" d="M791.07,610.62l-146.6,84.64V677c0-8.5,5.16-18.37,11.54-22.05l123.52-71.32c6.37-3.68,11.54.23,11.54,8.73Z"/><path class="cls-10" d="M674.5,654.61h0c-2.39,1.38-4.33,5.08-4.33,8.26v17.55l8.66-5V657.88C678.83,654.69,676.89,653.23,674.5,654.61Z"/><path class="cls-10" d="M691.81,644.61h0c-2.39,1.38-4.33,5.08-4.33,8.27v17.55l8.65-5V647.88C696.13,644.7,694.2,643.23,691.81,644.61Z"/><path class="cls-10" d="M709.11,634.62h0c-2.38,1.38-4.32,5.08-4.32,8.27v17.54l8.65-5V637.89C713.44,634.71,711.5,633.24,709.11,634.62Z"/><path class="cls-10" d="M726.42,624.63h0c-2.39,1.38-4.33,5.08-4.33,8.27v17.54l8.66-5V627.9C730.75,624.71,728.81,623.25,726.42,624.63Z"/><path class="cls-10" d="M743.73,614.64h0c-2.39,1.38-4.33,5.08-4.33,8.26v17.55l8.66-5V617.91C748.06,614.72,746.12,613.26,743.73,614.64Z"/><path class="cls-10" d="M761,604.65h0c-2.39,1.37-4.33,5.08-4.33,8.26v17.55l8.65-5V607.92C765.36,604.73,763.42,603.27,761,604.65Z"/><path class="cls-2" d="M567.39,723.48a6.61,6.61,0,0,1-3.29.2l1.5-4.82a7.67,7.67,0,0,0,2.87-.17,11.62,11.62,0,0,0,3.08-1.27,9.25,9.25,0,0,0,2.42-1.89,3,3,0,0,0,.83-1.9.79.79,0,0,0-.75-.9,8.23,8.23,0,0,0-2.86.62,13.35,13.35,0,0,1-4.09.83,2.41,2.41,0,0,1-2.07-.87,4.58,4.58,0,0,1-.59-2.58,9.9,9.9,0,0,1,1-4.1,15.56,15.56,0,0,1,2.71-4,17.2,17.2,0,0,1,4-3.22,14.39,14.39,0,0,1,3.89-1.59,5,5,0,0,1,2.94,0l-1.47,4.8a7.38,7.38,0,0,0-5.33,1.07,7.16,7.16,0,0,0-2.16,1.84,3.43,3.43,0,0,0-.82,2,.89.89,0,0,0,.29.78,1.68,1.68,0,0,0,1.08.09,13.18,13.18,0,0,0,2.35-.64,12.12,12.12,0,0,1,4-.76,2.51,2.51,0,0,1,2.06.9,4.24,4.24,0,0,1,.6,2.48,10.56,10.56,0,0,1-2.11,6.16,18.12,18.12,0,0,1-5.93,5.21A16.66,16.66,0,0,1,567.39,723.48Z"/><path class="cls-2" d="M588.59,711.24a6.54,6.54,0,0,1-3.3.2l1.5-4.82a7.72,7.72,0,0,0,2.88-.17,11.71,11.71,0,0,0,3.08-1.26,9.06,9.06,0,0,0,2.42-1.9,3,3,0,0,0,.82-1.89.79.79,0,0,0-.75-.91,8.27,8.27,0,0,0-2.86.62,13.3,13.3,0,0,1-4.08.83,2.41,2.41,0,0,1-2.07-.87,4.47,4.47,0,0,1-.6-2.58,9.77,9.77,0,0,1,1-4.1,15.31,15.31,0,0,1,2.71-4,17.2,17.2,0,0,1,4-3.22,14.27,14.27,0,0,1,3.89-1.59,5,5,0,0,1,2.94,0l-1.48,4.81a7.31,7.31,0,0,0-5.32,1.06,7.16,7.16,0,0,0-2.16,1.84,3.37,3.37,0,0,0-.82,2,.86.86,0,0,0,.29.78,1.68,1.68,0,0,0,1.08.09,13.18,13.18,0,0,0,2.35-.64,12.07,12.07,0,0,1,4-.76,2.49,2.49,0,0,1,2,.9,4.16,4.16,0,0,1,.61,2.48,10.56,10.56,0,0,1-2.11,6.16,18.23,18.23,0,0,1-5.93,5.21A16.66,16.66,0,0,1,588.59,711.24Z"/><path class="cls-2" d="M607.17,679.42l7.57-4.37a11.16,11.16,0,0,1,5.31-1.79,3.87,3.87,0,0,1,3.41,1.73,9,9,0,0,1,1.19,5,18.14,18.14,0,0,1-1.17,6.45,18.8,18.8,0,0,1-3.41,5.66,20.71,20.71,0,0,1-5.33,4.36l-7.57,4.37Zm7.22,12.78a10.8,10.8,0,0,0,4.09-3.91,10.68,10.68,0,0,0,1.34-5.46c0-2.09-.44-3.39-1.34-3.9s-2.26-.23-4.09.82L612,681.12v12.45Z"/><path class="cls-2" d="M0,385.58,276.91,225.71,821.19,540,557.6,692.13a26.65,26.65,0,0,1-26.65,0Z"/></g><g id="keyboard"><path class="cls-12" d="M616.19,531.77a5.32,5.32,0,0,0-2.69-4.7l-55-31.73a13.6,13.6,0,0,0-13.55,0l-55,31.73a5.38,5.38,0,0,0-2.71,4.69v12a5.38,5.38,0,0,0,2.71,4.69l55,31.73a13.6,13.6,0,0,0,13.55,0l55-31.73a5.32,5.32,0,0,0,2.69-4.7h0v-12Z"/><path class="cls-11" d="M616.19,531.77a5.35,5.35,0,0,1-2.69,4.69l-2.09,1.21-52.87,30.52a13.55,13.55,0,0,1-13.55,0l-52.87-30.52L490,536.46a5.42,5.42,0,0,1,0-9.39l55-31.73a13.6,13.6,0,0,1,13.55,0l55,31.73A5.32,5.32,0,0,1,616.19,531.77Z"/><path class="cls-13" d="M654.28,518.09a1.36,1.36,0,0,0-.67-1.17L640,509.06a3.36,3.36,0,0,0-3.36,0L623,516.92a1.36,1.36,0,0,0-.67,1.17v6a1.34,1.34,0,0,0,.67,1.16l13.63,7.87a3.41,3.41,0,0,0,3.36,0l13.63-7.87a1.35,1.35,0,0,0,.67-1.17h0v-6Z"/><path class="cls-7" d="M654.28,518.09a1.34,1.34,0,0,1-.67,1.16l-.52.3L640,527.12a3.36,3.36,0,0,1-3.36,0l-13.11-7.57-.52-.3a1.34,1.34,0,0,1-.67-1.16,1.36,1.36,0,0,1,.67-1.17l13.63-7.86a3.36,3.36,0,0,1,3.36,0l13.63,7.86A1.36,1.36,0,0,1,654.28,518.09Z"/><path class="cls-12" d="M596.57,484.88a1.33,1.33,0,0,0-.67-1.17l-13.63-7.87a3.41,3.41,0,0,0-3.36,0l-13.62,7.87a1.33,1.33,0,0,0-.68,1.16v6a1.35,1.35,0,0,0,.68,1.17l13.62,7.86a3.36,3.36,0,0,0,3.36,0l13.63-7.86a1.34,1.34,0,0,0,.67-1.17h0v-6Z"/><path class="cls-11" d="M596.57,484.88a1.32,1.32,0,0,1-.67,1.16l-.52.3-13.11,7.57a3.36,3.36,0,0,1-3.36,0l-13.11-7.57-.51-.3a1.34,1.34,0,0,1,0-2.33l13.62-7.87a3.41,3.41,0,0,1,3.36,0l13.63,7.87A1.33,1.33,0,0,1,596.57,484.88Z"/><path class="cls-12" d="M625.31,501.34a1.31,1.31,0,0,0-.67-1.16L611,492.31a3.36,3.36,0,0,0-3.36,0L594,500.18a1.32,1.32,0,0,0-.68,1.16v6a1.33,1.33,0,0,0,.68,1.16l13.62,7.87a3.36,3.36,0,0,0,3.36,0l13.63-7.87a1.33,1.33,0,0,0,.67-1.17h0v-6Z"/><path class="cls-11" d="M625.31,501.34a1.33,1.33,0,0,1-.67,1.17l-.52.29L611,510.37a3.36,3.36,0,0,1-3.36,0l-13.11-7.57-.51-.29a1.35,1.35,0,0,1-.68-1.17,1.32,1.32,0,0,1,.68-1.16l13.62-7.87a3.36,3.36,0,0,1,3.36,0l13.63,7.87A1.31,1.31,0,0,1,625.31,501.34Z"/><path class="cls-12" d="M682.64,501.48a1.34,1.34,0,0,0-.67-1.16l-13.63-7.87a3.36,3.36,0,0,0-3.36,0l-13.63,7.87a1.34,1.34,0,0,0-.67,1.16v6a1.34,1.34,0,0,0,.67,1.16L665,516.55a3.36,3.36,0,0,0,3.36,0L682,508.68a1.34,1.34,0,0,0,.67-1.16h0v-6Z"/><path class="cls-11" d="M682.64,501.48a1.35,1.35,0,0,1-.67,1.17l-.52.3-13.11,7.56a3.31,3.31,0,0,1-3.36,0L651.87,503l-.52-.3a1.36,1.36,0,0,1-.67-1.17,1.34,1.34,0,0,1,.67-1.16L665,492.45a3.36,3.36,0,0,1,3.36,0L682,500.32A1.34,1.34,0,0,1,682.64,501.48Z"/><path class="cls-12" d="M624.93,468.27a1.34,1.34,0,0,0-.67-1.17l-13.63-7.86a3.36,3.36,0,0,0-3.36,0l-13.62,7.86a1.35,1.35,0,0,0-.68,1.17v6a1.33,1.33,0,0,0,.68,1.16l13.62,7.87a3.36,3.36,0,0,0,3.36,0l13.63-7.87a1.33,1.33,0,0,0,.67-1.17h0v-6Z"/><path class="cls-11" d="M624.93,468.27a1.3,1.3,0,0,1-.67,1.16l-.52.3-13.11,7.57a3.36,3.36,0,0,1-3.36,0l-13.11-7.57-.51-.3a1.32,1.32,0,0,1-.68-1.16,1.35,1.35,0,0,1,.68-1.17l13.62-7.86a3.36,3.36,0,0,1,3.36,0l13.63,7.86A1.34,1.34,0,0,1,624.93,468.27Z"/><path class="cls-12" d="M653.67,484.74a1.33,1.33,0,0,0-.67-1.17l-13.62-7.87a3.38,3.38,0,0,0-3.37,0l-13.62,7.87a1.32,1.32,0,0,0-.67,1.16v6a1.34,1.34,0,0,0,.67,1.17L636,499.8a3.38,3.38,0,0,0,3.37,0L653,491.94a1.34,1.34,0,0,0,.67-1.17h0v-6Z"/><path class="cls-11" d="M653.67,484.74a1.32,1.32,0,0,1-.67,1.16l-.52.3-13.1,7.57a3.38,3.38,0,0,1-3.37,0l-13.1-7.57-.52-.3a1.35,1.35,0,0,1,0-2.33L636,475.7a3.38,3.38,0,0,1,3.37,0L653,483.57A1.33,1.33,0,0,1,653.67,484.74Z"/><path class="cls-12" d="M507,603.35a1.32,1.32,0,0,0-.67-1.16l-13.62-7.87a3.38,3.38,0,0,0-3.37,0l-13.62,7.87a1.32,1.32,0,0,0-.67,1.16v6a1.32,1.32,0,0,0,.67,1.16l13.62,7.87a3.38,3.38,0,0,0,3.37,0l13.62-7.87a1.32,1.32,0,0,0,.67-1.16h0v-6Z"/><path class="cls-11" d="M507,603.35a1.33,1.33,0,0,1-.67,1.17l-.52.3-13.1,7.56a3.38,3.38,0,0,1-3.37,0l-13.1-7.56-.52-.3a1.34,1.34,0,0,1-.67-1.17,1.32,1.32,0,0,1,.67-1.16l13.62-7.87a3.38,3.38,0,0,1,3.37,0l13.62,7.87A1.32,1.32,0,0,1,507,603.35Z"/><path class="cls-12" d="M449.3,570.14a1.32,1.32,0,0,0-.67-1.17L435,561.11a3.36,3.36,0,0,0-3.36,0L418,569a1.34,1.34,0,0,0-.67,1.17v6a1.32,1.32,0,0,0,.67,1.16l13.63,7.87a3.36,3.36,0,0,0,3.36,0l13.62-7.87a1.31,1.31,0,0,0,.67-1.17h0v-6Z"/><path class="cls-11" d="M449.3,570.14a1.31,1.31,0,0,1-.67,1.16l-.51.3L435,579.17a3.36,3.36,0,0,1-3.36,0l-13.11-7.57-.52-.3a1.31,1.31,0,0,1-.67-1.16A1.34,1.34,0,0,1,418,569l13.63-7.86a3.36,3.36,0,0,1,3.36,0L448.63,569A1.32,1.32,0,0,1,449.3,570.14Z"/><path class="cls-13" d="M478,586.61a1.32,1.32,0,0,0-.66-1.17l-13.63-7.87a3.36,3.36,0,0,0-3.36,0l-13.63,7.87a1.32,1.32,0,0,0-.67,1.16v6a1.34,1.34,0,0,0,.67,1.17l13.63,7.86a3.36,3.36,0,0,0,3.36,0l13.63-7.86a1.33,1.33,0,0,0,.66-1.17h0v-6Z"/><path class="cls-7" d="M478,586.61a1.33,1.33,0,0,1-.66,1.16l-.52.3-13.11,7.57a3.36,3.36,0,0,1-3.36,0l-13.11-7.57-.52-.3a1.35,1.35,0,0,1,0-2.33l13.63-7.87a3.36,3.36,0,0,1,3.36,0l13.63,7.87A1.32,1.32,0,0,1,478,586.61Z"/><path class="cls-12" d="M535.37,586.75a1.31,1.31,0,0,0-.67-1.17l-13.62-7.87a3.38,3.38,0,0,0-3.37,0l-13.62,7.87a1.32,1.32,0,0,0-.67,1.16v6a1.34,1.34,0,0,0,.67,1.17l13.62,7.86a3.38,3.38,0,0,0,3.37,0L534.7,594a1.32,1.32,0,0,0,.67-1.17h0v-6Z"/><path class="cls-11" d="M535.37,586.75a1.32,1.32,0,0,1-.67,1.16l-.51.3-13.11,7.57a3.38,3.38,0,0,1-3.37,0l-13.1-7.57-.52-.3a1.35,1.35,0,0,1,0-2.33l13.62-7.87a3.38,3.38,0,0,1,3.37,0l13.62,7.87A1.31,1.31,0,0,1,535.37,586.75Z"/><path class="cls-12" d="M600.42,586.75a1.31,1.31,0,0,0-.67-1.17l-13.62-7.87a3.36,3.36,0,0,0-3.36,0l-13.63,7.87a1.32,1.32,0,0,0-.67,1.16v6a1.34,1.34,0,0,0,.67,1.17l13.63,7.86a3.36,3.36,0,0,0,3.36,0L599.75,594a1.32,1.32,0,0,0,.67-1.17h0v-6Z"/><path class="cls-11" d="M600.42,586.75a1.32,1.32,0,0,1-.67,1.16l-.51.3-13.11,7.57a3.36,3.36,0,0,1-3.36,0l-13.11-7.57-.52-.3a1.35,1.35,0,0,1,0-2.33l13.63-7.87a3.36,3.36,0,0,1,3.36,0l13.62,7.87A1.31,1.31,0,0,1,600.42,586.75Z"/><path class="cls-12" d="M567.75,603.15a1.32,1.32,0,0,0-.67-1.16l-13.62-7.87a3.38,3.38,0,0,0-3.37,0L536.47,602a1.32,1.32,0,0,0-.67,1.16v6a1.32,1.32,0,0,0,.67,1.16l13.62,7.87a3.38,3.38,0,0,0,3.37,0l13.62-7.87a1.32,1.32,0,0,0,.67-1.16h0v-6Z"/><path class="cls-11" d="M567.75,603.15a1.33,1.33,0,0,1-.67,1.17l-.52.3-13.1,7.56a3.33,3.33,0,0,1-3.37,0L537,604.62l-.52-.3a1.34,1.34,0,0,1-.67-1.17,1.32,1.32,0,0,1,.67-1.16l13.62-7.87a3.38,3.38,0,0,1,3.37,0L567.08,602A1.32,1.32,0,0,1,567.75,603.15Z"/><path class="cls-12" d="M598.41,620.75a1.32,1.32,0,0,0-.67-1.16l-13.63-7.87a3.36,3.36,0,0,0-3.36,0l-13.63,7.87a1.34,1.34,0,0,0-.67,1.16v6a1.34,1.34,0,0,0,.67,1.16l13.63,7.87a3.36,3.36,0,0,0,3.36,0L597.74,628a1.32,1.32,0,0,0,.67-1.16h0v-6Z"/><path class="cls-11" d="M598.41,620.75a1.33,1.33,0,0,1-.67,1.17l-.52.3-13.11,7.56a3.36,3.36,0,0,1-3.36,0l-13.11-7.56-.52-.3a1.36,1.36,0,0,1-.67-1.17,1.34,1.34,0,0,1,.67-1.16l13.63-7.87a3.36,3.36,0,0,1,3.36,0l13.63,7.87A1.32,1.32,0,0,1,598.41,620.75Z"/><path class="cls-12" d="M536.76,620.75a1.3,1.3,0,0,0-.67-1.16l-13.62-7.87a3.36,3.36,0,0,0-3.36,0l-13.63,7.87a1.32,1.32,0,0,0-.67,1.16v6a1.32,1.32,0,0,0,.67,1.16l13.63,7.87a3.36,3.36,0,0,0,3.36,0L536.09,628a1.3,1.3,0,0,0,.67-1.16h0v-6Z"/><path class="cls-11" d="M536.76,620.75a1.33,1.33,0,0,1-.67,1.17l-.51.3-13.11,7.56a3.36,3.36,0,0,1-3.36,0L506,622.22l-.52-.3a1.34,1.34,0,0,1-.67-1.17,1.32,1.32,0,0,1,.67-1.16l13.63-7.87a3.36,3.36,0,0,1,3.36,0l13.62,7.87A1.3,1.3,0,0,1,536.76,620.75Z"/><path class="cls-12" d="M567.75,638.48a1.32,1.32,0,0,0-.67-1.16l-13.62-7.87a3.38,3.38,0,0,0-3.37,0l-13.62,7.87a1.32,1.32,0,0,0-.67,1.16v6a1.32,1.32,0,0,0,.67,1.16l13.62,7.87a3.38,3.38,0,0,0,3.37,0l13.62-7.87a1.32,1.32,0,0,0,.67-1.16h0v-6Z"/><path class="cls-11" d="M567.75,638.48a1.33,1.33,0,0,1-.67,1.17l-.52.3-13.1,7.56a3.38,3.38,0,0,1-3.37,0L537,640l-.52-.3a1.34,1.34,0,0,1-.67-1.17,1.32,1.32,0,0,1,.67-1.16l13.62-7.87a3.38,3.38,0,0,1,3.37,0l13.62,7.87A1.32,1.32,0,0,1,567.75,638.48Z"/><path class="cls-12" d="M713.63,518.57a1.34,1.34,0,0,0-.67-1.16l-13.63-7.87a3.36,3.36,0,0,0-3.36,0l-13.63,7.87a1.34,1.34,0,0,0-.67,1.16v6a1.34,1.34,0,0,0,.67,1.16L696,533.64a3.36,3.36,0,0,0,3.36,0L713,525.77a1.34,1.34,0,0,0,.67-1.16h0v-6Z"/><path class="cls-11" d="M713.63,518.57a1.35,1.35,0,0,1-.67,1.17l-.52.3-13.11,7.56a3.31,3.31,0,0,1-3.36,0L682.86,520l-.52-.3a1.36,1.36,0,0,1-.67-1.17,1.34,1.34,0,0,1,.67-1.16L696,509.54a3.36,3.36,0,0,1,3.36,0L713,517.41A1.34,1.34,0,0,1,713.63,518.57Z"/><path class="cls-13" d="M744.28,536.17a1.32,1.32,0,0,0-.67-1.16L730,527.14a3.38,3.38,0,0,0-3.37,0L713,535a1.32,1.32,0,0,0-.67,1.16v6a1.32,1.32,0,0,0,.67,1.16l13.62,7.87a3.38,3.38,0,0,0,3.37,0l13.62-7.87a1.32,1.32,0,0,0,.67-1.16h0v-6Z"/><path class="cls-7" d="M744.28,536.17a1.33,1.33,0,0,1-.67,1.17l-.52.3L730,545.2a3.33,3.33,0,0,1-3.37,0l-13.1-7.56-.52-.3a1.34,1.34,0,0,1-.67-1.17A1.32,1.32,0,0,1,713,535l13.62-7.87a3.38,3.38,0,0,1,3.37,0L743.61,535A1.32,1.32,0,0,1,744.28,536.17Z"/><path class="cls-12" d="M682.64,536.17A1.34,1.34,0,0,0,682,535l-13.63-7.87a3.36,3.36,0,0,0-3.36,0L651.35,535a1.34,1.34,0,0,0-.67,1.16v6a1.34,1.34,0,0,0,.67,1.16L665,551.24a3.36,3.36,0,0,0,3.36,0L682,543.37a1.34,1.34,0,0,0,.67-1.16h0v-6Z"/><path class="cls-11" d="M682.64,536.17a1.35,1.35,0,0,1-.67,1.17l-.52.3-13.11,7.56a3.31,3.31,0,0,1-3.36,0l-13.11-7.56-.52-.3a1.36,1.36,0,0,1-.67-1.17,1.34,1.34,0,0,1,.67-1.16L665,527.14a3.36,3.36,0,0,1,3.36,0L682,535A1.34,1.34,0,0,1,682.64,536.17Z"/><path class="cls-12" d="M713.63,553.9a1.34,1.34,0,0,0-.67-1.16l-13.63-7.87a3.36,3.36,0,0,0-3.36,0l-13.63,7.87a1.34,1.34,0,0,0-.67,1.16v6a1.34,1.34,0,0,0,.67,1.16L696,569a3.36,3.36,0,0,0,3.36,0L713,561.1a1.34,1.34,0,0,0,.67-1.16h0v-6Z"/><path class="cls-11" d="M713.63,553.9a1.35,1.35,0,0,1-.67,1.17l-.52.3-13.11,7.56a3.31,3.31,0,0,1-3.36,0l-13.11-7.56-.52-.3a1.36,1.36,0,0,1-.67-1.17,1.34,1.34,0,0,1,.67-1.16L696,544.87a3.36,3.36,0,0,1,3.36,0L713,552.74A1.34,1.34,0,0,1,713.63,553.9Z"/><path class="cls-12" d="M566.36,431.33a1.33,1.33,0,0,0-.67-1.17l-13.62-7.87a3.38,3.38,0,0,0-3.37,0l-13.62,7.87a1.33,1.33,0,0,0-.68,1.16v6a1.35,1.35,0,0,0,.68,1.17l13.62,7.86a3.38,3.38,0,0,0,3.37,0l13.62-7.86a1.34,1.34,0,0,0,.67-1.17h0v-6Z"/><path class="cls-11" d="M566.36,431.33a1.32,1.32,0,0,1-.67,1.16l-.52.3-13.1,7.57a3.38,3.38,0,0,1-3.37,0l-13.11-7.57-.51-.3a1.34,1.34,0,0,1,0-2.33l13.62-7.87a3.38,3.38,0,0,1,3.37,0l13.62,7.87A1.33,1.33,0,0,1,566.36,431.33Z"/><path class="cls-12" d="M597,448.92a1.34,1.34,0,0,0-.67-1.16l-13.63-7.87a3.36,3.36,0,0,0-3.36,0l-13.63,7.87a1.34,1.34,0,0,0-.67,1.16v6a1.33,1.33,0,0,0,.67,1.16L579.36,464a3.36,3.36,0,0,0,3.36,0l13.63-7.87A1.33,1.33,0,0,0,597,455h0v-6Z"/><path class="cls-11" d="M597,448.92a1.35,1.35,0,0,1-.67,1.17l-.52.3L582.72,458a3.31,3.31,0,0,1-3.36,0l-13.11-7.56-.52-.3a1.35,1.35,0,0,1,0-2.33l13.63-7.87a3.36,3.36,0,0,1,3.36,0l13.63,7.87A1.34,1.34,0,0,1,597,448.92Z"/><path class="cls-12" d="M535.37,448.92a1.3,1.3,0,0,0-.67-1.16l-13.62-7.87a3.38,3.38,0,0,0-3.37,0l-13.62,7.87a1.32,1.32,0,0,0-.67,1.16v6a1.31,1.31,0,0,0,.67,1.16L517.71,464a3.38,3.38,0,0,0,3.37,0l13.62-7.87a1.29,1.29,0,0,0,.67-1.16h0v-6Z"/><path class="cls-11" d="M535.37,448.92a1.33,1.33,0,0,1-.67,1.17l-.51.3L521.08,458a3.33,3.33,0,0,1-3.37,0l-13.1-7.56-.52-.3a1.35,1.35,0,0,1,0-2.33l13.62-7.87a3.38,3.38,0,0,1,3.37,0l13.62,7.87A1.3,1.3,0,0,1,535.37,448.92Z"/><path class="cls-12" d="M566.36,466.65a1.32,1.32,0,0,0-.67-1.16l-13.62-7.87a3.38,3.38,0,0,0-3.37,0l-13.62,7.87a1.33,1.33,0,0,0-.68,1.16v6a1.32,1.32,0,0,0,.68,1.16l13.62,7.87a3.38,3.38,0,0,0,3.37,0l13.62-7.87a1.31,1.31,0,0,0,.67-1.16h0v-6Z"/><path class="cls-11" d="M566.36,466.65a1.33,1.33,0,0,1-.67,1.17l-.52.3-13.1,7.56a3.33,3.33,0,0,1-3.37,0l-13.11-7.56-.51-.3a1.34,1.34,0,0,1,0-2.33l13.62-7.87a3.38,3.38,0,0,1,3.37,0l13.62,7.87A1.32,1.32,0,0,1,566.36,466.65Z"/><path class="cls-13" d="M419.11,517.42a1.34,1.34,0,0,0-.67-1.17l-13.63-7.86a3.36,3.36,0,0,0-3.36,0l-13.63,7.86a1.36,1.36,0,0,0-.67,1.17v6a1.34,1.34,0,0,0,.67,1.16l13.63,7.87a3.41,3.41,0,0,0,3.36,0l13.63-7.87a1.33,1.33,0,0,0,.67-1.17h0v-6Z"/><path class="cls-7" d="M419.11,517.42a1.32,1.32,0,0,1-.67,1.16l-.52.3-13.11,7.57a3.36,3.36,0,0,1-3.36,0l-13.11-7.57-.52-.3a1.34,1.34,0,0,1-.67-1.16,1.36,1.36,0,0,1,.67-1.17l13.63-7.86a3.36,3.36,0,0,1,3.36,0l13.63,7.86A1.34,1.34,0,0,1,419.11,517.42Z"/><path class="cls-12" d="M449.76,535a1.31,1.31,0,0,0-.67-1.17L435.47,526a3.36,3.36,0,0,0-3.36,0l-13.63,7.86a1.33,1.33,0,0,0-.67,1.17v6a1.32,1.32,0,0,0,.67,1.16l13.63,7.87a3.41,3.41,0,0,0,3.36,0l13.62-7.87a1.31,1.31,0,0,0,.67-1.17h0v-6Z"/><path class="cls-11" d="M449.76,535a1.32,1.32,0,0,1-.67,1.16l-.51.3-13.11,7.57a3.36,3.36,0,0,1-3.36,0L419,536.48l-.52-.3a1.35,1.35,0,0,1,0-2.33L432.11,526a3.36,3.36,0,0,1,3.36,0l13.62,7.86A1.31,1.31,0,0,1,449.76,535Z"/><path class="cls-12" d="M388.12,535a1.33,1.33,0,0,0-.67-1.17L373.82,526a3.36,3.36,0,0,0-3.36,0l-13.62,7.86a1.34,1.34,0,0,0-.68,1.17v6a1.33,1.33,0,0,0,.68,1.16l13.62,7.87a3.41,3.41,0,0,0,3.36,0l13.63-7.87a1.33,1.33,0,0,0,.67-1.17h0v-6Z"/><path class="cls-11" d="M388.12,535a1.32,1.32,0,0,1-.67,1.16l-.52.3-13.11,7.57a3.36,3.36,0,0,1-3.36,0l-13.11-7.57-.51-.3a1.34,1.34,0,0,1,0-2.33L370.46,526a3.36,3.36,0,0,1,3.36,0l13.63,7.86A1.33,1.33,0,0,1,388.12,535Z"/><path class="cls-12" d="M419.11,552.75a1.33,1.33,0,0,0-.67-1.17l-13.63-7.86a3.36,3.36,0,0,0-3.36,0l-13.63,7.86a1.35,1.35,0,0,0-.67,1.17v6a1.34,1.34,0,0,0,.67,1.16l13.63,7.87a3.41,3.41,0,0,0,3.36,0L418.44,560a1.33,1.33,0,0,0,.67-1.17h0v-6Z"/><path class="cls-11" d="M419.11,552.75a1.32,1.32,0,0,1-.67,1.16l-.52.3-13.11,7.57a3.36,3.36,0,0,1-3.36,0l-13.11-7.57-.52-.3a1.35,1.35,0,0,1,0-2.33l13.63-7.86a3.36,3.36,0,0,1,3.36,0l13.63,7.86A1.33,1.33,0,0,1,419.11,552.75Z"/><path class="cls-12" d="M658,553.46a1.32,1.32,0,0,0-.67-1.17l-13.62-7.86a3.36,3.36,0,0,0-3.36,0l-13.63,7.86a1.34,1.34,0,0,0-.67,1.17v6a1.32,1.32,0,0,0,.67,1.16l13.63,7.87a3.36,3.36,0,0,0,3.36,0l13.62-7.87a1.31,1.31,0,0,0,.67-1.17h0v-6Z"/><path class="cls-11" d="M658,553.46a1.32,1.32,0,0,1-.67,1.16l-.51.3-13.11,7.57a3.36,3.36,0,0,1-3.36,0l-13.11-7.57-.52-.3a1.32,1.32,0,0,1-.67-1.16,1.34,1.34,0,0,1,.67-1.17l13.63-7.86a3.36,3.36,0,0,1,3.36,0l13.62,7.86A1.32,1.32,0,0,1,658,553.46Z"/><path class="cls-13" d="M629.49,570a1.34,1.34,0,0,0-.67-1.17L615.19,561a3.36,3.36,0,0,0-3.36,0l-13.62,7.86a1.35,1.35,0,0,0-.68,1.17v6a1.33,1.33,0,0,0,.68,1.16l13.62,7.87a3.41,3.41,0,0,0,3.36,0l13.63-7.87a1.33,1.33,0,0,0,.67-1.17h0v-6Z"/><path class="cls-7" d="M629.49,570a1.32,1.32,0,0,1-.67,1.16l-.52.3L615.19,579a3.36,3.36,0,0,1-3.36,0l-13.11-7.57-.51-.3a1.33,1.33,0,0,1-.68-1.16,1.35,1.35,0,0,1,.68-1.17L611.83,561a3.36,3.36,0,0,1,3.36,0l13.63,7.86A1.34,1.34,0,0,1,629.49,570Z"/><path class="cls-12" d="M628.62,603.15A1.32,1.32,0,0,0,628,602l-13.63-7.87a3.36,3.36,0,0,0-3.36,0L597.33,602a1.34,1.34,0,0,0-.67,1.16v6a1.34,1.34,0,0,0,.67,1.16L611,618.22a3.36,3.36,0,0,0,3.36,0L628,610.35a1.32,1.32,0,0,0,.67-1.16h0v-6Z"/><path class="cls-11" d="M628.62,603.15a1.33,1.33,0,0,1-.67,1.17l-.52.3-13.11,7.56a3.31,3.31,0,0,1-3.36,0l-13.11-7.56-.52-.3a1.36,1.36,0,0,1-.67-1.17,1.34,1.34,0,0,1,.67-1.16L611,594.12a3.36,3.36,0,0,1,3.36,0L628,602A1.32,1.32,0,0,1,628.62,603.15Z"/><path class="cls-12" d="M686.21,569.87a1.35,1.35,0,0,0-.67-1.17l-13.63-7.87a3.41,3.41,0,0,0-3.36,0l-13.63,7.87a1.34,1.34,0,0,0-.67,1.16v6a1.36,1.36,0,0,0,.67,1.17l13.63,7.86a3.36,3.36,0,0,0,3.36,0l13.63-7.86a1.36,1.36,0,0,0,.67-1.17h0v-6Z"/><path class="cls-11" d="M686.21,569.87a1.34,1.34,0,0,1-.67,1.16l-.52.3-13.11,7.57a3.36,3.36,0,0,1-3.36,0l-13.11-7.57-.52-.3a1.35,1.35,0,0,1,0-2.33l13.63-7.87a3.41,3.41,0,0,1,3.36,0l13.63,7.87A1.35,1.35,0,0,1,686.21,569.87Z"/><path class="cls-12" d="M657.68,586.42a1.31,1.31,0,0,0-.67-1.17l-13.62-7.87a3.38,3.38,0,0,0-3.37,0l-13.62,7.87a1.32,1.32,0,0,0-.67,1.16v6a1.34,1.34,0,0,0,.67,1.17L640,601.48a3.38,3.38,0,0,0,3.37,0L657,593.62a1.32,1.32,0,0,0,.67-1.17h0v-6Z"/><path class="cls-11" d="M657.68,586.42a1.32,1.32,0,0,1-.67,1.16l-.51.3-13.11,7.57a3.38,3.38,0,0,1-3.37,0l-13.1-7.57-.52-.3a1.35,1.35,0,0,1,0-2.33L640,577.38a3.38,3.38,0,0,1,3.37,0L657,585.25A1.31,1.31,0,0,1,657.68,586.42Z"/><path class="cls-12" d="M451.13,499.94a1.32,1.32,0,0,0-.67-1.17l-13.62-7.86a3.36,3.36,0,0,0-3.36,0l-13.63,7.86a1.34,1.34,0,0,0-.67,1.17v6a1.32,1.32,0,0,0,.67,1.16L433.48,515a3.36,3.36,0,0,0,3.36,0l13.62-7.87a1.31,1.31,0,0,0,.67-1.17h0v-6Z"/><path class="cls-11" d="M451.13,499.94a1.31,1.31,0,0,1-.67,1.16l-.51.3L436.84,509a3.36,3.36,0,0,1-3.36,0l-13.11-7.57-.52-.3a1.31,1.31,0,0,1-.67-1.16,1.34,1.34,0,0,1,.67-1.17l13.63-7.86a3.36,3.36,0,0,1,3.36,0l13.62,7.86A1.32,1.32,0,0,1,451.13,499.94Z"/><path class="cls-12" d="M508.72,466.65a1.32,1.32,0,0,0-.67-1.16l-13.62-7.87a3.38,3.38,0,0,0-3.37,0l-13.62,7.87a1.32,1.32,0,0,0-.67,1.16v6a1.31,1.31,0,0,0,.67,1.16l13.62,7.87a3.38,3.38,0,0,0,3.37,0l13.62-7.87a1.31,1.31,0,0,0,.67-1.16h0v-6Z"/><path class="cls-11" d="M508.72,466.65a1.33,1.33,0,0,1-.67,1.17l-.52.3-13.1,7.56a3.33,3.33,0,0,1-3.37,0L478,468.12l-.52-.3a1.35,1.35,0,0,1,0-2.33l13.62-7.87a3.38,3.38,0,0,1,3.37,0l13.62,7.87A1.32,1.32,0,0,1,508.72,466.65Z"/><path class="cls-12" d="M480.2,483.2a1.32,1.32,0,0,0-.67-1.16l-13.63-7.87a3.36,3.36,0,0,0-3.36,0L448.91,482a1.34,1.34,0,0,0-.67,1.16v6a1.34,1.34,0,0,0,.67,1.16l13.63,7.87a3.36,3.36,0,0,0,3.36,0l13.63-7.87a1.32,1.32,0,0,0,.67-1.16h0v-6Z"/><path class="cls-11" d="M480.2,483.2a1.33,1.33,0,0,1-.67,1.17l-.52.3-13.11,7.56a3.31,3.31,0,0,1-3.36,0l-13.11-7.56-.52-.3a1.36,1.36,0,0,1-.67-1.17,1.34,1.34,0,0,1,.67-1.16l13.63-7.87a3.36,3.36,0,0,1,3.36,0L479.53,482A1.32,1.32,0,0,1,480.2,483.2Z"/><path class="cls-12" d="M479.33,516.35a1.35,1.35,0,0,0-.67-1.17L465,507.31a3.41,3.41,0,0,0-3.36,0L448,515.18a1.34,1.34,0,0,0-.67,1.16v6a1.36,1.36,0,0,0,.67,1.17l13.63,7.86a3.36,3.36,0,0,0,3.36,0l13.63-7.86a1.36,1.36,0,0,0,.67-1.17h0v-6Z"/><path class="cls-11" d="M479.33,516.35a1.34,1.34,0,0,1-.67,1.16l-.52.3L465,525.38a3.36,3.36,0,0,1-3.36,0l-13.11-7.57-.52-.3a1.35,1.35,0,0,1,0-2.33l13.63-7.87a3.41,3.41,0,0,1,3.36,0l13.63,7.87A1.35,1.35,0,0,1,479.33,516.35Z"/><path class="cls-13" d="M536.92,483.06a1.33,1.33,0,0,0-.67-1.16L522.62,474a3.36,3.36,0,0,0-3.36,0l-13.63,7.87a1.33,1.33,0,0,0-.67,1.16v6a1.34,1.34,0,0,0,.67,1.16l13.63,7.87a3.36,3.36,0,0,0,3.36,0l13.63-7.87a1.35,1.35,0,0,0,.67-1.17h0v-6Z"/><path class="cls-7" d="M536.92,483.06a1.32,1.32,0,0,1-.67,1.16l-.52.3-13.11,7.57a3.36,3.36,0,0,1-3.36,0l-13.11-7.57-.52-.3a1.34,1.34,0,0,1,0-2.32L519.26,474a3.36,3.36,0,0,1,3.36,0l13.63,7.87A1.33,1.33,0,0,1,536.92,483.06Z"/><path class="cls-12" d="M508.39,499.61a1.34,1.34,0,0,0-.67-1.17l-13.62-7.86a3.38,3.38,0,0,0-3.37,0l-13.62,7.86a1.34,1.34,0,0,0-.67,1.17v6a1.32,1.32,0,0,0,.67,1.16l13.62,7.87a3.38,3.38,0,0,0,3.37,0l13.62-7.87a1.33,1.33,0,0,0,.67-1.17h0v-6Z"/><path class="cls-11" d="M508.39,499.61a1.32,1.32,0,0,1-.67,1.16l-.52.3-13.1,7.57a3.38,3.38,0,0,1-3.37,0l-13.1-7.57-.52-.3a1.32,1.32,0,0,1-.67-1.16,1.34,1.34,0,0,1,.67-1.17l13.62-7.86a3.38,3.38,0,0,1,3.37,0l13.62,7.86A1.34,1.34,0,0,1,508.39,499.61Z"/><path class="cls-12" d="M477.66,553.53a1.3,1.3,0,0,0-.67-1.16l-13.62-7.87a3.36,3.36,0,0,0-3.36,0l-13.63,7.87a1.32,1.32,0,0,0-.67,1.16v6a1.31,1.31,0,0,0,.67,1.16L460,568.6a3.36,3.36,0,0,0,3.36,0L477,560.73a1.29,1.29,0,0,0,.67-1.16h0v-6Z"/><path class="cls-11" d="M477.66,553.53a1.33,1.33,0,0,1-.67,1.17l-.51.3-13.11,7.56a3.31,3.31,0,0,1-3.36,0L446.9,555l-.52-.3a1.35,1.35,0,0,1,0-2.33L460,544.5a3.36,3.36,0,0,1,3.36,0L477,552.37A1.3,1.3,0,0,1,477.66,553.53Z"/><path class="cls-12" d="M506.41,570a1.36,1.36,0,0,0-.67-1.17L492.11,561a3.36,3.36,0,0,0-3.36,0l-13.63,7.86a1.36,1.36,0,0,0-.67,1.17v6a1.34,1.34,0,0,0,.67,1.16l13.63,7.87a3.41,3.41,0,0,0,3.36,0l13.63-7.87a1.35,1.35,0,0,0,.67-1.17h0v-6Z"/><path class="cls-11" d="M506.41,570a1.34,1.34,0,0,1-.67,1.16l-.52.3L492.11,579a3.36,3.36,0,0,1-3.36,0l-13.11-7.57-.52-.3a1.34,1.34,0,0,1-.67-1.16,1.36,1.36,0,0,1,.67-1.17L488.75,561a3.36,3.36,0,0,1,3.36,0l13.63,7.86A1.36,1.36,0,0,1,506.41,570Z"/></g><g id="bg"><path class="cls-4" d="M475.06,373.87v16a20.07,20.07,0,0,1-10.13,17.53L301.45,501.83a50.42,50.42,0,0,1-10.9,4.68,47.82,47.82,0,0,1-5.83,1.37,50.7,50.7,0,0,1-17.16,0,48.79,48.79,0,0,1-5.83-1.36,50.7,50.7,0,0,1-10.9-4.68L87.34,407.44a20.06,20.06,0,0,1-10.12-17.53v-16a20,20,0,0,1,10.12-17.53l163.49-94.4a50.63,50.63,0,0,1,50.62,0l163.48,94.4A20,20,0,0,1,475.06,373.87Z"/><path class="cls-14" d="M475.06,373.87a20.06,20.06,0,0,1-10.13,17.53l-18,10.42-145.45,84a50.42,50.42,0,0,1-10.9,4.68,47.82,47.82,0,0,1-5.83,1.37,50.7,50.7,0,0,1-17.16,0,48.79,48.79,0,0,1-5.83-1.36,50.7,50.7,0,0,1-10.9-4.68l-145.46-84-18-10.42a20.24,20.24,0,0,1,0-35.06l163.49-94.4a50.63,50.63,0,0,1,50.62,0l163.48,94.4A20,20,0,0,1,475.06,373.87Z"/><ellipse class="cls-2" cx="274.52" cy="457.74" rx="8.96" ry="5.48"/><ellipse class="cls-2" cx="274.52" cy="290" rx="8.96" ry="5.48"/><ellipse class="cls-2" cx="418.65" cy="374.01" rx="8.96" ry="5.48"/><ellipse class="cls-2" cx="133.62" cy="374.01" rx="8.96" ry="5.48"/></g><g id="cloud"><path class="cls-12" d="M382,330.09l-9.34,1.71q-1.14-.81-2.43-1.56l-1.79-1a45.59,45.59,0,0,0-15.63-5.28c-12.35-1.93-24.59-1.57-36.83,2.61-1.61.55-5.18-.41-7.53-1-18.64-5.13-38.71-2.87-51.95,6.32-4.07,2.83-6.72,6.33-10,9.55-25.55-2.4-46.45,2-60,14.47H177V373.6h0c0,7.51,5.19,14.68,14.26,21.33h-4.59v16.26h0c-.4,9.05,6.63,16.23,21,21.05,14.91,5,34.46,4.86,46.71-2q59.84-33.56,118-68.08c6.66-3.95,9.55-8.66,9.68-13.66h0Z"/><path class="cls-2" d="M368.43,311.43l1.79,1a23.6,23.6,0,0,1,8.51,7.84l0,0c5.32,8.69,4.65,17.42-6.48,24q-58.17,34.5-118,68.08c-12.25,6.87-31.8,7-46.71,2-15.72-5.29-22.68-13.42-20.65-23.75.8-4,3.86-7.9,6.1-12.25-17.06-11.72-22-25.17-7.8-39.25,13.46-13.38,34.88-18.1,61.22-15.63,3.32-3.22,6-6.72,10-9.55,13.24-9.19,33.31-11.44,51.95-6.32,2.35.64,5.92,1.6,7.53,1.05,12.24-4.17,24.48-4.54,36.83-2.61A45.59,45.59,0,0,1,368.43,311.43Z"/></g></g><g id="pc"><path class="cls-12" d="M1077.26,432.84,899,535.78l-.19.09a20.35,20.35,0,0,1-18.25,0l-.18-.09L702.3,433a9.29,9.29,0,0,1-4.65-8.06V408.57h31.79a21.68,21.68,0,0,0,10.86-2.91L892.22,318a14,14,0,0,1,14,0L1054,403.28A21.71,21.71,0,0,0,1071.9,405l9.89-3.39v21.73A9.21,9.21,0,0,1,1077.26,432.84Z"/><path class="cls-2" d="M1077.26,411.12,899,514.06l-.19.09a18.55,18.55,0,0,1-18.25,0l-.18-.09L697.65,408.57,899.21,292.2l178,102.8A9.3,9.3,0,0,1,1077.26,411.12Z"/><path class="cls-14" d="M899.21,292.2,697.64,408.58V208.79c0-7.92,4.81-17.12,10.75-20.54l180.07-104c5.93-3.42,10.75.22,10.75,8.13Z"/><path class="cls-2" d="M899.21,109.11,697.64,225.48V208.79c0-7.92,4.81-17.12,10.75-20.54l180.07-104c5.93-3.42,10.75.22,10.75,8.13Z"/><ellipse class="cls-15" cx="711.08" cy="202.21" rx="4.36" ry="2.52" transform="translate(180.42 716.91) rotate(-60)"/><ellipse class="cls-14" cx="724.22" cy="194.62" rx="4.36" ry="2.52" transform="translate(193.56 724.5) rotate(-60)"/><ellipse class="cls-7" cx="737.36" cy="187.04" rx="4.36" ry="2.52" transform="translate(206.7 732.09) rotate(-60)"/><path class="cls-16" d="M898.79,514.15v21.72a18.55,18.55,0,0,1-18.25,0V514.15A18.55,18.55,0,0,0,898.79,514.15Z"/><path class="cls-16" d="M769.29,411.36l-14.06,8.11a1.85,1.85,0,0,1-1.68-.07l-4.44-2.56c-.5-.29-.55-.72-.12-1l14-8.12a1.92,1.92,0,0,1,1.68.07l4.45,2.57C769.66,410.68,769.72,411.11,769.29,411.36Z"/><path class="cls-16" d="M916.06,326.62l-14,8.11a1.85,1.85,0,0,1-1.68-.07l-4.45-2.56c-.5-.29-.55-.72-.12-1l14-8.12a1.94,1.94,0,0,1,1.69.07l4.44,2.57C916.44,325.94,916.49,326.37,916.06,326.62Z"/><path class="cls-16" d="M781.78,404.15l-4.69,2.7a1.85,1.85,0,0,1-1.68-.07L771,404.22c-.5-.29-.55-.72-.12-1l4.68-2.71a1.85,1.85,0,0,1,1.68.07l4.45,2.57C782.16,403.46,782.21,403.9,781.78,404.15Z"/><path class="cls-16" d="M794.27,396.94l-4.68,2.7a1.87,1.87,0,0,1-1.69-.07L783.46,397c-.5-.29-.55-.73-.12-1l4.68-2.7a1.88,1.88,0,0,1,1.69.07l4.44,2.56C794.65,396.25,794.7,396.69,794.27,396.94Z"/><path class="cls-16" d="M806.76,389.72l-4.68,2.71a1.88,1.88,0,0,1-1.69-.07L796,389.79c-.5-.28-.55-.72-.12-1l4.69-2.7a1.85,1.85,0,0,1,1.68.07l4.44,2.56C807.14,389,807.19,389.48,806.76,389.72Z"/><path class="cls-16" d="M819.25,382.51l-4.68,2.71a1.88,1.88,0,0,1-1.68-.07l-4.45-2.57c-.49-.29-.55-.72-.12-1l4.69-2.7a1.85,1.85,0,0,1,1.68.07l4.44,2.56C819.63,381.83,819.68,382.26,819.25,382.51Z"/><path class="cls-16" d="M831.74,375.3l-4.68,2.7a1.88,1.88,0,0,1-1.68-.06l-4.45-2.57c-.49-.29-.55-.72-.12-1l4.69-2.71a1.92,1.92,0,0,1,1.68.07l4.44,2.57C832.12,374.62,832.17,375.05,831.74,375.3Z"/><path class="cls-16" d="M844.23,368.09l-4.68,2.7a1.85,1.85,0,0,1-1.68-.07l-4.44-2.56c-.5-.29-.56-.72-.13-1l4.69-2.71a1.85,1.85,0,0,1,1.68.07l4.44,2.57C844.61,367.4,844.67,367.84,844.23,368.09Z"/><path class="cls-16" d="M856.73,360.88l-4.69,2.7a1.85,1.85,0,0,1-1.68-.07L845.92,361c-.5-.29-.55-.73-.12-1l4.68-2.71a1.85,1.85,0,0,1,1.68.07l4.45,2.57C857.1,360.19,857.16,360.63,856.73,360.88Z"/><path class="cls-16" d="M869.22,353.66l-4.69,2.71a1.85,1.85,0,0,1-1.68-.07l-4.44-2.57c-.5-.28-.55-.72-.12-1l4.68-2.7a1.85,1.85,0,0,1,1.68.07l4.45,2.56C869.59,353,869.65,353.42,869.22,353.66Z"/><path class="cls-16" d="M881.71,346.45,877,349.16a1.85,1.85,0,0,1-1.68-.07l-4.44-2.57c-.5-.28-.55-.72-.12-1l4.68-2.7a1.88,1.88,0,0,1,1.69.07l4.44,2.56C882.09,345.77,882.14,346.2,881.71,346.45Z"/><path class="cls-16" d="M894.2,339.24,889.52,342a1.94,1.94,0,0,1-1.69-.07l-4.44-2.57c-.5-.29-.55-.72-.12-1l4.68-2.7a1.9,1.9,0,0,1,1.69.06l4.44,2.57C894.58,338.56,894.63,339,894.2,339.24Z"/><path class="cls-16" d="M781.78,418.57l-14,8.12a1.94,1.94,0,0,1-1.69-.07l-4.44-2.57c-.5-.29-.55-.72-.12-1l14-8.11a1.85,1.85,0,0,1,1.68.07l4.45,2.56C782.16,417.89,782.21,418.32,781.78,418.57Z"/><path class="cls-16" d="M928.55,333.83l-14,8.12a1.92,1.92,0,0,1-1.68-.07l-4.45-2.57c-.49-.29-.55-.72-.12-1l14.06-8.11a1.85,1.85,0,0,1,1.68.07l4.44,2.56C928.93,333.15,929,333.58,928.55,333.83Z"/><path class="cls-16" d="M794.27,411.36l-4.68,2.7a1.87,1.87,0,0,1-1.69-.07l-4.44-2.56c-.5-.29-.55-.72-.12-1l4.68-2.71a1.94,1.94,0,0,1,1.69.07l4.44,2.57C794.65,410.68,794.7,411.11,794.27,411.36Z"/><path class="cls-16" d="M806.76,404.15l-4.68,2.7a1.88,1.88,0,0,1-1.69-.07L796,404.22c-.5-.29-.55-.72-.12-1l4.69-2.71a1.85,1.85,0,0,1,1.68.07l4.44,2.57C807.14,403.46,807.19,403.9,806.76,404.15Z"/><path class="cls-16" d="M819.25,396.94l-4.68,2.7a1.85,1.85,0,0,1-1.68-.07L808.44,397c-.49-.29-.55-.73-.12-1l4.69-2.7a1.85,1.85,0,0,1,1.68.07l4.44,2.56C819.63,396.25,819.68,396.69,819.25,396.94Z"/><path class="cls-16" d="M831.74,389.72l-4.68,2.71a1.85,1.85,0,0,1-1.68-.07l-4.45-2.57c-.49-.28-.55-.72-.12-1l4.69-2.7a1.85,1.85,0,0,1,1.68.07l4.44,2.56C832.12,389,832.17,389.48,831.74,389.72Z"/><path class="cls-16" d="M844.23,382.51l-4.68,2.71a1.89,1.89,0,0,1-1.68-.07l-4.44-2.57c-.5-.29-.56-.72-.13-1l4.69-2.7a1.85,1.85,0,0,1,1.68.07l4.44,2.56C844.61,381.83,844.67,382.26,844.23,382.51Z"/><path class="cls-16" d="M856.73,375.3,852,378a1.88,1.88,0,0,1-1.68-.06l-4.44-2.57c-.5-.29-.55-.72-.12-1l4.68-2.71a1.92,1.92,0,0,1,1.68.07l4.45,2.57C857.1,374.62,857.16,375.05,856.73,375.3Z"/><path class="cls-16" d="M869.22,368.09l-4.69,2.7a1.85,1.85,0,0,1-1.68-.07l-4.44-2.56c-.5-.29-.55-.72-.12-1l4.68-2.71a1.85,1.85,0,0,1,1.68.07l4.45,2.57C869.59,367.4,869.65,367.84,869.22,368.09Z"/><path class="cls-16" d="M881.71,360.88l-4.69,2.7a1.85,1.85,0,0,1-1.68-.07L870.9,361c-.5-.29-.55-.73-.12-1l4.68-2.71a1.88,1.88,0,0,1,1.69.07l4.44,2.57C882.09,360.19,882.14,360.63,881.71,360.88Z"/><path class="cls-16" d="M894.2,353.66l-4.68,2.71a1.87,1.87,0,0,1-1.69-.07l-4.44-2.57c-.5-.28-.55-.72-.12-1l4.68-2.7a1.87,1.87,0,0,1,1.69.07l4.44,2.56C894.58,353,894.63,353.42,894.2,353.66Z"/><path class="cls-16" d="M906.69,346.45,902,349.16a1.85,1.85,0,0,1-1.68-.07l-4.45-2.57c-.5-.28-.55-.72-.12-1l4.69-2.7a1.85,1.85,0,0,1,1.68.07l4.44,2.56C907.07,345.77,907.12,346.2,906.69,346.45Z"/><path class="cls-16" d="M794.27,425.78l-14,8.12a1.91,1.91,0,0,1-1.69-.07l-4.44-2.57c-.5-.29-.55-.72-.12-1l14-8.11a1.88,1.88,0,0,1,1.69.07l4.44,2.56C794.65,425.1,794.7,425.53,794.27,425.78Z"/><path class="cls-16" d="M941,341l-14,8.12a1.89,1.89,0,0,1-1.68-.07l-4.44-2.57c-.5-.28-.56-.72-.13-1l14.06-8.11a1.85,1.85,0,0,1,1.68.07l4.44,2.56C941.42,340.36,941.47,340.79,941,341Z"/><path class="cls-16" d="M806.76,418.57l-4.68,2.71a1.91,1.91,0,0,1-1.69-.07L796,418.64c-.5-.29-.55-.72-.12-1l4.68-2.7a1.87,1.87,0,0,1,1.69.07l4.44,2.56C807.14,417.89,807.19,418.32,806.76,418.57Z"/><path class="cls-16" d="M819.25,411.36l-4.68,2.7a1.85,1.85,0,0,1-1.68-.07l-4.45-2.56c-.5-.29-.55-.72-.12-1l4.69-2.71a1.89,1.89,0,0,1,1.68.07l4.44,2.57C819.63,410.68,819.68,411.11,819.25,411.36Z"/><path class="cls-16" d="M831.74,404.15l-4.68,2.7a1.85,1.85,0,0,1-1.68-.07l-4.45-2.56c-.49-.29-.55-.72-.12-1l4.69-2.71a1.85,1.85,0,0,1,1.68.07l4.44,2.57C832.12,403.46,832.17,403.9,831.74,404.15Z"/><path class="cls-16" d="M844.23,396.94l-4.68,2.7a1.85,1.85,0,0,1-1.68-.07L833.43,397c-.5-.29-.56-.73-.13-1l4.69-2.7a1.85,1.85,0,0,1,1.68.07l4.44,2.56C844.61,396.25,844.67,396.69,844.23,396.94Z"/><path class="cls-16" d="M856.73,389.72,852,392.43a1.85,1.85,0,0,1-1.68-.07l-4.44-2.57c-.5-.28-.56-.72-.12-1l4.68-2.7a1.85,1.85,0,0,1,1.68.07l4.45,2.56C857.1,389,857.16,389.48,856.73,389.72Z"/><path class="cls-16" d="M869.22,382.51l-4.69,2.71a1.89,1.89,0,0,1-1.68-.07l-4.44-2.57c-.5-.29-.55-.72-.12-1l4.68-2.7a1.85,1.85,0,0,1,1.68.07l4.45,2.56C869.59,381.83,869.65,382.26,869.22,382.51Z"/><path class="cls-16" d="M881.71,375.3,877,378a1.88,1.88,0,0,1-1.68-.06l-4.44-2.57c-.5-.29-.55-.72-.12-1l4.68-2.71a1.94,1.94,0,0,1,1.69.07l4.44,2.57C882.09,374.62,882.14,375.05,881.71,375.3Z"/><path class="cls-16" d="M894.2,368.09l-4.68,2.7a1.87,1.87,0,0,1-1.69-.07l-4.44-2.56c-.5-.29-.55-.72-.12-1l4.68-2.71a1.87,1.87,0,0,1,1.69.07l4.44,2.57C894.58,367.4,894.63,367.84,894.2,368.09Z"/><path class="cls-16" d="M906.69,360.88l-4.68,2.7a1.85,1.85,0,0,1-1.68-.07L895.88,361c-.5-.29-.55-.73-.12-1l4.69-2.71a1.85,1.85,0,0,1,1.68.07l4.44,2.57C907.07,360.19,907.12,360.63,906.69,360.88Z"/><path class="cls-16" d="M919.18,353.66l-4.68,2.71a1.85,1.85,0,0,1-1.68-.07l-4.45-2.57c-.49-.28-.55-.72-.12-1l4.69-2.7a1.85,1.85,0,0,1,1.68.07l4.44,2.56C919.56,353,919.61,353.42,919.18,353.66Z"/><path class="cls-16" d="M819.25,440.21l-14,8.11a1.85,1.85,0,0,1-1.68-.07l-4.45-2.56c-.49-.29-.55-.73-.12-1L813,436.6a1.85,1.85,0,0,1,1.68.07l4.44,2.57C819.63,439.52,819.68,440,819.25,440.21Z"/><path class="cls-16" d="M966,355.47,952,363.58a1.85,1.85,0,0,1-1.68-.07L945.85,361c-.5-.29-.55-.73-.12-1l14-8.12a1.85,1.85,0,0,1,1.68.07l4.44,2.57C966.4,354.78,966.46,355.22,966,355.47Z"/><path class="cls-16" d="M831.74,433l-4.68,2.7a1.85,1.85,0,0,1-1.68-.07l-4.45-2.56c-.49-.29-.55-.73-.12-1l4.69-2.7a1.85,1.85,0,0,1,1.68.07l4.44,2.56C832.12,432.31,832.17,432.75,831.74,433Z"/><path class="cls-16" d="M833.3,425.78l4.69,2.71a1.72,1.72,0,0,0,1.56,0l92.12-53.19c.44-.25.44-.65,0-.9L927,371.69a1.78,1.78,0,0,0-1.56,0L833.3,424.88A.48.48,0,0,0,833.3,425.78Z"/><path class="cls-16" d="M944.17,368.09l-4.69,2.7a1.85,1.85,0,0,1-1.68-.07l-4.44-2.56c-.5-.29-.56-.72-.12-1l4.68-2.71a1.85,1.85,0,0,1,1.68.07l4.44,2.57C944.54,367.4,944.6,367.84,944.17,368.09Z"/><path class="cls-16" d="M819.25,425.78l-26.54,15.33A1.85,1.85,0,0,1,791,441l-4.45-2.57c-.5-.28-.55-.72-.12-1L813,422.18a1.85,1.85,0,0,1,1.68.07l4.44,2.56C819.63,425.1,819.68,425.53,819.25,425.78Z"/><path class="cls-16" d="M953.53,348.26,927,363.58a1.85,1.85,0,0,1-1.68-.07L920.87,361c-.5-.29-.56-.73-.13-1l26.55-15.33a1.85,1.85,0,0,1,1.68.07l4.44,2.56C953.91,347.57,954,348,953.53,348.26Z"/><path class="cls-16" d="M831.74,418.57l-4.68,2.71a1.88,1.88,0,0,1-1.68-.07l-4.45-2.57c-.49-.29-.55-.72-.12-1l4.69-2.7a1.85,1.85,0,0,1,1.68.07l4.44,2.56C832.12,417.89,832.17,418.32,831.74,418.57Z"/><path class="cls-16" d="M844.23,411.36l-4.68,2.7a1.85,1.85,0,0,1-1.68-.07l-4.44-2.56c-.5-.29-.56-.72-.13-1l4.69-2.71a1.89,1.89,0,0,1,1.68.07l4.44,2.57C844.61,410.68,844.67,411.11,844.23,411.36Z"/><path class="cls-16" d="M856.73,404.15l-4.69,2.7a1.85,1.85,0,0,1-1.68-.07l-4.44-2.56c-.5-.29-.56-.72-.12-1l4.68-2.71a1.85,1.85,0,0,1,1.68.07l4.45,2.57C857.1,403.46,857.16,403.9,856.73,404.15Z"/><path class="cls-16" d="M869.22,396.94l-4.69,2.7a1.85,1.85,0,0,1-1.68-.07L858.41,397c-.5-.29-.55-.73-.12-1l4.68-2.7a1.85,1.85,0,0,1,1.68.07L869.1,396C869.59,396.25,869.65,396.69,869.22,396.94Z"/><path class="cls-16" d="M881.71,389.72,877,392.43a1.85,1.85,0,0,1-1.68-.07l-4.44-2.57c-.5-.28-.55-.72-.12-1l4.68-2.7a1.88,1.88,0,0,1,1.69.07l4.44,2.56C882.09,389,882.14,389.48,881.71,389.72Z"/><path class="cls-16" d="M894.2,382.51l-4.68,2.71a1.91,1.91,0,0,1-1.69-.07l-4.44-2.57c-.5-.29-.55-.72-.12-1l4.68-2.7a1.87,1.87,0,0,1,1.69.07l4.44,2.56C894.58,381.83,894.63,382.26,894.2,382.51Z"/><path class="cls-16" d="M906.69,375.3,902,378a1.9,1.9,0,0,1-1.69-.06l-4.44-2.57c-.5-.29-.55-.72-.12-1l4.69-2.71a1.92,1.92,0,0,1,1.68.07l4.44,2.57C907.07,374.62,907.12,375.05,906.69,375.3Z"/><path class="cls-16" d="M919.18,368.09l-4.68,2.7a1.85,1.85,0,0,1-1.68-.07l-4.45-2.56c-.49-.29-.55-.72-.12-1l4.69-2.71a1.85,1.85,0,0,1,1.68.07l4.44,2.57C919.56,367.4,919.61,367.84,919.18,368.09Z"/><path class="cls-12" d="M990.82,420a4.1,4.1,0,0,1-.62.45l-72.37,41.79c-2.22,1.28-6.1,1.13-8.67-.36l-36.95-21.34a5.67,5.67,0,0,1-1.24-.94c-1.35-1.37-1.18-3,.6-4.05L944,393.79c2.22-1.28,6.1-1.12,8.67.37l37,21.33C991.89,416.81,992.35,418.74,990.82,420Z"/><path class="cls-17" d="M990.82,420a4.1,4.1,0,0,1-.62.45l-72.37,41.79c-2.22,1.28-6.1,1.13-8.67-.36l-36.95-21.34a5.67,5.67,0,0,1-1.24-.94,3.13,3.13,0,0,1,.6-.45L944,397.4c2.22-1.29,6.1-1.11,8.67.36l37,21.33A6.31,6.31,0,0,1,990.82,420Z"/><path class="cls-7" d="M762.7,293.63l-41.46,23.94c-1.37.79-2.48.15-2.48-1.42v-35.3a5.45,5.45,0,0,1,2.48-4.28l11.7-6.76c.9-.51,1.72-.43,2.16.21l1.36,2c.44.65,1.27.73,2.16.21l24.08-13.9c1.37-.79,2.47-.15,2.47,1.42v29.6A5.44,5.44,0,0,1,762.7,293.63Z"/><path class="cls-2" d="M721.24,317.57l41.46-23.94a5.44,5.44,0,0,0,2.47-4.28v-29.6c0-1.57-1.1-2.21-2.47-1.42l-17.89,10.33a5.43,5.43,0,0,0-2.16,2.7l-1.37,3.58a5.46,5.46,0,0,1-2.15,2.7L721.24,288a5.47,5.47,0,0,0-2.48,4.28v23.91C718.76,317.72,719.87,318.36,721.24,317.57Z"/><path class="cls-7" d="M819.77,260.62l-41.46,23.94c-1.37.79-2.48.15-2.48-1.42v-35.3a5.45,5.45,0,0,1,2.48-4.28L790,236.8c.89-.52,1.72-.44,2.16.21l1.36,2c.44.65,1.27.72,2.16.21l24.08-13.9c1.36-.79,2.47-.16,2.47,1.42v29.6A5.47,5.47,0,0,1,819.77,260.62Z"/><path class="cls-2" d="M778.31,284.56l41.46-23.94a5.47,5.47,0,0,0,2.47-4.28v-29.6c0-1.58-1.11-2.21-2.47-1.42l-17.9,10.33a5.32,5.32,0,0,0-2.15,2.7l-1.37,3.58a5.36,5.36,0,0,1-2.16,2.69L778.31,255a5.47,5.47,0,0,0-2.48,4.28v23.91C775.83,284.71,776.94,285.35,778.31,284.56Z"/><path class="cls-12" d="M876.83,227.61l-41.46,23.94c-1.36.78-2.47.15-2.47-1.42V214.82a5.47,5.47,0,0,1,2.47-4.27l11.71-6.76c.89-.52,1.72-.44,2.16.2l1.36,2c.44.64,1.26.72,2.16.21l24.07-13.91c1.37-.78,2.48-.15,2.48,1.42v29.61A5.47,5.47,0,0,1,876.83,227.61Z"/><path class="cls-2" d="M835.37,251.55l41.46-23.94a5.47,5.47,0,0,0,2.48-4.28V193.72c0-1.57-1.11-2.2-2.48-1.41l-17.89,10.33a5.41,5.41,0,0,0-2.16,2.69l-1.36,3.58a5.43,5.43,0,0,1-2.16,2.7l-17.89,10.33a5.47,5.47,0,0,0-2.47,4.28v23.91C832.9,251.7,834,252.33,835.37,251.55Z"/><path class="cls-7" d="M762.7,351.64l-41.46,23.94c-1.37.79-2.48.15-2.48-1.42v-35.3a5.47,5.47,0,0,1,2.48-4.28l11.7-6.76c.9-.51,1.72-.43,2.16.21l1.36,2c.44.65,1.27.73,2.16.21l24.08-13.9c1.37-.79,2.47-.15,2.47,1.42v29.6A5.44,5.44,0,0,1,762.7,351.64Z"/><path class="cls-2" d="M721.24,375.58l41.46-23.94a5.44,5.44,0,0,0,2.47-4.27V317.76c0-1.57-1.1-2.21-2.47-1.42l-17.89,10.33a5.43,5.43,0,0,0-2.16,2.7L741.28,333a5.46,5.46,0,0,1-2.15,2.7L721.24,346a5.47,5.47,0,0,0-2.48,4.28v23.91C718.76,375.73,719.87,376.37,721.24,375.58Z"/><path class="cls-12" d="M819.77,318.63l-41.46,23.94c-1.37.79-2.48.15-2.48-1.42v-35.3a5.45,5.45,0,0,1,2.48-4.28l11.7-6.76c.89-.52,1.72-.44,2.16.21l1.36,2c.44.65,1.27.72,2.16.21l24.08-13.9c1.36-.79,2.47-.16,2.47,1.42v29.6A5.47,5.47,0,0,1,819.77,318.63Z"/><path class="cls-2" d="M778.31,342.57l41.46-23.94a5.47,5.47,0,0,0,2.47-4.28v-29.6c0-1.58-1.11-2.21-2.47-1.42l-17.9,10.33a5.37,5.37,0,0,0-2.15,2.7l-1.37,3.58a5.36,5.36,0,0,1-2.16,2.69L778.31,313a5.47,5.47,0,0,0-2.48,4.28v23.91C775.83,342.72,776.94,343.36,778.31,342.57Z"/><path class="cls-7" d="M876.83,285.62l-41.46,23.94c-1.36.79-2.47.15-2.47-1.42V272.83a5.47,5.47,0,0,1,2.47-4.27l11.71-6.76c.89-.52,1.72-.44,2.16.21l1.36,2c.44.64,1.26.72,2.16.21l24.07-13.9c1.37-.79,2.48-.16,2.48,1.41v29.61A5.47,5.47,0,0,1,876.83,285.62Z"/><path class="cls-2" d="M835.37,309.56l41.46-23.94a5.47,5.47,0,0,0,2.48-4.28V251.73c0-1.57-1.11-2.2-2.48-1.41l-17.89,10.33a5.41,5.41,0,0,0-2.16,2.69l-1.36,3.58a5.38,5.38,0,0,1-2.16,2.7L835.37,280a5.47,5.47,0,0,0-2.47,4.28v23.91C832.9,309.71,834,310.35,835.37,309.56Z"/><path class="cls-12" d="M741.68,240.79,721.75,252.3c-1.65.95-3-.06-3-2.27h0a7.16,7.16,0,0,1,3-5.71l19.93-11.51c1.66-.95,3,.06,3,2.26h0A7.14,7.14,0,0,1,741.68,240.79Z"/><path class="cls-2" d="M787.4,214.53l-30.13,17.26c-1.65,1-3-.06-3-2.26h0a7.19,7.19,0,0,1,3-5.72l30.13-17.26c1.65-1,3,.06,3,2.26h0A7.16,7.16,0,0,1,787.4,214.53Z"/></g></g></g></svg>