<svg xmlns="http://www.w3.org/2000/svg" viewBox="0 0 880.54 700"><defs><style>.cls-1{fill:#1c2bf0;}.cls-2,.cls-3{fill:#0954f5;}.cls-3,.cls-6{opacity:0.3;}.cls-4,.cls-5{fill:#09e4a8;}.cls-5{opacity:0.5;}.cls-10,.cls-6{fill:#0a0d35;}.cls-7{fill:#bec1d0;}.cls-13,.cls-14,.cls-15,.cls-8{fill:#fff;}.cls-9{fill:#1340ff;}.cls-11{fill:#d5d7e0;}.cls-12{fill:#e1e2e8;}.cls-13{opacity:0.49;}.cls-14{opacity:0.2;}.cls-15{opacity:0.35;}</style></defs><g id="Layer_2" data-name="Layer 2"><g id="main-illustration-4"><g id="server"><path class="cls-1" d="M880.54,350.65V391.5a8,8,0,0,1-4,7.1L723,487.28l-.32.18-.15.07a17.62,17.62,0,0,1-15.76,0l-.15-.07L553,398.77a7.94,7.94,0,0,1-3-3,8.23,8.23,0,0,1-1.07-3.92V350.65h62.77L706.37,296a16.41,16.41,0,0,1,16.46,0l94.73,54.69Z"/><path class="cls-2" d="M876.52,357.47,723,446.13l-.32.18-.15.07a17.62,17.62,0,0,1-15.76,0l-.15-.07L553,357.62a8.23,8.23,0,0,1,0-14.25l153.38-88.56a16.45,16.45,0,0,1,16.48,0l153.67,88.74A8,8,0,0,1,876.52,357.47Z"/><path class="cls-3" d="M723,446.13v41.15l-.32.18-.15.07a17.62,17.62,0,0,1-15.76,0V446.38a17.62,17.62,0,0,0,15.76,0l.15-.07Z"/><ellipse class="cls-4" cx="816.68" cy="409.78" rx="2.74" ry="1.55" transform="translate(119.85 1000.81) rotate(-66.95)"/><ellipse class="cls-4" cx="823.81" cy="405.67" rx="2.74" ry="1.55" transform="translate(127.97 1004.86) rotate(-66.95)"/><ellipse class="cls-5" cx="830.94" cy="401.55" rx="2.74" ry="1.55" transform="translate(136.09 1008.92) rotate(-66.95)"/><ellipse class="cls-4" cx="838.07" cy="397.44" rx="2.74" ry="1.55" transform="translate(144.22 1012.97) rotate(-66.95)"/><ellipse class="cls-4" cx="845.19" cy="393.32" rx="2.74" ry="1.55" transform="translate(152.34 1017.03) rotate(-66.95)"/><ellipse class="cls-5" cx="852.32" cy="389.21" rx="2.74" ry="1.55" transform="translate(160.46 1021.08) rotate(-66.95)"/><ellipse class="cls-5" cx="859.45" cy="385.09" rx="2.74" ry="1.55" transform="translate(168.59 1025.13) rotate(-66.95)"/><ellipse class="cls-4" cx="866.58" cy="380.98" rx="2.74" ry="1.55" transform="translate(176.71 1029.19) rotate(-66.95)"/><ellipse class="cls-4" cx="816.68" cy="419.29" rx="2.74" ry="1.55" transform="translate(111.1 1006.59) rotate(-66.95)"/><ellipse class="cls-5" cx="823.81" cy="415.17" rx="2.74" ry="1.55" transform="translate(119.22 1010.64) rotate(-66.95)"/><ellipse class="cls-5" cx="830.94" cy="411.06" rx="2.74" ry="1.55" transform="translate(127.35 1014.7) rotate(-66.95)"/><ellipse class="cls-4" cx="838.07" cy="406.94" rx="2.74" ry="1.55" transform="translate(135.47 1018.75) rotate(-66.95)"/><ellipse class="cls-4" cx="845.19" cy="402.83" rx="2.74" ry="1.55" transform="translate(143.59 1022.81) rotate(-66.95)"/><ellipse class="cls-5" cx="852.32" cy="398.71" rx="2.74" ry="1.55" transform="translate(151.72 1026.86) rotate(-66.95)"/><ellipse class="cls-4" cx="859.45" cy="394.6" rx="2.74" ry="1.55" transform="translate(159.84 1030.92) rotate(-66.95)"/><ellipse class="cls-4" cx="866.58" cy="390.48" rx="2.74" ry="1.55" transform="translate(167.96 1034.97) rotate(-66.95)"/><ellipse class="cls-4" cx="614.14" cy="409.78" rx="1.55" ry="2.74" transform="translate(-111.42 273.19) rotate(-23.05)"/><ellipse class="cls-4" cx="607.01" cy="405.67" rx="1.55" ry="2.74" transform="matrix(0.92, -0.39, 0.39, 0.92, -110.37, 270.07)"/><ellipse class="cls-5" cx="599.89" cy="401.55" rx="1.55" ry="2.74" transform="translate(-109.33 266.95) rotate(-23.05)"/><ellipse class="cls-4" cx="592.76" cy="397.44" rx="1.55" ry="2.74" transform="translate(-108.29 263.83) rotate(-23.05)"/><ellipse class="cls-4" cx="585.63" cy="393.32" rx="1.55" ry="2.74" transform="translate(-107.25 260.71) rotate(-23.05)"/><ellipse class="cls-5" cx="578.5" cy="389.21" rx="1.55" ry="2.74" transform="translate(-106.2 257.59) rotate(-23.05)"/><ellipse class="cls-5" cx="571.38" cy="385.09" rx="1.55" ry="2.74" transform="translate(-105.16 254.47) rotate(-23.05)"/><ellipse class="cls-4" cx="564.25" cy="380.98" rx="1.55" ry="2.74" transform="translate(-104.12 251.35) rotate(-23.05)"/><ellipse class="cls-4" cx="614.14" cy="419.29" rx="1.55" ry="2.74" transform="translate(-115.14 273.95) rotate(-23.05)"/><ellipse class="cls-5" cx="607.01" cy="415.17" rx="1.55" ry="2.74" transform="translate(-114.09 270.83) rotate(-23.05)"/><ellipse class="cls-5" cx="599.89" cy="411.06" rx="1.55" ry="2.74" transform="translate(-113.05 267.71) rotate(-23.05)"/><ellipse class="cls-4" cx="592.76" cy="406.94" rx="1.55" ry="2.74" transform="translate(-112.01 264.59) rotate(-23.05)"/><ellipse class="cls-4" cx="585.63" cy="402.83" rx="1.55" ry="2.74" transform="translate(-110.97 261.47) rotate(-23.05)"/><ellipse class="cls-5" cx="578.5" cy="398.71" rx="1.55" ry="2.74" transform="translate(-109.93 258.35) rotate(-23.05)"/><ellipse class="cls-4" cx="571.38" cy="394.6" rx="1.55" ry="2.74" transform="translate(-108.88 255.23) rotate(-23.05)"/><ellipse class="cls-4" cx="564.25" cy="390.48" rx="1.55" ry="2.74" transform="translate(-107.84 252.11) rotate(-23.05)"/><polygon class="cls-6" points="800.99 426.3 736.84 463.34 736.84 457.95 800.99 420.92 800.99 426.3"/><polygon class="cls-6" points="628.43 426.3 692.58 463.34 692.58 457.95 628.43 420.92 628.43 426.3"/></g><g id="pc"><path class="cls-7" d="M876.52,302,722.65,390.8l-.16.08a17.6,17.6,0,0,1-15.75,0l-.16-.08L552.9,302.07a8,8,0,0,1-4-7V281h27.44a18.69,18.69,0,0,0,9.37-2.51l131.13-75.7a12.06,12.06,0,0,1,12,0l127.57,73.65a18.78,18.78,0,0,0,15.46,1.49l8.53-2.92v18.75A7.93,7.93,0,0,1,876.52,302Z"/><path class="cls-8" d="M876.52,283.2,722.65,372.05l-.16.08a16,16,0,0,1-15.75,0l-.16-.08L548.88,281l174-100.44,153.68,88.73A8,8,0,0,1,876.52,283.2Z"/><path class="cls-9" d="M722.84,180.57,548.87,281V108.57c0-6.83,4.16-14.77,9.28-17.73L713.57,1.11c5.12-3,9.27.19,9.27,7Z"/><path class="cls-8" d="M722.84,22.54,548.87,123V108.57c0-6.83,4.16-14.77,9.28-17.73L713.57,1.11c5.12-3,9.27.19,9.27,7Z"/><ellipse class="cls-10" cx="560.47" cy="102.89" rx="3.76" ry="2.17" transform="translate(191.12 536.83) rotate(-60)"/><ellipse class="cls-9" cx="571.81" cy="96.35" rx="3.76" ry="2.17" transform="matrix(0.5, -0.87, 0.87, 0.5, 202.47, 543.38)"/><ellipse class="cls-4" cx="583.16" cy="89.8" rx="3.76" ry="2.17" transform="translate(213.81 549.93) rotate(-60)"/><path class="cls-4" d="M604.46,189.6l-13.06,7.53c-1.42.82-2.58,0-2.58-1.95h0a6.19,6.19,0,0,1,2.58-4.94l13.06-7.53c1.43-.82,2.59,0,2.59,1.95h0A6.17,6.17,0,0,1,604.46,189.6Z"/><path class="cls-8" d="M688.47,141.09l-70.56,40.74c-1.42.83-2.58-.05-2.58-2h0a6.19,6.19,0,0,1,2.58-4.93l70.56-40.75c1.42-.82,2.58.05,2.58,2h0A6.19,6.19,0,0,1,688.47,141.09Z"/><path class="cls-4" d="M608.61,220.1,591.4,230c-1.42.83-2.58-.05-2.58-1.95h0a6.19,6.19,0,0,1,2.58-4.93l17.21-9.93c1.42-.83,2.58.05,2.58,1.95h0A6.19,6.19,0,0,1,608.61,220.1Z"/><path class="cls-8" d="M648.06,197.44l-26,14.9c-1.43.82-2.59-.05-2.59-2h0a6.17,6.17,0,0,1,2.59-4.94l26-14.9c1.43-.82,2.59,0,2.59,1.95h0A6.19,6.19,0,0,1,648.06,197.44Z"/><path class="cls-8" d="M623.93,194.65,591.4,213.58c-1.42.83-2.58-.05-2.58-2h0a6.22,6.22,0,0,1,2.58-4.94l32.53-18.93c1.43-.82,2.58.06,2.58,2h0A6.16,6.16,0,0,1,623.93,194.65Z"/><path class="cls-4" d="M664.61,171.32l-27.23,15.57c-1.43.82-2.58,0-2.58-2h0a6.16,6.16,0,0,1,2.58-4.93l27.23-15.57c1.42-.82,2.58,0,2.58,1.95h0A6.22,6.22,0,0,1,664.61,171.32Z"/><path class="cls-8" d="M608.66,150.31l-2.14-4.53L596,151.85l-2.15,7-5,2.91,10.39-32.1,4-2.31,10.39,20.1Zm-11-3.78,7.24-4.18-3.62-7.68Z"/><path class="cls-8" d="M621.9,116.57l10.39-6c2.46-1.42,4.37-1.8,5.74-1.16s2.05,2.24,2.05,4.81A13.44,13.44,0,0,1,638,121.4a16,16,0,0,1-5.74,5.46L626.9,130v9.81l-5,2.89Zm9.75,6.29q3.75-2.16,3.75-5.9c0-1.28-.31-2.06-.93-2.32s-1.56,0-2.82.71l-4.75,2.74v7.51Z"/><path class="cls-8" d="M649.73,126.6V100.51l5-2.89v26.09Z"/><path class="cls-11" d="M722.49,372.13v18.75a16,16,0,0,1-15.75,0V372.13A16,16,0,0,0,722.49,372.13Z"/><path class="cls-11" d="M610.71,283.41l-12.13,7a1.59,1.59,0,0,1-1.45-.06l-3.83-2.21c-.43-.25-.48-.62-.11-.84l12.13-7a1.59,1.59,0,0,1,1.45.06l3.84,2.21C611,282.82,611.08,283.2,610.71,283.41Z"/><path class="cls-11" d="M737.39,210.27l-12.13,7a1.65,1.65,0,0,1-1.45-.06L720,215c-.43-.25-.48-.62-.11-.84l12.13-7a1.62,1.62,0,0,1,1.45.06l3.84,2.21C737.72,209.68,737.76,210.06,737.39,210.27Z"/><path class="cls-11" d="M621.49,277.19l-4,2.33a1.59,1.59,0,0,1-1.45-.06l-3.84-2.21c-.43-.25-.47-.63-.1-.84l4-2.34a1.65,1.65,0,0,1,1.45.06l3.84,2.22C621.82,276.6,621.86,277,621.49,277.19Z"/><path class="cls-11" d="M632.27,271l-4,2.34a1.65,1.65,0,0,1-1.45-.06L622.94,271c-.43-.25-.47-.62-.1-.84l4-2.33a1.64,1.64,0,0,1,1.46.06l3.83,2.21C632.6,270.37,632.65,270.75,632.27,271Z"/><path class="cls-11" d="M643.06,264.74l-4,2.33a1.59,1.59,0,0,1-1.45-.06l-3.83-2.21c-.43-.25-.48-.63-.11-.84l4-2.33a1.61,1.61,0,0,1,1.46.06L643,263.9C643.38,264.15,643.43,264.52,643.06,264.74Z"/><path class="cls-11" d="M653.84,258.51l-4.05,2.34a1.62,1.62,0,0,1-1.45-.06l-3.83-2.22c-.43-.24-.48-.62-.11-.83l4.05-2.34a1.62,1.62,0,0,1,1.45.06l3.83,2.21C654.16,257.92,654.21,258.3,653.84,258.51Z"/><path class="cls-11" d="M664.62,252.29l-4,2.33a1.59,1.59,0,0,1-1.45-.06l-3.83-2.21c-.43-.25-.48-.62-.11-.84l4.05-2.33a1.59,1.59,0,0,1,1.45.06l3.83,2.21C664.94,251.7,665,252.07,664.62,252.29Z"/><path class="cls-11" d="M675.4,246.06l-4,2.34a1.64,1.64,0,0,1-1.46-.06l-3.83-2.22c-.43-.24-.48-.62-.1-.83l4-2.34a1.62,1.62,0,0,1,1.45.06l3.83,2.22C675.72,245.47,675.77,245.85,675.4,246.06Z"/><path class="cls-11" d="M686.18,239.84l-4,2.33a1.59,1.59,0,0,1-1.45-.06l-3.84-2.21c-.43-.25-.48-.62-.1-.84l4-2.33a1.59,1.59,0,0,1,1.45.06l3.84,2.21C686.51,239.25,686.55,239.62,686.18,239.84Z"/><path class="cls-11" d="M697,233.61l-4,2.34a1.62,1.62,0,0,1-1.45-.06l-3.84-2.21c-.43-.25-.47-.63-.1-.84l4-2.34a1.62,1.62,0,0,1,1.45.06l3.84,2.22C697.29,233,697.33,233.4,697,233.61Z"/><path class="cls-11" d="M707.74,227.39l-4,2.33a1.59,1.59,0,0,1-1.45-.06l-3.84-2.21c-.43-.25-.47-.62-.1-.84l4-2.33a1.59,1.59,0,0,1,1.45.06l3.84,2.21C708.07,226.8,708.11,227.18,707.74,227.39Z"/><path class="cls-11" d="M718.52,221.17l-4,2.33a1.62,1.62,0,0,1-1.45-.06l-3.84-2.21c-.42-.25-.47-.63-.1-.84l4-2.34a1.67,1.67,0,0,1,1.46.06l3.83,2.22C718.85,220.58,718.9,221,718.52,221.17Z"/><path class="cls-11" d="M621.49,289.64l-12.13,7a1.62,1.62,0,0,1-1.45-.06l-3.83-2.22c-.43-.24-.48-.62-.11-.83l12.13-7a1.65,1.65,0,0,1,1.45.06l3.84,2.22C621.82,289.05,621.86,289.42,621.49,289.64Z"/><path class="cls-11" d="M748.17,216.5l-12.13,7a1.62,1.62,0,0,1-1.45-.06l-3.83-2.21c-.43-.25-.48-.63-.11-.84l12.13-7a1.62,1.62,0,0,1,1.45.07l3.84,2.21C748.5,215.91,748.54,216.28,748.17,216.5Z"/><path class="cls-11" d="M632.27,283.41l-4,2.34a1.65,1.65,0,0,1-1.45-.06l-3.84-2.22c-.43-.25-.47-.62-.1-.84l4-2.33a1.61,1.61,0,0,1,1.46.06l3.83,2.21C632.6,282.82,632.65,283.2,632.27,283.41Z"/><path class="cls-11" d="M643.06,277.19l-4,2.33a1.59,1.59,0,0,1-1.45-.06l-3.83-2.21c-.43-.25-.48-.63-.11-.84l4-2.34a1.67,1.67,0,0,1,1.46.06l3.83,2.22C643.38,276.6,643.43,277,643.06,277.19Z"/><path class="cls-11" d="M653.84,271l-4.05,2.34a1.65,1.65,0,0,1-1.45-.06L644.51,271c-.43-.25-.48-.62-.11-.84l4.05-2.33a1.62,1.62,0,0,1,1.45.06l3.83,2.21C654.16,270.37,654.21,270.75,653.84,271Z"/><path class="cls-11" d="M664.62,264.74l-4,2.33a1.59,1.59,0,0,1-1.45-.06l-3.83-2.21c-.43-.25-.48-.63-.11-.84l4.05-2.33a1.59,1.59,0,0,1,1.45.06l3.83,2.21C664.94,264.15,665,264.52,664.62,264.74Z"/><path class="cls-11" d="M675.4,258.51l-4,2.34a1.64,1.64,0,0,1-1.46-.06l-3.83-2.22c-.43-.24-.48-.62-.1-.83l4-2.34a1.62,1.62,0,0,1,1.45.06l3.83,2.21C675.72,257.92,675.77,258.3,675.4,258.51Z"/><path class="cls-11" d="M686.18,252.29l-4,2.33a1.59,1.59,0,0,1-1.45-.06l-3.84-2.21c-.43-.25-.48-.62-.1-.84l4-2.33a1.59,1.59,0,0,1,1.45.06l3.84,2.21C686.51,251.7,686.55,252.07,686.18,252.29Z"/><path class="cls-11" d="M697,246.06l-4,2.34a1.62,1.62,0,0,1-1.45-.06l-3.84-2.22c-.43-.24-.47-.62-.1-.83l4-2.34A1.62,1.62,0,0,1,693,243l3.84,2.22C697.29,245.47,697.33,245.85,697,246.06Z"/><path class="cls-11" d="M707.74,239.84l-4,2.33a1.59,1.59,0,0,1-1.45-.06l-3.84-2.21c-.43-.25-.47-.62-.1-.84l4-2.33a1.59,1.59,0,0,1,1.45.06l3.84,2.21C708.07,239.25,708.11,239.62,707.74,239.84Z"/><path class="cls-11" d="M718.52,233.61l-4,2.34a1.62,1.62,0,0,1-1.45-.06l-3.84-2.21c-.43-.25-.47-.63-.1-.84l4-2.34a1.64,1.64,0,0,1,1.46.06l3.83,2.22C718.85,233,718.9,233.4,718.52,233.61Z"/><path class="cls-11" d="M729.31,227.39l-4,2.33a1.59,1.59,0,0,1-1.45-.06L720,227.45c-.43-.25-.48-.62-.11-.84l4-2.33a1.61,1.61,0,0,1,1.46.06l3.83,2.21C729.63,226.8,729.68,227.18,729.31,227.39Z"/><path class="cls-11" d="M632.27,295.86l-12.13,7a1.59,1.59,0,0,1-1.45-.06l-3.83-2.21c-.43-.25-.48-.62-.11-.84l12.13-7a1.61,1.61,0,0,1,1.46.06l3.83,2.21C632.6,295.27,632.65,295.65,632.27,295.86Z"/><path class="cls-11" d="M759,222.72l-12.13,7a1.59,1.59,0,0,1-1.45-.06l-3.83-2.21c-.43-.25-.48-.62-.11-.84l12.13-7a1.61,1.61,0,0,1,1.46.06l3.83,2.21C759.28,222.13,759.33,222.51,759,222.72Z"/><path class="cls-11" d="M643.05,289.64,639,292a1.59,1.59,0,0,1-1.45-.06l-3.83-2.21c-.43-.25-.48-.63-.11-.84l4-2.34a1.67,1.67,0,0,1,1.46.06L643,288.8C643.38,289.05,643.43,289.42,643.05,289.64Z"/><path class="cls-11" d="M653.84,283.41l-4.05,2.34a1.65,1.65,0,0,1-1.45-.06l-3.83-2.22c-.43-.25-.48-.62-.11-.84l4.05-2.33a1.59,1.59,0,0,1,1.45.06l3.83,2.21C654.16,282.82,654.21,283.2,653.84,283.41Z"/><path class="cls-11" d="M664.62,277.19l-4,2.33a1.59,1.59,0,0,1-1.45-.06l-3.83-2.21c-.43-.25-.48-.63-.11-.84l4.05-2.34a1.65,1.65,0,0,1,1.45.06l3.83,2.22C664.94,276.6,665,277,664.62,277.19Z"/><path class="cls-11" d="M675.4,271l-4,2.34a1.67,1.67,0,0,1-1.46-.06L666.07,271c-.43-.25-.48-.62-.1-.84l4-2.33a1.62,1.62,0,0,1,1.45.06l3.83,2.21C675.72,270.37,675.77,270.75,675.4,271Z"/><path class="cls-11" d="M686.18,264.74l-4,2.33a1.59,1.59,0,0,1-1.45-.06l-3.84-2.21c-.43-.25-.48-.63-.1-.84l4-2.33a1.59,1.59,0,0,1,1.45.06l3.84,2.21C686.51,264.15,686.55,264.52,686.18,264.74Z"/><path class="cls-11" d="M697,258.51l-4,2.34a1.62,1.62,0,0,1-1.45-.06l-3.84-2.22c-.43-.24-.47-.62-.1-.83l4-2.34a1.62,1.62,0,0,1,1.45.06l3.84,2.21C697.29,257.92,697.33,258.3,697,258.51Z"/><path class="cls-11" d="M707.74,252.29l-4,2.33a1.59,1.59,0,0,1-1.45-.06l-3.84-2.21c-.43-.25-.47-.62-.1-.84l4-2.33a1.59,1.59,0,0,1,1.45.06l3.84,2.21C708.07,251.7,708.11,252.07,707.74,252.29Z"/><path class="cls-11" d="M718.52,246.06l-4,2.34a1.62,1.62,0,0,1-1.45-.06l-3.84-2.22c-.43-.24-.47-.62-.1-.83l4-2.34a1.64,1.64,0,0,1,1.46.06l3.83,2.22C718.85,245.47,718.9,245.85,718.52,246.06Z"/><path class="cls-11" d="M729.31,239.84l-4,2.33a1.59,1.59,0,0,1-1.45-.06L720,239.9c-.43-.25-.48-.62-.11-.84l4-2.33a1.61,1.61,0,0,1,1.46.06L729.2,239C729.63,239.25,729.68,239.62,729.31,239.84Z"/><path class="cls-11" d="M740.09,233.61,736,236a1.62,1.62,0,0,1-1.45-.06l-3.83-2.22c-.43-.24-.48-.62-.11-.83l4.05-2.34a1.62,1.62,0,0,1,1.45.06l3.83,2.22C740.41,233,740.46,233.4,740.09,233.61Z"/><path class="cls-11" d="M653.84,308.31l-12.13,7a1.59,1.59,0,0,1-1.45-.06L636.42,313c-.43-.25-.48-.63-.1-.84l12.13-7a1.59,1.59,0,0,1,1.45.06l3.83,2.21C654.16,307.72,654.21,308.09,653.84,308.31Z"/><path class="cls-11" d="M780.52,235.17l-12.13,7a1.59,1.59,0,0,1-1.45-.06l-3.84-2.21c-.43-.25-.48-.62-.1-.84l12.13-7a1.59,1.59,0,0,1,1.45.06l3.83,2.21C780.84,234.58,780.89,235,780.52,235.17Z"/><path class="cls-11" d="M664.62,302.09l-4,2.33a1.62,1.62,0,0,1-1.45-.06l-3.83-2.21c-.43-.25-.48-.63-.11-.84l4.05-2.34a1.62,1.62,0,0,1,1.45.06l3.83,2.22C664.94,301.49,665,301.87,664.62,302.09Z"/><path class="cls-11" d="M666,295.86l4,2.33a1.46,1.46,0,0,0,1.35,0l79.51-45.9a.41.41,0,0,0,0-.78l-4-2.33a1.44,1.44,0,0,0-1.34,0L666,295.08C665.59,295.3,665.59,295.65,666,295.86Z"/><path class="cls-11" d="M761.65,246.06l-4,2.34a1.64,1.64,0,0,1-1.46-.06l-3.83-2.22c-.43-.24-.48-.62-.1-.83l4-2.34a1.62,1.62,0,0,1,1.45.06l3.83,2.22C762,245.47,762,245.85,761.65,246.06Z"/><path class="cls-11" d="M653.84,295.86l-22.91,13.23a1.64,1.64,0,0,1-1.46-.06l-3.83-2.22c-.43-.24-.48-.62-.1-.83l22.91-13.23a1.59,1.59,0,0,1,1.45.06l3.83,2.21C654.16,295.27,654.21,295.65,653.84,295.86Z"/><path class="cls-11" d="M769.73,229l-22.91,13.22a1.59,1.59,0,0,1-1.45-.06l-3.83-2.21c-.43-.25-.48-.62-.11-.84l22.91-13.23a1.67,1.67,0,0,1,1.46.06l3.83,2.22C770.06,228.36,770.11,228.73,769.73,229Z"/><path class="cls-11" d="M664.62,289.64l-4,2.33a1.62,1.62,0,0,1-1.45-.06l-3.83-2.21c-.43-.25-.48-.63-.11-.84l4.05-2.34a1.65,1.65,0,0,1,1.45.06l3.83,2.22C664.94,289.05,665,289.42,664.62,289.64Z"/><path class="cls-11" d="M675.4,283.41l-4,2.34a1.67,1.67,0,0,1-1.46-.06l-3.83-2.22c-.43-.25-.48-.62-.1-.84l4-2.33a1.59,1.59,0,0,1,1.45.06l3.83,2.21C675.72,282.82,675.77,283.2,675.4,283.41Z"/><path class="cls-11" d="M686.18,277.19l-4,2.33a1.59,1.59,0,0,1-1.45-.06l-3.84-2.21c-.43-.25-.48-.63-.1-.84l4-2.34a1.65,1.65,0,0,1,1.45.06l3.84,2.22C686.51,276.6,686.55,277,686.18,277.19Z"/><path class="cls-11" d="M697,271l-4,2.34a1.65,1.65,0,0,1-1.45-.06L687.63,271c-.43-.25-.47-.62-.1-.84l4-2.33a1.62,1.62,0,0,1,1.45.06l3.84,2.21C697.29,270.37,697.33,270.75,697,271Z"/><path class="cls-11" d="M707.74,264.74l-4,2.33a1.59,1.59,0,0,1-1.45-.06l-3.84-2.21c-.43-.25-.47-.63-.1-.84l4-2.33a1.59,1.59,0,0,1,1.45.06l3.84,2.21C708.07,264.15,708.11,264.52,707.74,264.74Z"/><path class="cls-11" d="M718.52,258.51l-4,2.34a1.62,1.62,0,0,1-1.45-.06l-3.84-2.22c-.43-.24-.47-.62-.1-.84l4-2.33a1.64,1.64,0,0,1,1.46.06l3.83,2.21C718.85,257.92,718.9,258.3,718.52,258.51Z"/><path class="cls-11" d="M729.31,252.29l-4,2.33a1.59,1.59,0,0,1-1.45-.06L720,252.35c-.43-.25-.48-.62-.11-.84l4-2.33a1.61,1.61,0,0,1,1.46.06l3.83,2.21C729.63,251.7,729.68,252.07,729.31,252.29Z"/><path class="cls-11" d="M740.09,246.06,736,248.4a1.62,1.62,0,0,1-1.45-.06l-3.83-2.22c-.43-.24-.48-.62-.11-.83L734.7,243a1.62,1.62,0,0,1,1.45.06l3.83,2.22C740.41,245.47,740.46,245.85,740.09,246.06Z"/><path class="cls-7" d="M801.92,290.9a3.54,3.54,0,0,1-.54.39l-62.46,36.07a8.29,8.29,0,0,1-7.49-.31l-31.89-18.41a5.56,5.56,0,0,1-1.07-.82,2,2,0,0,1,.53-3.5l62.47-36.08a8.36,8.36,0,0,1,7.49.33L800.84,287C802.84,288.12,803.24,289.78,801.92,290.9Z"/><path class="cls-12" d="M801.92,290.9a3.54,3.54,0,0,1-.54.39l-62.46,36.07a8.29,8.29,0,0,1-7.49-.31l-31.89-18.41a5.56,5.56,0,0,1-1.07-.82,2.69,2.69,0,0,1,.53-.39l62.47-36.07c1.92-1.11,5.26-1,7.49.31l31.88,18.42A5.25,5.25,0,0,1,801.92,290.9Z"/></g><g id="wires"><path class="cls-10" d="M655,352l-4.64-2.68L645.69,352h-2.38l.05,4.66a3.64,3.64,0,0,0,2,2.53h0a11,11,0,0,0,9.91,0l5-2.86V352Z"/><path class="cls-9" d="M645.36,354.9h0c-2.74-1.58-2.74-4.14,0-5.72l4.95-2.86,9.91,5.72-5,2.86A11,11,0,0,1,645.36,354.9Z"/><path class="cls-8" d="M576,464.69a1.24,1.24,0,0,1-.63-2.3l42.92-25.26a5.62,5.62,0,0,0,2.82-4.87V374.48a8.13,8.13,0,0,1,4-7l14.08-8.13a1.24,1.24,0,0,1,1.24,2.14l-14.08,8.13a5.63,5.63,0,0,0-2.81,4.87v57.78a8.13,8.13,0,0,1-4.05,7l-42.91,25.25A1.22,1.22,0,0,1,576,464.69Z"/><path class="cls-10" d="M639.85,362.88a2.47,2.47,0,0,1-1.23-4.61l4.52-2.61a2.47,2.47,0,0,1,2.47,4.28l-4.52,2.61A2.53,2.53,0,0,1,639.85,362.88Z"/><path class="cls-10" d="M677,364.76l-4.63-2.67-4.63,2.66h-2.38l0,4.66a3.64,3.64,0,0,0,2,2.53h0a11,11,0,0,0,9.91,0l5-2.86v-4.32Z"/><path class="cls-9" d="M667.39,367.62h0c-2.73-1.58-2.73-4.14,0-5.72l5-2.86,9.9,5.72-5,2.86A11,11,0,0,1,667.39,367.62Z"/><path class="cls-8" d="M545.85,548.65a1.24,1.24,0,0,1-.63-2.31L640.32,491a5.64,5.64,0,0,0,2.82-4.87V387.2a8.13,8.13,0,0,1,4-7l14.08-8.13a1.24,1.24,0,0,1,1.24,2.14l-14.08,8.13a5.63,5.63,0,0,0-2.81,4.87v98.93a8.11,8.11,0,0,1-4.05,7l-95.09,55.34A1.29,1.29,0,0,1,545.85,548.65Z"/><path class="cls-10" d="M661.88,375.6a2.47,2.47,0,0,1-1.23-4.61l4.76-2.75a2.47,2.47,0,0,1,2.47,4.28l-4.76,2.75A2.53,2.53,0,0,1,661.88,375.6Z"/><path class="cls-10" d="M634.57,340.3l-4.63-2.67-4.62,2.67h-2.38l0,4.65a3.65,3.65,0,0,0,2,2.54h0a11,11,0,0,0,9.91,0l5-2.86v-4.32Z"/><path class="cls-9" d="M625,343.17h0c-2.74-1.58-2.74-4.14,0-5.72l5-2.86,9.91,5.72-5,2.86A11,11,0,0,1,625,343.17Z"/><path class="cls-8" d="M529.68,439.52a1.24,1.24,0,0,1-.61-2.31L597.93,398a5.64,5.64,0,0,0,2.8-4.87V362.74a8.13,8.13,0,0,1,4-7l14.08-8.13a1.24,1.24,0,0,1,1.69.46,1.23,1.23,0,0,1-.45,1.68L606,357.87a5.65,5.65,0,0,0-2.82,4.87v30.35a8.13,8.13,0,0,1-4,7l-68.87,39.25A1.22,1.22,0,0,1,529.68,439.52Z"/><path class="cls-10" d="M619.48,351.14a2.47,2.47,0,0,1-1.24-4.61l4.85-2.79a2.47,2.47,0,0,1,2.47,4.28l-4.84,2.79A2.43,2.43,0,0,1,619.48,351.14Z"/></g><g id="data-1"><path class="cls-1" d="M611.83,570.64,457,660.06l-52.28,30.17c-3.93,2.28-10.8,2-15.34-.63L9.79,470.48l59.4-34.29,147.74-85.31c3.94-2.28,10.82-2,15.36.63Z"/><path class="cls-9" d="M621.61,562.68c0,1.44-.87,2.81-2.64,3.84l-7.14,4.12L457,660.06l-52.28,30.17c-3.93,2.28-10.8,2-15.34-.63L9.79,470.48l-6-3.49-.45-.27a10.51,10.51,0,0,1-1.83-1.48,7.69,7.69,0,0,1-.53-.63A4.5,4.5,0,0,1,0,462c0-1.44.88-2.81,2.66-3.84L54.94,428l162-93.54c3.94-2.28,10.82-2,15.36.63L617.86,557.66C620.34,559.1,621.61,560.94,621.61,562.68Z"/><path class="cls-1" d="M621.61,562.68v8.23c0,1.44-.87,2.81-2.64,3.84L404.68,698.46a3.23,3.23,0,0,1-.49.25c-3.43,1.73-8.71,1.69-12.89.07a13.67,13.67,0,0,1-2-.95L3.77,475.22C1.28,473.78,0,472,0,470.2V462a4.5,4.5,0,0,0,1,2.64,6.1,6.1,0,0,0,.53.63,8.74,8.74,0,0,0,1.83,1.48l.45.27,6,3.49L389.34,689.6a13.67,13.67,0,0,0,2,.95c4.18,1.62,9.46,1.66,12.89-.07a3.23,3.23,0,0,0,.49-.25L457,660.06l154.87-89.42,7.14-4.12C620.74,565.49,621.61,564.12,621.61,562.68Z"/></g><g id="data-2"><path class="cls-1" d="M611.83,528.34,457,617.76l-52.28,30.17c-3.93,2.28-10.8,2-15.34-.63L9.79,428.18l59.4-34.29,147.74-85.31c3.94-2.27,10.82-2,15.36.63Z"/><path class="cls-9" d="M621.61,520.38c0,1.44-.87,2.81-2.64,3.84l-7.14,4.12L457,617.76l-52.28,30.17c-3.93,2.28-10.8,2-15.34-.63L9.79,428.18l-6-3.49-.45-.27a10.51,10.51,0,0,1-1.83-1.48,7.69,7.69,0,0,1-.53-.63A4.5,4.5,0,0,1,0,419.67c0-1.44.88-2.81,2.66-3.84l52.28-30.17,162-93.54c3.94-2.27,10.82-2,15.36.63L617.86,515.36C620.34,516.8,621.61,518.64,621.61,520.38Z"/><path class="cls-1" d="M621.61,520.38v8.23c0,1.44-.87,2.81-2.64,3.84L404.68,656.16a3.23,3.23,0,0,1-.49.25c-3.43,1.73-8.71,1.69-12.89.07a13.67,13.67,0,0,1-2-1L3.77,432.92c-2.49-1.44-3.77-3.27-3.77-5v-8.23a4.5,4.5,0,0,0,1,2.64,6.1,6.1,0,0,0,.53.63,8.74,8.74,0,0,0,1.83,1.48l.45.27,6,3.49L389.34,647.3a13.67,13.67,0,0,0,2,1c4.18,1.62,9.46,1.66,12.89-.07a3.23,3.23,0,0,0,.49-.25L457,617.76l154.87-89.42,7.14-4.12C620.74,523.19,621.61,521.82,621.61,520.38Z"/></g><g id="data-3"><path class="cls-1" d="M611.83,486,457,575.46l-52.28,30.17c-3.93,2.28-10.8,2-15.34-.63L9.79,385.88l59.4-34.29,147.74-85.31c3.94-2.27,10.82-2,15.36.63Z"/><path class="cls-9" d="M621.61,478.08c0,1.44-.87,2.81-2.64,3.84L611.83,486,457,575.46l-52.28,30.17c-3.93,2.28-10.8,2-15.34-.63L9.79,385.88l-6-3.49c-.15-.09-.3-.17-.45-.27a10.51,10.51,0,0,1-1.83-1.48A7.69,7.69,0,0,1,1,380,4.5,4.5,0,0,1,0,377.37c0-1.44.88-2.81,2.66-3.84l52.28-30.17,162-93.54c3.94-2.27,10.82-2,15.36.63L617.86,473.06C620.34,474.5,621.61,476.34,621.61,478.08Z"/><path class="cls-2" d="M457,575.46l-52.28,30.17a3.23,3.23,0,0,1-.49.25c-3.43,1.73-8.71,1.69-12.89.07a13.67,13.67,0,0,1-2-1L9.79,385.88l-6-3.49c-.15-.09-.3-.17-.45-.27a8.74,8.74,0,0,1-1.83-1.48A7.69,7.69,0,0,1,1,380,4.5,4.5,0,0,1,0,377.37c0-1.44.88-2.81,2.66-3.84l52.28-30.17,14.25,8.23Z"/><ellipse class="cls-8" cx="26.66" cy="378.26" rx="2.67" ry="4.72" transform="translate(-352.05 358.96) rotate(-83.05)"/><ellipse class="cls-13" cx="41.33" cy="369.79" rx="2.67" ry="4.72" transform="translate(-330.74 366.08) rotate(-83.05)"/><ellipse class="cls-14" cx="56" cy="361.32" rx="2.67" ry="4.72" transform="translate(-309.44 373.2) rotate(-83.05)"/><path class="cls-14" d="M80.7,385l-13.06,7.54a4.25,4.25,0,0,1-3.84-.16h0c-1.14-.65-1.26-1.64-.28-2.21l13.07-7.55a4.28,4.28,0,0,1,3.84.16h0C81.56,383.42,81.69,384.41,80.7,385Z"/><path class="cls-15" d="M95.79,393.69l-13.07,7.54a4.23,4.23,0,0,1-3.83-.16h0c-1.14-.65-1.26-1.64-.28-2.21l13.07-7.55a4.31,4.31,0,0,1,3.84.16h0C96.65,392.13,96.78,393.12,95.79,393.69Z"/><path class="cls-14" d="M110.88,402.4,97.81,410a4.31,4.31,0,0,1-3.84-.16h0c-1.13-.66-1.26-1.65-.27-2.22L106.77,400a4.26,4.26,0,0,1,3.83.15h0C111.74,400.84,111.86,401.83,110.88,402.4Z"/><path class="cls-14" d="M126,411.11l-13.07,7.55a4.31,4.31,0,0,1-3.84-.16h0c-1.13-.66-1.26-1.65-.27-2.22l13.06-7.54a4.25,4.25,0,0,1,3.84.16h0C126.83,409.55,127,410.54,126,411.11Z"/><path class="cls-15" d="M141.06,419.82,128,427.37a4.28,4.28,0,0,1-3.84-.16h0c-1.14-.66-1.26-1.65-.27-2.22l13.06-7.54a4.25,4.25,0,0,1,3.84.16h0C141.92,418.26,142,419.26,141.06,419.82Z"/><path class="cls-15" d="M156.15,428.53l-13.07,7.55a4.25,4.25,0,0,1-3.84-.16h0c-1.14-.66-1.26-1.65-.28-2.22L152,426.16a4.25,4.25,0,0,1,3.84.16h0C157,427,157.13,428,156.15,428.53Z"/><path class="cls-14" d="M171.23,437.25l-13.06,7.54a4.25,4.25,0,0,1-3.84-.16h0c-1.14-.65-1.26-1.65-.28-2.22l13.07-7.54A4.25,4.25,0,0,1,171,435h0C172.09,435.69,172.22,436.68,171.23,437.25Z"/><path class="cls-14" d="M186.32,446l-13.06,7.54a4.25,4.25,0,0,1-3.84-.16h0c-1.14-.65-1.26-1.65-.28-2.21l13.07-7.55a4.25,4.25,0,0,1,3.84.16h0C187.18,444.4,187.31,445.39,186.32,446Z"/><path class="cls-14" d="M201.41,454.67l-13.07,7.54a4.25,4.25,0,0,1-3.84-.16h0c-1.13-.65-1.26-1.64-.27-2.21l13.07-7.55a4.26,4.26,0,0,1,3.83.16h0C202.27,453.11,202.39,454.1,201.41,454.67Z"/><path class="cls-15" d="M216.5,463.38l-13.07,7.54a4.28,4.28,0,0,1-3.84-.15h0c-1.13-.66-1.26-1.65-.27-2.22L212.38,461a4.31,4.31,0,0,1,3.84.16h0C217.36,461.82,217.48,462.81,216.5,463.38Z"/><path class="cls-14" d="M231.59,472.09l-13.07,7.55a4.31,4.31,0,0,1-3.84-.16h0c-1.14-.66-1.26-1.65-.27-2.22l13.06-7.54a4.28,4.28,0,0,1,3.84.15h0C232.45,470.53,232.57,471.52,231.59,472.09Z"/><path class="cls-14" d="M246.68,480.8l-13.07,7.55a4.28,4.28,0,0,1-3.84-.16h0c-1.14-.66-1.26-1.65-.28-2.22l13.07-7.54a4.25,4.25,0,0,1,3.84.16h0C247.54,479.24,247.66,480.23,246.68,480.8Z"/><path class="cls-15" d="M261.76,489.51l-13.06,7.55a4.25,4.25,0,0,1-3.84-.16h0c-1.14-.66-1.26-1.65-.28-2.22l13.07-7.54a4.25,4.25,0,0,1,3.84.16h0C262.62,488,262.75,489,261.76,489.51Z"/><path class="cls-14" d="M276.85,498.23l-13.06,7.54a4.25,4.25,0,0,1-3.84-.16h0c-1.14-.66-1.26-1.65-.28-2.22l13.07-7.54a4.25,4.25,0,0,1,3.84.16h0C277.71,496.66,277.84,497.66,276.85,498.23Z"/><path class="cls-8" d="M146.26,347.13l-17.82,10.29a4.31,4.31,0,0,1-3.84-.16h0c-1.13-.66-1.26-1.65-.27-2.22l17.82-10.29a4.28,4.28,0,0,1,3.84.16h0C147.12,345.57,147.25,346.56,146.26,347.13Z"/><path class="cls-8" d="M212.78,308.72,157,341a4.31,4.31,0,0,1-3.84-.16h0c-1.13-.66-1.26-1.65-.27-2.22l55.83-32.23a4.28,4.28,0,0,1,3.84.15h0C213.65,307.16,213.77,308.15,212.78,308.72Z"/><path class="cls-8" d="M300.23,397.61l-51.08,29.5a4.31,4.31,0,0,1-3.84-.16h0c-1.13-.66-1.26-1.65-.27-2.22l51.08-29.49a4.25,4.25,0,0,1,3.84.16h0C301.09,396.05,301.21,397.05,300.23,397.61Z"/><path class="cls-8" d="M345.37,371.55l-34.45,19.89a4.25,4.25,0,0,1-3.84-.16h0c-1.13-.65-1.26-1.65-.27-2.21l34.45-19.89a4.25,4.25,0,0,1,3.84.16h0C346.23,370,346.36,371,345.37,371.55Z"/><path class="cls-8" d="M305.11,447.07l-10.69,6.17a4.25,4.25,0,0,1-3.84-.16h0c-1.14-.66-1.26-1.65-.28-2.22L301,444.69a4.25,4.25,0,0,1,3.84.16h0C306,445.51,306.09,446.5,305.11,447.07Z"/><path class="cls-8" d="M390.64,397.69l-74.84,43.2a4.28,4.28,0,0,1-3.84-.15h0c-1.14-.66-1.26-1.65-.28-2.22l74.84-43.21a4.25,4.25,0,0,1,3.84.16h0C391.5,396.13,391.62,397.12,390.64,397.69Z"/><path class="cls-4" d="M199.36,333.89l-20.19,11.66a4.25,4.25,0,0,1-3.84-.16h0c-1.14-.65-1.26-1.65-.28-2.21l20.2-11.66a4.25,4.25,0,0,1,3.84.16h0C200.22,332.33,200.35,333.32,199.36,333.89Z"/><path class="cls-4" d="M239.75,310.57l-29.7,17.15a4.23,4.23,0,0,1-3.83-.16h0c-1.14-.66-1.26-1.65-.28-2.22l29.7-17.14a4.25,4.25,0,0,1,3.84.16h0C240.61,309,240.74,310,239.75,310.57Z"/><path class="cls-4" d="M266.72,312.43,213.84,343a4.25,4.25,0,0,1-3.84-.16h0c-1.14-.66-1.26-1.65-.28-2.22l52.88-30.53a4.25,4.25,0,0,1,3.84.16h0C267.58,310.87,267.7,311.86,266.72,312.43Z"/><path class="cls-4" d="M203.15,349.13l-8.89,5.13a4.25,4.25,0,0,1-3.84-.16h0c-1.14-.65-1.26-1.64-.28-2.21l8.89-5.13a4.28,4.28,0,0,1,3.84.15h0C204,347.57,204.13,348.56,203.15,349.13Z"/><path class="cls-4" d="M296.9,329.85,250,357a4.25,4.25,0,0,1-3.84-.16h0c-1.13-.65-1.26-1.65-.27-2.21l46.94-27.11a4.31,4.31,0,0,1,3.84.16h0C297.76,328.29,297.88,329.28,296.9,329.85Z"/><path class="cls-4" d="M239.26,363.12l-14.83,8.57a4.29,4.29,0,0,1-3.83-.16h0c-1.14-.66-1.26-1.65-.28-2.22l14.83-8.56a4.25,4.25,0,0,1,3.84.16h0C240.12,361.56,240.25,362.56,239.26,363.12Z"/><path class="cls-4" d="M323.47,366.43,287.79,387a4.31,4.31,0,0,1-3.84-.16h0c-1.14-.66-1.26-1.65-.28-2.22l35.68-20.6a4.25,4.25,0,0,1,3.84.16h0C324.33,364.87,324.45,365.86,323.47,366.43Z"/><path class="cls-4" d="M277.1,393.2l-7.7,4.44a4.25,4.25,0,0,1-3.84-.16h0c-1.14-.65-1.26-1.64-.28-2.21l7.7-4.45a4.28,4.28,0,0,1,3.84.16h0C278,391.64,278.08,392.63,277.1,393.2Z"/><path class="cls-4" d="M341.86,355.81l-7.7,4.44a4.28,4.28,0,0,1-3.84-.15h0c-1.14-.66-1.26-1.65-.28-2.22l7.7-4.45a4.28,4.28,0,0,1,3.84.16h0C342.72,354.25,342.84,355.24,341.86,355.81Z"/><path class="cls-4" d="M283.41,372.48l-28.8,16.63a4.25,4.25,0,0,1-3.84-.16h0c-1.13-.66-1.26-1.65-.27-2.22l28.8-16.63a4.28,4.28,0,0,1,3.84.16h0C284.28,370.92,284.4,371.91,283.41,372.48Z"/><path class="cls-4" d="M293.69,314.28,253.3,337.6a4.25,4.25,0,0,1-3.84-.16h0c-1.14-.66-1.26-1.65-.28-2.22l40.39-23.32a4.31,4.31,0,0,1,3.84.16h0C294.55,312.72,294.67,313.71,293.69,314.28Z"/><path class="cls-4" d="M242.61,343.77,209.35,363a4.28,4.28,0,0,1-3.84-.15h0c-1.14-.66-1.26-1.65-.28-2.22l33.26-19.2a4.28,4.28,0,0,1,3.84.15h0C243.47,342.21,243.59,343.2,242.61,343.77Z"/><path class="cls-4" d="M428.58,405.88l-52.89,30.53c-1,.57-.86,1.56.28,2.21h0a4.25,4.25,0,0,0,3.84.16l52.88-30.53c1-.57.86-1.56-.27-2.22h0A4.28,4.28,0,0,0,428.58,405.88Z"/><path class="cls-4" d="M365,442.58l-8.89,5.13c-1,.57-.86,1.56.28,2.22h0a4.28,4.28,0,0,0,3.84.16l8.89-5.13c1-.57.86-1.57-.28-2.22h0A4.25,4.25,0,0,0,365,442.58Z"/><path class="cls-4" d="M425.37,390.31,385,413.62c-1,.57-.86,1.56.27,2.22h0a4.25,4.25,0,0,0,3.84.16l40.39-23.32c1-.57.86-1.56-.27-2.21h0A4.28,4.28,0,0,0,425.37,390.31Z"/><path class="cls-4" d="M374.29,419.8,341,439c-1,.57-.86,1.56.27,2.22h0a4.31,4.31,0,0,0,3.84.16l33.26-19.21c1-.57.86-1.56-.27-2.21h0A4.25,4.25,0,0,0,374.29,419.8Z"/><path class="cls-4" d="M387.43,382.12l-46.95,27.1a4.25,4.25,0,0,1-3.84-.16h0c-1.13-.66-1.25-1.65-.27-2.22l46.94-27.1a4.25,4.25,0,0,1,3.84.16h0C388.29,380.56,388.41,381.55,387.43,382.12Z"/><path class="cls-4" d="M329.79,415.39,315,424a4.23,4.23,0,0,1-3.83-.16h0c-1.14-.65-1.26-1.64-.28-2.21L325.68,413a4.25,4.25,0,0,1,3.84.16h0C330.65,413.83,330.78,414.82,329.79,415.39Z"/><path class="cls-4" d="M384.22,366.55l-40.39,23.32a4.31,4.31,0,0,1-3.84-.16h0c-1.14-.66-1.26-1.65-.28-2.22l40.39-23.32a4.28,4.28,0,0,1,3.84.16h0C385.08,365,385.2,366,384.22,366.55Z"/><path class="cls-4" d="M333.14,396l-33.26,19.2a4.25,4.25,0,0,1-3.84-.16h0c-1.14-.65-1.26-1.65-.28-2.21L329,393.66a4.28,4.28,0,0,1,3.84.16h0C334,394.48,334.12,395.47,333.14,396Z"/><path class="cls-8" d="M420.94,467.31,369.86,496.8a4.31,4.31,0,0,1-3.84-.16h0c-1.14-.66-1.26-1.65-.28-2.22l51.08-29.49a4.25,4.25,0,0,1,3.84.16h0C421.8,465.74,421.92,466.74,420.94,467.31Z"/><path class="cls-8" d="M466.08,441.24l-34.45,19.89a4.25,4.25,0,0,1-3.84-.16h0c-1.14-.65-1.26-1.64-.28-2.21L462,438.87a4.25,4.25,0,0,1,3.84.16h0C466.94,439.68,467.06,440.68,466.08,441.24Z"/><path class="cls-8" d="M425.81,516.76l-10.69,6.17a4.25,4.25,0,0,1-3.84-.16h0c-1.13-.66-1.26-1.65-.27-2.22l10.69-6.17a4.25,4.25,0,0,1,3.84.16h0C426.68,515.2,426.8,516.19,425.81,516.76Z"/><path class="cls-8" d="M511.34,467.38l-74.83,43.21a4.31,4.31,0,0,1-3.84-.16h0c-1.14-.66-1.26-1.65-.28-2.22L507.23,465a4.25,4.25,0,0,1,3.84.16h0C512.2,465.82,512.33,466.81,511.34,467.38Z"/><path class="cls-4" d="M549.28,475.57,496.4,506.1c-1,.57-.86,1.56.28,2.21h0a4.25,4.25,0,0,0,3.84.16l52.88-30.53c1-.57.86-1.56-.28-2.22h0A4.28,4.28,0,0,0,549.28,475.57Z"/><path class="cls-4" d="M485.71,512.27l-8.89,5.13c-1,.57-.86,1.56.28,2.22h0a4.28,4.28,0,0,0,3.84.16l8.89-5.13c1-.57.86-1.57-.28-2.22h0A4.25,4.25,0,0,0,485.71,512.27Z"/><path class="cls-4" d="M546.07,460l-40.38,23.31c-1,.57-.86,1.57.27,2.22h0a4.25,4.25,0,0,0,3.84.16l40.39-23.32c1-.57.86-1.56-.28-2.21h0A4.25,4.25,0,0,0,546.07,460Z"/><path class="cls-4" d="M495,489.49l-33.26,19.2c-1,.57-.86,1.56.28,2.22h0a4.31,4.31,0,0,0,3.84.16l33.26-19.21c1-.57.86-1.56-.28-2.21h0A4.25,4.25,0,0,0,495,489.49Z"/><path class="cls-4" d="M508.13,451.81l-46.94,27.1a4.25,4.25,0,0,1-3.84-.16h0c-1.13-.66-1.26-1.65-.27-2.22L504,449.43a4.28,4.28,0,0,1,3.84.16h0C509,450.25,509.12,451.24,508.13,451.81Z"/><path class="cls-4" d="M450.5,485.08l-14.83,8.56a4.25,4.25,0,0,1-3.84-.16h0c-1.13-.65-1.26-1.64-.27-2.21l14.83-8.56a4.23,4.23,0,0,1,3.83.16h0C451.36,483.52,451.48,484.51,450.5,485.08Z"/><path class="cls-4" d="M504.92,436.24l-40.38,23.32a4.31,4.31,0,0,1-3.84-.16h0c-1.14-.66-1.26-1.65-.28-2.22l40.39-23.32a4.28,4.28,0,0,1,3.84.16h0C505.79,434.68,505.91,435.67,504.92,436.24Z"/><path class="cls-4" d="M453.84,465.73l-33.26,19.2a4.25,4.25,0,0,1-3.84-.16h0c-1.13-.65-1.26-1.65-.27-2.21l33.26-19.21a4.31,4.31,0,0,1,3.84.16h0C454.71,464.17,454.83,465.16,453.84,465.73Z"/><path class="cls-4" d="M239.52,380.4l52.27-30.18c1-.57.86-1.56-.28-2.22h0a4.29,4.29,0,0,0-3.83-.16L235.41,378c-1,.57-.86,1.56.27,2.22h0A4.28,4.28,0,0,0,239.52,380.4Z"/><path class="cls-4" d="M302.48,344.05l21.38-12.35c1-.57.86-1.56-.27-2.21h0a4.25,4.25,0,0,0-3.84-.16l-21.38,12.34c-1,.57-.86,1.56.27,2.22h0A4.28,4.28,0,0,0,302.48,344.05Z"/><path class="cls-4" d="M339,340.41l-44.84,25.9a4.31,4.31,0,0,1-3.84-.16h0c-1.14-.66-1.26-1.65-.28-2.22L334.84,338a4.25,4.25,0,0,1,3.84.16h0C339.81,338.85,339.94,339.85,339,340.41Z"/><path class="cls-14" d="M322.12,524.36l-13.07,7.54a4.25,4.25,0,0,1-3.84-.16h0c-1.13-.65-1.26-1.64-.27-2.21L318,522a4.31,4.31,0,0,1,3.84.16h0C323,522.8,323.1,523.79,322.12,524.36Z"/><path class="cls-14" d="M337.21,533.07l-13.07,7.54a4.28,4.28,0,0,1-3.84-.15h0c-1.14-.66-1.26-1.65-.28-2.22l13.07-7.55a4.31,4.31,0,0,1,3.84.16h0C338.07,531.51,338.19,532.5,337.21,533.07Z"/><path class="cls-15" d="M352.29,541.78l-13.06,7.55a4.31,4.31,0,0,1-3.84-.16h0c-1.14-.66-1.26-1.65-.28-2.22l13.07-7.54a4.25,4.25,0,0,1,3.84.16h0C353.16,540.22,353.28,541.21,352.29,541.78Z"/><path class="cls-14" d="M367.38,550.49,354.32,558a4.28,4.28,0,0,1-3.84-.16h0c-1.14-.66-1.26-1.65-.28-2.22l13.07-7.54a4.25,4.25,0,0,1,3.84.16h0C368.24,548.93,368.37,549.92,367.38,550.49Z"/><path class="cls-15" d="M382.47,559.2l-13.07,7.55a4.25,4.25,0,0,1-3.84-.16h0c-1.13-.66-1.25-1.65-.27-2.22l13.07-7.54a4.25,4.25,0,0,1,3.84.16h0C383.33,557.64,383.46,558.64,382.47,559.2Z"/><path class="cls-15" d="M397.56,567.92l-13.07,7.54a4.25,4.25,0,0,1-3.84-.16h0c-1.13-.66-1.26-1.65-.27-2.22l13.06-7.54a4.25,4.25,0,0,1,3.84.16h0C398.42,566.36,398.54,567.35,397.56,567.92Z"/><path class="cls-1" d="M621.61,478.08v8.23c0,1.44-.87,2.81-2.64,3.84L404.68,613.86a3.23,3.23,0,0,1-.49.25c-3.43,1.73-8.71,1.69-12.89.07a13.67,13.67,0,0,1-2-.95L3.77,390.62c-2.49-1.44-3.77-3.27-3.77-5v-8.23A4.5,4.5,0,0,0,1,380a6.1,6.1,0,0,0,.53.63,8.74,8.74,0,0,0,1.83,1.48c.15.1.3.18.45.27l6,3.49L389.34,605a13.67,13.67,0,0,0,2,1c4.18,1.62,9.46,1.66,12.89-.07a3.23,3.23,0,0,0,.49-.25L457,575.46,611.83,486l7.14-4.12C620.74,480.89,621.61,479.52,621.61,478.08Z"/></g><g id="pot"><path class="cls-1" d="M500.7,202.74v73a3.9,3.9,0,0,1-2,3.49l-71.87,41.5-3.42,2-.15.08-.08,0a8.66,8.66,0,0,1-7.72,0l-.08,0-3.48-2L340.1,279.32a4.27,4.27,0,0,1-1.49-1.5,4.14,4.14,0,0,1-.51-1.92V202.74h30.77l46.44-26.82a8.1,8.1,0,0,1,8.08,0l46.44,26.82Z"/><path class="cls-2" d="M498.73,206.08l-71.87,41.5-3.42,2-.15.08-.08,0a8.6,8.6,0,0,1-7.72,0l-.08,0-3.48-2L340.1,206.15a4,4,0,0,1,0-7l75.21-43.42a8.1,8.1,0,0,1,8.08,0l75.34,43.5A3.93,3.93,0,0,1,498.73,206.08Z"/><path class="cls-1" d="M458.77,204.34,448,210.56l-26.6,15.35-.06.05h0a4.32,4.32,0,0,1-3.84,0h0l-26.67-15.4-10.7-6.19a2,2,0,0,1,0-3.46l37.32-21.54a4.06,4.06,0,0,1,4,0L458.77,201A2,2,0,0,1,458.77,204.34Z"/><path class="cls-10" d="M448,210.56l-26.6,15.35-.06.05h0a4.32,4.32,0,0,1-3.84,0h0l-26.67-15.4,26.62-15.37a4,4,0,0,1,4,0Z"/><path class="cls-3" d="M426.86,247.58v73.15l-3.42,2-.15.08-.08,0a8.66,8.66,0,0,1-7.72,0l-.08,0-3.48-2V247.63l3.48,2,.08,0a8.6,8.6,0,0,0,7.72,0l.08,0,.15-.08Z"/><path class="cls-4" d="M494.38,47.68s1.47-9,12.53-16.76S541.1,25.23,548,22.54c0,0-10.89,8.93-15.76,13.77s-10.55,9.87-23,9.87S494.38,47.68,494.38,47.68Z"/><path class="cls-2" d="M472.25,61.84a32.25,32.25,0,0,0,1.89-32.17s-7.67,5.91-11.31,12.69S461.44,58.82,472.25,61.84Z"/><path class="cls-4" d="M483,54s22.16-2.5,23.67,10C506.66,64,495.52,70.2,483,54Z"/><path class="cls-1" d="M454.62,80s28.7-19.55,42.52-.94c0,0-7.33,11.69-21.26,11.56S455.58,82.09,454.62,80Z"/><path class="cls-4" d="M454.62,80s5.74-12.3,2.2-22.44-15.11-14.66-15.11-14.66-5.11,7.37-3.85,14.75,5.36,11.06,8,12.65S454.37,77.06,454.62,80Z"/><path class="cls-9" d="M389.83,135.14s-12.94-4.13-22.54.68-12.62,16.86-12.62,16.86,8,4.13,15.12,1.94,10.29-6.73,11.53-9.6S386.93,135.76,389.83,135.14Z"/><path class="cls-4" d="M437.66,108.29s5.56-10.37,24.41-9.86,17.73,9.93,44-1.64c0,0-9.25,14.46-28.51,24.14S436,123.57,437.66,108.29Z"/><path class="cls-2" d="M437.66,108.29s4.72-14.52,1.2-26.42S427.63,68.8,422.6,68.38s-14.32-1.42-13-12.9c0,0-9.52,11.5-6.88,26.41s10.37,22.07,16.75,25S433.48,111,437.66,108.29Z"/><path class="cls-1" d="M471.38,145.23s2.17-15.09,20.11-16.43,36.53,13.91,43.74,29.5c0,0-12.06-8.21-22.71-4.69S486.77,165.25,471.38,145.23Z"/><path class="cls-9" d="M436.58,163.29s17.37-11.26,36,0,15.59,28.63,15.59,28.63A34.79,34.79,0,0,1,462,184.61C449.76,174.72,452.61,166.51,436.58,163.29Z"/><path class="cls-4" d="M447.4,130.53s-10.49,5.08-15.41,11.68-2.28,16,5.84,20c0,0-2.55-4.44,2.72-8S455.38,142,447.4,130.53Z"/><path class="cls-1" d="M402.28,152.51a24.79,24.79,0,0,0-2.68-18.83c-5.65-9.49-18.1-17.15-12.44-35.13,0,0,15.33,3.27,24.13,16.47S414.14,149.4,402.28,152.51Z"/><path class="cls-4" d="M372.16,118.41s2.51-14.91-18.77-21.62-41.23,9-42.41,30c0,0,6.37-12.07,23.3-6.53S361.1,128.47,372.16,118.41Z"/><path class="cls-1" d="M419.49,211.16a1.23,1.23,0,0,1-1.23-1.15h0a252,252,0,0,1,6.25-66.4c7.65-32.69,25.89-76.05,69.34-97a1.24,1.24,0,0,1,1.07,2.23c-42.55,20.55-60.46,63.17-68,95.31a252.79,252.79,0,0,0-6.17,45.59C425.27,173,437.63,151,471.13,144a1.23,1.23,0,0,1,1.46,1,1.25,1.25,0,0,1-1,1.46c-52.2,10.83-51.18,58.13-50.93,63.05,0,.21,0,.33,0,.35a1.22,1.22,0,0,1-1.15,1.31Z"/><path class="cls-1" d="M419.49,211.16a1.25,1.25,0,0,1-1.24-1.24c0-.54-.64-55.13-46.84-90.53a1.22,1.22,0,0,1-.23-1.73,1.24,1.24,0,0,1,1.73-.23c47.2,36.15,47.81,91.93,47.81,92.49a1.24,1.24,0,0,1-1.23,1.24Z"/></g></g></g></svg>