<svg width="39" height="31" viewBox="0 0 39 31" fill="none" xmlns="http://www.w3.org/2000/svg">
<path opacity="0.3" fill-rule="evenodd" clip-rule="evenodd" d="M17.5511 19.6981V4.68955C17.5511 2.32125 15.6313 0.401367 13.263 0.401367H4.68662C2.31832 0.401367 0.398438 2.32125 0.398438 4.68955V13.2659C0.398438 15.6342 2.31832 17.5541 4.68662 17.5541H11.1189V19.6981C11.1587 21.775 9.70429 23.5817 7.6669 23.9864C7.19157 24.0932 6.84808 24.5072 6.83071 24.9941V29.2823C6.81477 29.615 6.94847 29.9375 7.19521 30.1614C7.42327 30.3646 7.72852 30.4586 8.0314 30.4186C13.4789 29.8048 17.5857 25.1801 17.5511 19.6981ZM26.128 0.401367H34.7044C37.0726 0.401367 38.9926 2.32125 38.9926 4.68955V19.6981C39.016 25.1719 34.9122 29.7842 29.4727 30.3972C29.1699 30.4371 28.8647 30.3432 28.6366 30.1399C28.407 29.9309 28.2748 29.6357 28.2721 29.3252V25.037C28.2699 24.5339 28.6176 24.0971 29.1083 23.9864C31.1457 23.5817 32.6001 21.775 32.5602 19.6981V17.5541H26.128C23.7597 17.5541 21.8399 15.6342 21.8399 13.2659V4.68955C21.8399 2.32125 23.7597 0.401367 26.128 0.401367Z" fill="#2DD4E8"/>
</svg>
